<?xml version="1.0" encoding="UTF-8" standalone="no"?>
<!-- Created with Inkscape (http://www.inkscape.org/) -->

<svg
   width="29.256428mm"
   height="12.51109mm"
   viewBox="0 0 29.256428 12.51109"
   version="1.1"
   id="svg1"
   xmlns="http://www.w3.org/2000/svg"
   xmlns:svg="http://www.w3.org/2000/svg"
   xmlns:ns1="http://wanglongqi.github.io/WriteTeX">
  <defs
     id="defs1">
    <marker
       style="overflow:visible"
       id="ArrowTriangleStylized-9-2"
       refX="0"
       refY="0"
       orient="auto-start-reverse"
       markerWidth="1"
       markerHeight="1"
       viewBox="0 0 1 1"
       preserveAspectRatio="xMidYMid">
      <path
         transform="scale(0.5)"
         style="fill:context-stroke;fill-rule:evenodd;stroke:context-stroke;stroke-width:1pt"
         d="m 6,0 c -3,1 -7,3 -9,5 0,0 0,-4 2,-5 -2,-1 -2,-5 -2,-5 2,2 6,4 9,5 z"
         id="path12-4-3" />
    </marker>
  </defs>
  <g
     id="layer1"
     transform="translate(-156.89168,-11.293916)">
    <g
       id="g43">
      <g
         id="g34">
        <circle
           style="fill:#fbfbfb;fill-opacity:1;stroke:none;stroke-width:0.0603216;stroke-dasharray:none;stroke-opacity:1;paint-order:fill markers stroke"
           id="path4-8-8-1-8"
           cx="173.76823"
           cy="15.132883"
           r="0.15000001" />
        <g
           ns1:text="\(P\)"
           transform="matrix(0.1,0,0,0.1,156.90352,4.292783)"
           id="g10-2-1-8-8"
           style="fill:#ffffff;fill-opacity:1">
          <g
             id="g9-6-4-5-4"
             style="fill:#ffffff;fill-opacity:1">
            <g
               style="fill:#ffffff;fill-opacity:1"
               id="g8-1-6-0-5">
              <path
                 style="fill:#ffffff;fill-opacity:1;stroke:none"
                 d="M 3.015625,-3.15625 H 4.71875 c 1.40625,0 2.796875,-1.03125 2.796875,-2.140625 0,-0.78125 -0.65625,-1.515625 -1.96875,-1.515625 h -3.21875 c -0.1875,0 -0.296875,0 -0.296875,0.1875 0,0.125 0.078125,0.125 0.28125,0.125 0.125,0 0.3125,0.015625 0.421875,0.015625 0.171875,0.03125 0.21875,0.046875 0.21875,0.171875 0,0.03125 0,0.0625 -0.03125,0.1875 l -1.34375,5.34375 c -0.09375,0.390625 -0.109375,0.46875 -0.90625,0.46875 -0.15625,0 -0.265625,0 -0.265625,0.1875 C 0.40625,0 0.515625,0 0.546875,0 0.828125,0 1.53125,-0.03125 1.8125,-0.03125 c 0.21875,0 0.4375,0.015625 0.640625,0.015625 0.21875,0 0.4375,0.015625 0.640625,0.015625 0.078125,0 0.203125,0 0.203125,-0.203125 0,-0.109375 -0.09375,-0.109375 -0.28125,-0.109375 -0.359375,0 -0.640625,0 -0.640625,-0.171875 0,-0.0625 0.015625,-0.109375 0.03125,-0.171875 z M 3.734375,-6.125 C 3.828125,-6.46875 3.84375,-6.5 4.28125,-6.5 h 0.953125 c 0.828125,0 1.359375,0.265625 1.359375,0.953125 0,0.390625 -0.203125,1.25 -0.59375,1.609375 -0.5,0.453125 -1.09375,0.53125 -1.53125,0.53125 H 3.0625 Z m 0,0"
                 transform="translate(178.585,110.99)"
                 id="path7-5-1-5-2" />
            </g>
          </g>
        </g>
        <g
           id="g202-0-9-3"
           transform="translate(109.53126,-50.266971)">
          <path
             style="fill:none;fill-rule:evenodd;stroke:#ffffff;stroke-width:0.0972409;stroke-dasharray:none;stroke-opacity:1"
             id="rect1-1-7-7-2"
             width="31.979841"
             height="11.266134"
             x="131.95564"
             y="124.32661"
             ry="0"
             d="m 144.19991,125.26485 c 1.95754,1.15637 3.42481,1.29467 5.99871,1.30269 2.56592,0.008 4.21753,0.18382 6.51426,1.64921 1.98744,1.26806 3.72528,2.88703 5.01734,3.66513 1.28484,0.77377 2.11655,0.94546 2.11655,0.94546 -1.05134,0.48369 -2.00195,0.65875 -3.32788,0.96031 -1.36344,0.31009 -2.37595,0.62099 -3.71529,1.22145 -1.02841,0.46105 -2.03286,1.00729 -3.06127,1.46834 -0.77815,0.34883 -1.2504,0.4903 -1.2504,0.4903 -1.85173,-0.82527 -2.83695,-2.34216 -5.03639,-4.52585 -2.10662,-2.09153 -3.58845,-2.64802 -5.80472,-2.83976 -2.34859,-0.20318 -3.27033,-0.17097 -4.90163,-0.96463 -1.23909,-0.60284 -1.95484,-1.21855 -1.95484,-1.21855 3.13519,-0.66116 6.27037,-1.24178 9.40556,-2.1541 z"
             transform="matrix(0.99805396,0,0,1.0596151,-87.065555,-71.115944)" />
          <g
             id="path2"
             transform="translate(2.9717743,-12.64113)">
            <path
               style="color:#000000;fill:#ffffff;-inkscape-stroke:none"
               d="m 46.065419,76.683798 c 0.380153,0.20389 1.183351,0.562528 1.183351,0.562528 0.04043,-0.01166 0.12133,-0.03502 0.12133,-0.03502 -0.414147,-0.165882 -1.191902,-0.554557 -1.191902,-0.554557 0.0013,-3.15e-4 -0.114087,0.02737 -0.112779,0.02705 z M 47.277,76.387474 c 0.405743,0.180852 1.267775,0.484792 1.267775,0.484792 0.03931,-0.01123 0.117846,-0.03359 0.117846,-0.03359 -0.443601,-0.138467 -1.274677,-0.478559 -1.274677,-0.478559 -0.0045,0.0011 -0.106436,0.02624 -0.110944,0.02735 z m 1.182141,-0.288163 c 0.426091,0.16331 1.333871,0.426498 1.333871,0.426498 0.03757,-0.01005 0.112565,-0.03 0.112565,-0.03 -0.466197,-0.118378 -1.339037,-0.422121 -1.339037,-0.422121 -3.7e-4,8.8e-5 -0.10703,0.02553 -0.107399,0.02562 z m 1.140347,-0.265285 c 0.440742,0.151866 1.381163,0.388423 1.381163,0.388423 0.03564,-0.0086 0.106755,-0.02576 0.106755,-0.02576 -0.482067,-0.105541 -1.384599,-0.385919 -1.384599,-0.385919 8.5e-5,-1.9e-5 -0.103404,0.02327 -0.103319,0.02325 z m 1.096981,-0.240416 c 0.449617,0.146696 1.410134,0.370263 1.410134,0.370263 0.03381,-0.0073 0.10129,-0.02188 0.10129,-0.02188 -0.491611,-0.09958 -1.411929,-0.369553 -1.411929,-0.369553 5.07e-4,-1.07e-4 -0.100002,0.02128 -0.09949,0.02117 z m 1.058902,-0.221692 c 0.452952,0.147612 1.422074,0.370766 1.422074,0.370766 0.03226,-0.0064 0.09669,-0.019 0.09669,-0.019 -0.495454,-0.09986 -1.422379,-0.37169 -1.422379,-0.37169 0.0042,-8.67e-4 -0.100587,0.02079 -0.09639,0.01992 z m 1.029707,-0.213377 c 0.451206,0.154143 1.418851,0.387966 1.418851,0.387966 0.03108,-0.0058 0.09319,-0.01739 0.09319,-0.01739 -0.494378,-0.105525 -1.417861,-0.390322 -1.417861,-0.390322 -8.95e-4,1.88e-4 -0.09329,0.01956 -0.09418,0.01975 z m 1.010396,-0.216649 c 0.444987,0.165644 1.402678,0.419465 1.402678,0.419465 0.03027,-0.0057 0.09081,-0.01705 0.09081,-0.01705 -0.489244,-0.115643 -1.400609,-0.423012 -1.400609,-0.423012 -3.7e-4,8.3e-5 -0.09251,0.02052 -0.09288,0.0206 z m -5.996251,2.513983 c 0.479354,0.168502 1.507921,0.427098 1.507921,0.427098 0.0453,-0.01639 0.13581,-0.04907 0.13581,-0.04907 -0.528102,-0.114827 -1.518337,-0.416966 -1.518337,-0.416966 0.01717,-0.0053 -0.142563,0.04426 -0.125394,0.03893 z m 1.33565,-0.411697 c 0.513151,0.135876 1.608387,0.330464 1.608387,0.330464 0.04308,-0.01478 0.129014,-0.04409 0.129014,-0.04409 -0.559701,-0.08476 -1.616359,-0.322932 -1.616359,-0.322932 -7.71e-4,2.32e-4 -0.120271,0.03633 -0.121042,0.03656 z m 1.27853,-0.374095 c 0.538688,0.112093 1.682995,0.261413 1.682995,0.261413 0.04028,-0.01247 0.120552,-0.03711 0.120552,-0.03711 -0.58256,-0.06397 -1.688645,-0.256368 -1.688645,-0.256368 -0.03825,0.01062 -0.07655,0.02131 -0.114902,0.03206 z m 1.208861,-0.321219 c 0.556323,0.09683 1.733382,0.218388 1.733382,0.218388 0.03736,-0.01 0.111798,-0.02967 0.111798,-0.02967 -0.597377,-0.05178 -1.736898,-0.215644 -1.736898,-0.215644 -0.03604,0.0089 -0.07213,0.01789 -0.108282,0.02693 z m 1.138718,-0.267248 c 0.56668,0.08948 1.761886,0.199024 1.761886,0.199024 0.03465,-0.0077 0.103707,-0.02295 0.103707,-0.02295 -0.605072,-0.04725 -1.763519,-0.198325 -1.763519,-0.198325 -0.03398,0.0074 -0.068,0.01478 -0.102074,0.02225 z m 1.076049,-0.221608 c 0.570608,0.08914 1.771463,0.200218 1.771463,0.200218 0.03235,-0.0059 0.09688,-0.01763 0.09688,-0.01763 -0.606754,-0.04922 -1.77151,-0.201242 -1.77151,-0.201242 3.81e-4,-7.3e-5 -0.09721,0.01873 -0.09683,0.01866 z m 1.025224,-0.189515 c 0.569107,0.09474 1.765458,0.218345 1.765458,0.218345 0.03056,-0.0047 0.09157,-0.01406 0.09157,-0.01406 -0.603637,-0.05636 -1.764236,-0.220745 -1.764236,-0.220745 9.55e-4,-1.69e-4 -0.09375,0.01663 -0.0928,0.01646 z m 0.987689,-0.172713 c 0.563243,0.105103 1.747352,0.249563 1.747352,0.249563 0.02929,-0.0041 0.08781,-0.01224 0.08781,-0.01224 -0.596962,-0.0673 -1.745187,-0.252978 -1.745187,-0.252978 -0.0027,4.74e-4 -0.08725,0.01518 -0.08998,0.01566 z m -5.840898,2.529276 c 0.607086,0.114011 1.868261,0.305258 1.868261,0.305258 0.04996,-0.0209 0.149617,-0.06245 0.149617,-0.06245 -0.631537,-0.09471 -1.877767,-0.296057 -1.877767,-0.296057 -0.0015,5.6e-4 -0.138635,0.05269 -0.140111,0.05325 z m 1.477078,-0.547852 c 0.643396,0.08189 1.957592,0.219668 1.957592,0.219668 0.04646,-0.01798 0.139018,-0.05353 0.139018,-0.05353 -0.656535,-0.07147 -1.964403,-0.213258 -1.964403,-0.213258 -0.04399,0.01561 -0.08806,0.03132 -0.132207,0.04712 z m 1.382522,-0.470419 c 0.666902,0.05964 2.018732,0.163395 2.018732,0.163395 0.04248,-0.01443 0.127037,-0.04284 0.127037,-0.04284 -0.672831,-0.05713 -2.023048,-0.159595 -2.023048,-0.159595 -0.04081,0.0129 -0.08171,0.02591 -0.122721,0.03904 z m 1.278019,-0.380199 c 0.681439,0.04698 2.054206,0.134123 2.054206,0.134123 0.03851,-0.01084 0.115136,-0.03207 0.115136,-0.03207 -0.685969,-0.05136 -2.056304,-0.132672 -2.056304,-0.132672 -0.03758,0.0101 -0.07526,0.0203 -0.113038,0.03062 z m 1.176624,-0.292508 c 0.688089,0.04277 2.067375,0.128537 2.067375,0.128537 0.03491,-0.0076 0.104387,-0.0225 0.104387,-0.0225 -0.685732,-0.05224 -2.067605,-0.129074 -2.067605,-0.129074 -0.03464,0.0076 -0.06935,0.01526 -0.104157,0.02304 z m 1.087157,-0.217828 c 0.688174,0.04562 2.062304,0.142396 2.062304,0.142396 0.0319,-0.0051 0.09544,-0.01493 0.09544,-0.01493 -0.680454,-0.05887 -2.061069,-0.144495 -2.061069,-0.144495 -0.03216,0.0056 -0.06439,0.01128 -0.09668,0.01703 z m 1.01452,-0.162098 c 0.683143,0.05397 2.043461,0.170888 2.043461,0.170888 0.02959,-0.0033 0.08861,-0.0097 0.08861,-0.0097 -0.671722,-0.06959 -2.04118,-0.17409 -2.04118,-0.17409 -0.03026,0.0043 -0.06055,0.0086 -0.09089,0.01293 z m 0.960325,-0.127345 c 0.674451,0.06621 2.015325,0.209072 2.015325,0.209072 0.02798,-0.0023 0.08386,-0.0069 0.08386,-0.0069 -0.661071,-0.08273 -2.012401,-0.212928 -2.012401,-0.212928 0.0012,-1.46e-4 -0.08797,0.0109 -0.08678,0.01075 z m -5.679463,2.637091 c 0.708775,0.121163 2.047096,0.463839 2.047096,0.463839 0.05322,-0.02399 0.159296,-0.07159 0.159296,-0.07159 -0.647872,-0.197873 -2.053424,-0.457894 -2.053424,-0.457894 -0.0509,0.02178 -0.10189,0.04367 -0.152968,0.06565 z m 1.597375,-0.662743 c 0.732642,0.09809 2.104709,0.409724 2.104709,0.409724 0.04865,-0.02002 0.145442,-0.05953 0.145442,-0.05953 -0.662416,-0.184681 -2.10884,-0.405865 -2.10884,-0.405865 -0.04698,0.01841 -0.09408,0.03697 -0.141311,0.05567 z m 1.463516,-0.544735 c 0.747378,0.08419 2.138778,0.378424 2.138778,0.378424 0.04363,-0.01543 0.130343,-0.04571 0.130343,-0.04571 -0.670432,-0.177533 -2.140778,-0.376676 -2.140778,-0.376676 -0.04264,0.01449 -0.08542,0.02914 -0.128343,0.04396 z M 57.0899,76.841399 c 0.753743,0.07888 2.150747,0.369304 2.150747,0.369304 0.03872,-0.01088 0.115653,-0.03209 0.115653,-0.03209 -0.672156,-0.176529 -2.150835,-0.369501 -2.150835,-0.369501 -0.03839,0.0106 -0.07691,0.02137 -0.115565,0.03229 z m 1.190733,-0.29649 c 0.752929,0.08107 2.143722,0.379667 2.143722,0.379667 0.03435,-0.0069 0.102628,-0.02016 0.102628,-0.02016 -0.668511,-0.180927 -2.142261,-0.381465 -2.142261,-0.381465 -0.03458,0.0072 -0.06928,0.0145 -0.104089,0.02195 z m 1.076079,-0.195057 c 0.746482,0.08916 2.122153,0.405069 2.122153,0.405069 0.03079,-0.0037 0.09205,-0.01089 0.09205,-0.01089 -0.660953,-0.189289 -2.119602,-0.407991 -2.119602,-0.407991 -0.03145,0.0045 -0.06298,0.0091 -0.0946,0.01381 z m 0.984733,-0.119539 c 0.736137,0.101321 2.091213,0.440008 2.091213,0.440008 0.02815,-0.0016 0.08426,-0.0047 0.08426,-0.0047 -0.651212,-0.199771 -2.088062,-0.443519 -2.088062,-0.443519 -0.02908,0.0027 -0.05822,0.0054 -0.08741,0.0082 z m 0.918322,-0.07216 c 0.723628,0.115625 2.056127,0.478725 2.056127,0.478725 0.02643,-5.81e-4 0.07921,-0.0017 0.07921,-0.0017 -0.641037,-0.210442 -2.052842,-0.482306 -2.052842,-0.482306 8.74e-4,-5.5e-5 -0.08337,0.0053 -0.0825,0.0052 z m -5.677123,3.070395 c 0.69139,0.289269 1.849383,1.126772 1.849383,1.126772 0.05504,-0.02574 0.164714,-0.07681 0.164714,-0.07681 -0.542098,-0.460015 -1.852875,-1.12337 -1.852875,-1.12337 -0.05362,0.02433 -0.107358,0.04881 -0.161222,0.0734 z M 57.255066,78.495 c 0.704311,0.27587 1.882613,1.092219 1.882613,1.092219 0.04991,-0.02139 0.149156,-0.06357 0.149156,-0.06357 -0.551992,-0.44965 -1.885103,-1.089391 -1.885103,-1.089391 -0.04872,0.02006 -0.09761,0.04031 -0.146666,0.06074 z m 1.507179,-0.58571 c 0.711162,0.267726 1.903135,1.066728 1.903135,1.066728 0.0442,-0.01621 0.131989,-0.04796 0.131989,-0.04796 -0.559374,-0.440205 -1.904297,-1.064991 -1.904297,-1.064991 -0.04343,0.01521 -0.08704,0.03061 -0.130827,0.04623 z M 60.0992,77.480956 c 0.711828,0.265441 1.909126,1.053963 1.909126,1.053963 0.03863,-0.01103 0.115312,-0.03246 0.115312,-0.03246 -0.563255,-0.433401 -1.908982,-1.053436 -1.908982,-1.053436 -0.03832,0.01045 -0.0768,0.02109 -0.115456,0.03193 z m 1.17878,-0.281603 c 0.707146,0.268462 1.90231,1.053308 1.90231,1.053308 0.03374,-0.0065 0.100757,-0.01902 0.100757,-0.01902 C 62.716982,77.80439 61.379875,77.1799 61.379875,77.1799 c -0.03383,0.0063 -0.06779,0.01281 -0.101895,0.01945 z m 1.044701,-0.160205 c 0.698682,0.275281 1.887179,1.060582 1.887179,1.060582 0.0299,-0.0031 0.08937,-0.009 0.08937,-0.009 -0.563329,-0.42634 -1.885566,-1.061442 -1.885566,-1.061442 -0.03022,0.0032 -0.06055,0.0064 -0.09098,0.0098 z m 0.941379,-0.07264 c 0.688415,0.28381 1.86979,1.069413 1.86979,1.069413 0.02725,-0.001 0.08157,-0.0029 0.08157,-0.0029 -0.563171,-0.422439 -1.868292,-1.070061 -1.868292,-1.070061 -0.02763,0.0011 -0.05532,0.0023 -0.08307,0.0036 z m 0.870557,-0.02155 c 0.678367,0.291813 1.856434,1.072808 1.856434,1.072808 0.02577,-2.88e-4 0.07727,-8.51e-4 0.07727,-8.51e-4 -0.565786,-0.41508 -1.855604,-1.072615 -1.855604,-1.072615 0.0013,-1e-5 -0.07941,6.68e-4 -0.0781,6.58e-4 z m -6.021558,4.069967 c 0.563509,0.614738 1.499611,1.990434 1.499611,1.990434 0.05583,-0.02632 0.167209,-0.07876 0.167209,-0.07876 -0.468039,-0.684849 -1.50098,-1.989614 -1.50098,-1.989614 -0.0012,5.41e-4 -0.164687,0.0774 -0.16584,0.07794 z m 1.717951,-0.782075 c 0.571781,0.600617 1.523069,1.966278 1.523069,1.966278 0.05121,-0.02301 0.153103,-0.06852 0.153103,-0.06852 -0.472773,-0.682942 -1.525932,-1.962702 -1.525932,-1.962702 -0.0499,0.02146 -0.09998,0.0431 -0.15024,0.06495 z m 1.538105,-0.625796 c 0.580542,0.585688 1.556292,1.921034 1.556292,1.921034 0.04552,-0.01819 0.135956,-0.05392 0.135956,-0.05392 -0.484855,-0.668394 -1.559474,-1.916335 -1.559474,-1.916335 -0.04406,0.01618 -0.08831,0.03259 -0.132774,0.04922 z m 1.349618,-0.453364 c 0.587298,0.572281 1.590055,1.868416 1.590055,1.868416 0.03979,-0.01303 0.118775,-0.03845 0.118775,-0.03845 -0.500035,-0.647482 -1.593096,-1.863404 -1.593096,-1.863404 -0.03839,0.01093 -0.07697,0.02208 -0.115734,0.03344 z m 1.175153,-0.291742 c 0.591803,0.56068 1.622821,1.812906 1.622821,1.812906 0.03483,-0.0086 0.104041,-0.02516 0.104041,-0.02516 -0.51735,-0.622474 -1.625931,-1.807549 -1.625931,-1.807549 -0.03349,0.0064 -0.06713,0.01303 -0.100931,0.01981 z m 1.031176,-0.161297 c 0.595571,0.54936 1.65924,1.75104 1.65924,1.75104 0.03121,-0.0055 0.09336,-0.01613 0.09336,-0.01613 -0.538435,-0.59227 -1.663072,-1.744716 -1.663072,-1.744716 -0.02974,0.0032 -0.05958,0.0064 -0.08953,0.0098 z m 0.926857,-0.07403 c 0.600991,0.53555 1.707548,1.674327 1.707548,1.674327 0.02915,-0.0041 0.08741,-0.01231 0.08741,-0.01231 -0.5664,-0.553669 -1.712947,-1.666116 -1.712947,-1.666116 -0.02729,0.0013 -0.05462,0.0027 -0.08201,0.0041 z m 0.864349,-0.03361 c 0.60761,0.51356 1.776811,1.572568 1.776811,1.572568 0.02862,-0.0045 0.086,-0.01368 0.086,-0.01368 -0.604679,-0.502771 -1.78457,-1.561544 -1.78457,-1.561544 -0.0033,1.12e-4 -0.07499,0.0025 -0.07824,0.0027 z m -6.468371,5.310627 c 0.316696,0.42302 0.694515,0.879351 1.160429,1.283072 0.427112,0.370098 0.824388,0.59353 0.824388,0.59353 0.05076,-0.01836 0.152746,-0.05591 0.152746,-0.05591 -0.77595,-0.473691 -1.971346,-1.897455 -1.971346,-1.897455 0.01041,-0.0048 -0.17663,0.08157 -0.166217,0.07676 z m 1.740395,-0.799332 c 0.312771,0.430645 0.680908,0.903551 1.122853,1.345809 0.405102,0.405388 0.77233,0.67501 0.77233,0.67501 0.05029,-0.02114 0.150782,-0.06356 0.150782,-0.06356 -0.723517,-0.555027 -1.892074,-2.02653 -1.892074,-2.02653 -0.05116,0.02296 -0.102451,0.04605 -0.153891,0.06927 z m 1.584704,-0.687316 c 0.570841,0.761763 1.892766,2.035313 1.892766,2.035313 0.04686,-0.01981 0.140224,-0.05916 0.140224,-0.05916 -0.712833,-0.575336 -1.895373,-2.032319 -1.895373,-2.032319 -0.04569,0.01853 -0.09156,0.03725 -0.137617,0.05617 z m 1.403705,-0.534648 c 0.588316,0.736109 1.938403,1.976248 1.938403,1.976248 0.04241,-0.01665 0.126823,-0.04955 0.126823,-0.04955 -0.725199,-0.561567 -1.944338,-1.968219 -1.944338,-1.968219 -0.04012,0.01365 -0.08041,0.02749 -0.120888,0.04153 z m 1.232852,-0.383763 c 0.611481,0.701504 2.016491,1.870208 2.016491,1.870208 0.03857,-0.01371 0.11548,-0.0409 0.11548,-0.0409 -0.753267,-0.526132 -2.02535,-1.858246 -2.02535,-1.858246 -0.03541,0.0095 -0.07095,0.01914 -0.106621,0.02893 z m 1.098925,-0.268313 c 0.641741,0.65758 2.129932,1.719299 2.129932,1.719299 0.03647,-0.01249 0.109453,-0.03752 0.109453,-0.03752 -0.798237,-0.469993 -2.142661,-1.702662 -2.142661,-1.702662 -0.03218,0.0069 -0.06442,0.01385 -0.09672,0.02088 z m 1.017116,-0.208766 c 0.682935,0.600527 2.292675,1.509951 2.292675,1.509951 0.03661,-0.01371 0.110181,-0.04156 0.110181,-0.04156 -0.866268,-0.386999 -2.310856,-1.486922 -2.310856,-1.486922 -0.003,6.15e-4 -0.08896,0.01792 -0.092,0.01853 z m 0.991081,-0.211809 c 0.739598,0.52522 2.522258,1.222176 2.522258,1.222176 0.03894,-0.01747 0.117466,-0.05317 0.117466,-0.05317 -0.965061,-0.26819 -2.547462,-1.190878 -2.547462,-1.190878 -0.03084,0.0074 -0.06159,0.01469 -0.09226,0.02188 z"
               id="path10" />
            <g
               id="g3">
              <g
                 id="path3">
                <path
                   style="color:#000000;fill:#ffffff;fill-rule:evenodd;-inkscape-stroke:none"
                   d="m 46.034823,76.623693 c 0.07719,0.01553 0.20059,0.03005 0.297917,0.02885 0,0 -0.134178,0.03263 -0.196718,0.02526 -0.0044,0.02363 -0.138518,0.05571 -0.138518,0.05571 0.03802,-0.03156 0.04707,-0.07852 0.03723,-0.109717 0,0 4e-6,6e-6 4e-6,6e-6 m 1.204981,-0.291487 c 0.07949,0.01287 0.205717,0.02389 0.303589,0.02105 0,0 -0.131596,0.03265 -0.195642,0.02708 -0.0018,0.02182 -0.134016,0.05464 -0.134016,0.05464 0.03517,-0.03023 0.0393,-0.07401 0.02607,-0.102773 0,0 3e-6,10e-7 3e-6,10e-7 z m 1.175767,-0.283422 c 0.0807,0.01141 0.207976,0.02093 0.305068,0.01799 0,0 -0.127164,0.0304 -0.191753,0.02563 6.9e-4,0.01992 -0.127228,0.05079 -0.127228,0.05079 0.03149,-0.02787 0.03044,-0.06802 0.01392,-0.0944 0,0 -4e-6,-7e-6 -4e-6,-7e-6 z M 49.550474,75.7873 c 0.08109,0.01083 0.20829,0.02011 0.303906,0.01784 0,0 -0.122232,0.02749 -0.186729,0.02285 0.0031,0.01836 -0.119983,0.04633 -0.119983,0.04633 0.02783,-0.02549 0.02215,-0.06254 0.0028,-0.08703 0,0 -4e-6,10e-7 -4e-6,10e-7 z m 1.093056,-0.238288 c 0.08089,0.01087 0.20734,0.02068 0.301216,0.01932 0,0 -0.117691,0.025 -0.181707,0.02011 0.0049,0.01739 -0.113493,0.04272 -0.113493,0.04272 0.02472,-0.0237 0.01541,-0.05877 -0.006,-0.08215 0,0 -4.3e-5,1e-6 -4.3e-5,1e-6 z m 1.056595,-0.221365 c 0.08026,0.01136 0.205577,0.02211 0.297734,0.0216 0,0 -0.11405,0.02354 -0.177359,0.01818 0.0061,0.01714 -0.108462,0.04077 -0.108462,0.04077 0.02256,-0.02296 0.01076,-0.05735 -0.01196,-0.08056 0,0 4.7e-5,0 4.7e-5,0 z m 1.029013,-0.214866 c 0.07932,0.01217 0.203274,0.02409 0.293876,0.0242 0,0 -0.111501,0.02335 -0.173984,0.01743 0.0066,0.01764 -0.105164,0.04083 -0.105164,0.04083 0.02124,-0.0232 0.0084,-0.05847 -0.01477,-0.08246 0,0 4.5e-5,9e-6 4.5e-5,9e-6 z m 1.011138,-0.219751 c 0.07797,0.01331 0.200401,0.02681 0.289524,0.02734 3.25e-4,-4.14e-4 -0.109682,0.024 -0.171269,0.01742 0.0065,0.01881 -0.103545,0.04283 -0.103545,0.04283 0.02079,-0.02444 0.008,-0.06199 -0.01468,-0.08763 -4e-5,5e-5 -3.9e-5,4e-5 -3.9e-5,4e-5 m -5.987608,2.504838 c 0.0923,0.0081 0.23716,0.01028 0.350058,-9.03e-4 0,0 -0.148953,0.04664 -0.222887,0.04559 -5.81e-4,0.02425 -0.150056,0.07094 -0.150056,0.07094 0.03836,-0.03624 0.04004,-0.08489 0.02289,-0.115622 0,0 -3e-6,-5e-6 -3e-6,-5e-6 z m 1.325817,-0.403232 c 0.09478,0.0051 0.242311,0.0039 0.354722,-0.0079 0,0 -0.143297,0.04341 -0.218618,0.04409 0.0033,0.02096 -0.141176,0.06516 -0.141176,0.06516 0.03327,-0.03249 0.02728,-0.0749 0.0051,-0.10134 0,0 -2e-6,3e-6 -2e-6,3e-6 z m 1.269655,-0.366534 c 0.09581,0.0037 0.243722,0.0017 0.354091,-0.0089 0,0 -0.135744,0.03782 -0.211228,0.03893 0.007,0.01783 -0.130124,0.05671 -0.130124,0.05671 0.02767,-0.02802 0.01413,-0.06419 -0.01274,-0.0867 0,0 3e-6,0 3e-6,0 z m 1.201521,-0.315262 c 0.0958,0.0035 0.242647,0.0023 0.350179,-0.0063 0,0 -0.127786,0.03162 -0.202638,0.03233 0.0103,0.01524 -0.118851,0.04786 -0.118851,0.04786 0.02228,-0.02373 0.0021,-0.05456 -0.02874,-0.0739 0,0 4.9e-5,0 4.9e-5,0 z m 1.133229,-0.263298 c 0.09507,0.0041 0.240051,0.0046 0.344496,-0.0017 0,0 -0.120437,0.02605 -0.194194,0.02589 0.01304,0.01336 -0.108683,0.04019 -0.108683,0.04019 0.01766,-0.02024 -0.0078,-0.04717 -0.04165,-0.06438 0,0 2.8e-5,-5e-6 2.8e-5,-5e-6 z m 1.072498,-0.219794 c 0.09386,0.0051 0.236638,0.0077 0.338105,0.0036 0,0 -0.114299,0.02183 -0.186746,0.0206 0.01486,0.01231 -0.100406,0.03463 -0.100406,0.03463 0.01407,-0.01791 -0.01518,-0.04265 -0.05096,-0.05883 0,0 5e-6,4e-6 5e-6,4e-6 z m 1.023514,-0.189746 c 0.09239,0.0064 0.232868,0.01119 0.33169,0.0088 0,0 -0.109624,0.01929 -0.180705,0.01695 0.01598,0.0121 -0.09433,0.0316 -0.09433,0.0316 0.01161,-0.01685 -0.01991,-0.04112 -0.05665,-0.05735 0,0 -4e-6,0 -4e-6,0 z m 0.987582,-0.174732 c 0.09079,0.0078 0.228995,0.01469 0.325603,0.01355 0,0 -0.106397,0.01842 -0.176146,0.01504 0.01636,0.01267 -0.09042,0.03102 -0.09042,0.03102 0.01023,-0.017 -0.02206,-0.04237 -0.05903,-0.0596 0,0 -3e-6,-6e-6 -3e-6,-6e-6 z m -5.826072,2.509066 c 0.111172,-0.0025 0.284665,-0.01683 0.415582,-0.04038 0,0 -0.165884,0.06322 -0.254148,0.07055 0.0048,0.02427 -0.162441,0.08847 -0.162441,0.08847 0.03755,-0.04095 0.02848,-0.08994 0.001,-0.11865 0,0 -3e-6,4e-6 -3e-6,4e-6 z m 1.465502,-0.537454 c 0.11246,-0.0044 0.286799,-0.01995 0.414872,-0.04181 0,0 -0.156001,0.05549 -0.244559,0.06344 0.0097,0.01998 -0.148297,0.07709 -0.148297,0.07709 0.0304,-0.03497 0.01157,-0.07546 -0.02202,-0.09872 0,0 0,0 0,-10e-7 z m 1.372376,-0.461383 c 0.112133,-0.0046 0.284967,-0.01862 0.408639,-0.03701 0,0 -0.144489,0.04565 -0.232047,0.05284 0.01427,0.01603 -0.1324,0.06343 -0.1324,0.06343 0.02293,-0.02848 -0.0051,-0.06085 -0.04419,-0.07925 0,0 -1e-6,-3e-6 -1e-6,-3e-6 z m 1.269802,-0.373154 c 0.110689,-0.0036 0.280647,-0.01449 0.399202,-0.02863 0,0 -0.132943,0.03558 -0.218704,0.04117 0.01841,0.01266 -0.116786,0.04986 -0.116786,0.04986 0.01595,-0.02242 -0.02013,-0.04787 -0.06367,-0.06241 0,0 -3.8e-5,3e-6 -3.8e-5,3e-6 z m 1.17059,-0.287789 c 0.1085,-0.0018 0.275025,-0.0089 0.388363,-0.01874 0,0 -0.122476,0.02662 -0.206042,0.03023 0.02158,0.01013 -0.102887,0.03809 -0.102887,0.03809 0.01,-0.0174 -0.03249,-0.03773 -0.07944,-0.04958 0,0 6e-6,10e-7 6e-6,10e-7 z m 1.08331,-0.215492 c 0.10595,2.42e-4 0.268957,-0.0028 0.377455,-0.0089 0,0 -0.113764,0.01959 -0.195045,0.02116 0.02388,0.0086 -0.09154,0.02915 -0.09154,0.02915 0.0053,-0.01381 -0.04168,-0.03102 -0.09088,-0.04145 0,0 5e-6,2e-6 5e-6,2e-6 z m 1.012682,-0.161966 c 0.103377,0.0024 0.262944,0.0031 0.367345,1.1e-5 0,0 -0.107085,0.01487 -0.186191,0.01455 0.02516,0.008 -0.08309,0.02346 -0.08309,0.02346 0.0021,-0.01178 -0.04772,-0.02783 -0.09807,-0.03802 0,0 2e-6,0 2e-6,0 z m 0.960166,-0.129062 c 0.101121,0.0044 0.257231,0.0083 0.358507,0.0073 0,0 -0.102415,0.01243 -0.179582,0.01052 0.02569,0.0083 -0.07744,0.02094 -0.07744,0.02094 1.05e-4,-0.01121 -0.05094,-0.02783 -0.10149,-0.0388 0,0 8e-6,3e-6 8e-6,3e-6 z m -5.653628,2.598076 c 0.125139,-0.0061 0.323666,-0.02708 0.467286,-0.05643 0,0 -0.180418,0.07728 -0.279852,0.08769 0.0083,0.02847 -0.174551,0.107758 -0.174551,0.107758 0.03819,-0.04917 0.02215,-0.106507 -0.01293,-0.139012 0,0 4.5e-5,-6e-6 4.5e-5,-6e-6 z m 1.586036,-0.652566 c 0.124024,-0.0058 0.32026,-0.0243 0.457855,-0.04896 0,0 -0.166127,0.06502 -0.264006,0.07418 0.01354,0.02382 -0.15556,0.09142 -0.15556,0.09142 0.02954,-0.04167 0.003,-0.08967 -0.0383,-0.116634 0,0 1.1e-5,-4e-6 1.1e-5,-4e-6 z m 1.453584,-0.53577 c 0.121337,-0.004 0.31341,-0.01756 0.443556,-0.03601 0,0 -0.150547,0.05094 -0.245711,0.05762 0.01848,0.01945 -0.135146,0.07301 -0.135146,0.07301 0.02079,-0.03388 -0.01588,-0.07265 -0.0627,-0.09462 0,0 -2e-6,-3e-6 -2e-6,-3e-6 z m 1.315237,-0.410011 c 0.117528,-0.0012 0.304748,-0.0085 0.426848,-0.02035 0,0 -0.135408,0.03707 -0.227222,0.04062 0.02291,0.01568 -0.115526,0.05514 -0.115526,0.05514 0.01253,-0.02641 -0.03273,-0.05746 -0.08411,-0.07541 0,0 5e-6,0 5e-6,0 z m 1.185063,-0.291845 c 0.112967,0.002 0.295651,0.0013 0.409745,-0.0043 0,0 -0.121966,0.02493 -0.210237,0.02519 0.02634,0.01281 -0.0983,0.03973 -0.0983,0.03973 0.0055,-0.02022 -0.04646,-0.04547 -0.101211,-0.06065 0,0 0,2e-6 0,2e-6 z m 1.072681,-0.192843 c 0.108093,0.0051 0.287093,0.01086 0.393756,0.01045 0,0 -0.110975,0.01546 -0.19585,0.01266 0.02868,0.01102 -0.08441,0.02798 -0.08441,0.02798 8e-5,-0.01575 -0.05659,-0.03736 -0.113493,-0.05109 0,0 0,10e-7 0,10e-7 z m 0.98337,-0.119531 c 0.103674,0.0079 0.279307,0.01926 0.379889,0.02269 0,0 -0.10274,0.0091 -0.184617,0.0037 0.03001,0.01028 -0.07423,0.02034 -0.07423,0.02034 -0.0037,-0.0131 -0.06313,-0.03324 -0.121039,-0.04672 0,0 -2e-6,10e-7 -2e-6,10e-7 z m 0.918591,-0.07393 c 0.100765,0.01028 0.27185,0.02588 0.368673,0.03182 0,0 -0.0972,0.0058 -0.176603,-0.0016 0.03051,0.01047 -0.06762,0.01673 -0.06762,0.01673 -0.0059,-0.01218 -0.06645,-0.03269 -0.124448,-0.04694 0,0 -3e-6,-10e-7 -3e-6,-10e-7 z m -5.62988,2.998295 c 0.124985,0.0092 0.328212,0.0089 0.472832,-0.01139 0,0 -0.189633,0.08594 -0.289873,0.08582 0.0043,0.04352 -0.188611,0.132252 -0.188611,0.132252 0.0452,-0.06722 0.0368,-0.153881 0.0056,-0.206671 0,0 5e-6,-7e-6 5e-6,-7e-6 z M 57.168,78.403642 c 0.121803,0.01131 0.319244,0.01679 0.455473,0.0033 0,0 -0.171961,0.07057 -0.268973,0.06764 0.0095,0.03871 -0.1662,0.112747 -0.1662,0.112747 0.03571,-0.05897 0.01672,-0.136156 -0.02029,-0.183719 0,0 -5e-6,0 -5e-6,0 z m 1.497615,-0.576718 c 0.117402,0.01459 0.307644,0.0278 0.434305,0.0224 0,0 -0.15305,0.05324 -0.2459,0.04655 0.0147,0.03387 -0.14213,0.09066 -0.14213,0.09066 0.02571,-0.04982 -0.0037,-0.117179 -0.04628,-0.159608 0,0 4e-6,-5e-6 4e-6,-5e-6 z m 1.329027,-0.420774 c 0.112252,0.01838 0.294999,0.04026 0.411886,0.04296 0,0 -0.13493,0.03633 -0.223224,0.02552 0.01936,0.0296 -0.119063,0.06913 -0.119063,0.06913 0.01629,-0.04103 -0.0224,-0.09957 -0.0696,-0.137616 0,0 10e-7,1.1e-5 10e-7,1.1e-5 z M 61.167609,77.13 c 0.106847,0.02214 0.282718,0.0526 0.390464,0.06247 0,0 -0.119121,0.02173 -0.202959,0.007 0.02311,0.02623 -0.09898,0.05057 -0.09898,0.05057 0.0083,-0.03362 -0.03776,-0.08519 -0.08852,-0.119999 0,0 -4e-6,-5e-6 -4e-6,-5e-6 z m 1.041064,-0.15704 c 0.101791,0.02543 0.271781,0.06346 0.371778,0.07889 0,0 -0.106547,0.01063 -0.186429,-0.0075 0.02578,0.02396 -0.08306,0.03649 -0.08306,0.03649 0.002,-0.02814 -0.04917,-0.07501 -0.102289,-0.107859 0,0 10e-7,-5e-6 10e-7,-5e-6 z m 0.939659,-0.07153 c 0.09785,0.02803 0.26257,0.0717 0.356982,0.09085 0,0 -0.09756,0.0035 -0.174268,-0.0171 0.0274,0.02276 -0.07174,0.0275 -0.07174,0.0275 -0.0023,-0.02477 -0.05663,-0.06918 -0.110975,-0.101254 0,0 5e-6,3e-6 5e-6,3e-6 z m 0.870268,-0.02199 c 0.0957,0.02993 0.255111,0.07655 0.346641,0.09769 0,0 -0.09206,4.05e-4 -0.166504,-0.02169 0.02816,0.0225 -0.06482,0.02345 -0.06482,0.02345 -0.0047,-0.02337 -0.0606,-0.06722 -0.115319,-0.09945 0,0 3e-6,4e-6 3e-6,4e-6 z m -5.949534,3.96087 c 0.111827,0.04299 0.296565,0.08848 0.433854,0.08929 0,0 -0.195031,0.09132 -0.286314,0.0685 -0.0073,0.06887 -0.205661,0.16285 -0.205661,0.16285 0.0581,-0.09376 0.07282,-0.230781 0.05812,-0.320658 0,0 -10e-7,1.3e-5 -10e-7,1.3e-5 z m 1.70784,-0.772907 c 0.108227,0.04543 0.285462,0.09709 0.413924,0.104869 0,0 -0.176158,0.07558 -0.263669,0.04979 -0.002,0.06391 -0.182107,0.143197 -0.182107,0.143197 0.04841,-0.08569 0.05235,-0.213187 0.03185,-0.297842 0,0 6e-6,-1.2e-5 6e-6,-1.2e-5 z m 1.527228,-0.614889 c 0.10394,0.04847 0.272553,0.107705 0.391179,0.123715 0,0 -0.155378,0.05683 -0.238424,0.02739 0.0039,0.05814 -0.155528,0.118982 -0.155528,0.118982 0.03736,-0.07551 0.02955,-0.191566 0.0028,-0.270072 0,0 10e-7,-1.4e-5 10e-7,-1.4e-5 z m 1.339527,-0.442693 c 0.09947,0.05166 0.259356,0.118711 0.368403,0.142797 0,0 -0.135361,0.03822 -0.213831,0.0051 0.0095,0.05255 -0.129527,0.09448 -0.129527,0.09448 0.02651,-0.06508 0.0075,-0.169819 -0.02505,-0.242338 0,0 2e-6,-2e-6 2e-6,-2e-6 z m 1.166717,-0.282525 c 0.09543,0.05445 0.247459,0.128211 0.348304,0.159073 0,0 -0.118186,0.02235 -0.192556,-0.01399 0.01426,0.0478 -0.106874,0.07308 -0.106874,0.07308 0.01704,-0.05587 -0.01142,-0.150796 -0.04888,-0.218177 0,0 3e-6,1.1e-5 3e-6,1.1e-5 z m 1.024609,-0.153945 c 0.09248,0.05635 0.23819,0.134433 0.333118,0.169905 0,0 -0.105141,0.01092 -0.176393,-0.02752 0.018,0.04412 -0.08925,0.05699 -0.08925,0.05699 0.0096,-0.04873 -0.02626,-0.136032 -0.06747,-0.199379 0,0 -3e-6,1e-5 -3e-6,1e-5 z m 0.921829,-0.06829 c 0.09115,0.05698 0.232513,0.135986 0.324357,0.173455 0,0 -0.09673,0.0047 -0.166186,-0.0344 0.02075,0.0415 -0.07725,0.04709 -0.07725,0.04709 0.0043,-0.04395 -0.03691,-0.125834 -0.08092,-0.18615 0,0 -2e-6,4e-6 -2e-6,4e-6 z m 0.860207,-0.0288 c 0.09169,0.056 0.231032,0.132145 0.322699,0.168842 0,0 -0.09278,0.0035 -0.161911,-0.03453 0.02273,0.03969 -0.07055,0.04316 -0.07055,0.04316 9.41e-4,-0.0413 -0.04407,-0.119533 -0.09024,-0.177468 z m -6.412229,5.21707 c 0.112016,0.06313 0.294488,0.131387 0.435035,0.143259 0,0 -0.19588,0.09041 -0.287946,0.05629 -0.0067,0.07957 -0.204276,0.170258 -0.204276,0.170258 0.05587,-0.101483 0.07011,-0.260724 0.05719,-0.369811 0,0 -4e-6,9e-6 -4e-6,9e-6 z m 1.735256,-0.798171 c 0.107901,0.0666 0.282206,0.141163 0.414868,0.158675 0,0 -0.180869,0.08123 -0.268949,0.04385 -0.0035,0.07802 -0.187413,0.161521 -0.187413,0.161521 0.04994,-0.09936 0.05787,-0.256343 0.04149,-0.364055 0,0 10e-7,1e-5 10e-7,1e-5 z m 1.574192,-0.678009 c 0.104317,0.06921 0.270325,0.149657 0.39421,0.174129 0,0 -0.161517,0.06559 -0.245531,0.0252 0.002,0.07313 -0.16296,0.14193 -0.16296,0.14193 0.03998,-0.09144 0.03678,-0.239014 0.01428,-0.341249 0,0 1e-6,-7e-6 1e-6,-7e-6 z m 1.391201,-0.52161 c 0.101542,0.0709 0.260009,0.155956 0.375806,0.187091 0,0 -0.141956,0.04841 -0.222332,0.0056 0.0083,0.06694 -0.136775,0.118464 -0.136775,0.118464 0.02875,-0.08106 0.01286,-0.216181 -0.0167,-0.311153 0,0 -3e-6,9e-6 -3e-6,9e-6 z m 1.22035,-0.369802 c 0.10022,0.07121 0.253131,0.158068 0.363152,0.193792 0,0 -0.125577,0.03395 -0.203478,-0.01 0.01437,0.06079 -0.113534,0.097 -0.113534,0.097 0.01826,-0.0708 -0.0097,-0.193399 -0.04614,-0.280808 0,0 3e-6,-1.8e-5 3e-6,-1.8e-5 z m 1.087031,-0.254538 c 0.101152,0.06933 0.25172,0.153633 0.359554,0.190386 0,0 -0.114557,0.0251 -0.191844,-0.01786 0.0197,0.0553 -0.09611,0.08135 -0.09611,0.08135 0.0098,-0.0624 -0.02886,-0.173685 -0.0716,-0.253876 0,0 10e-7,-10e-7 10e-7,-10e-7 z m 1.005369,-0.194908 c 0.104995,0.06439 0.257485,0.140708 0.36743,0.173934 0,0 -0.109775,0.02316 -0.188837,-0.01612 0.02437,0.05043 -0.08553,0.07315 -0.08553,0.07315 0.0035,-0.05638 -0.04434,-0.157735 -0.09306,-0.230961 0,0 10e-7,-3e-6 10e-7,-3e-6 z m 0.978384,-0.196714 c 0.112111,0.05564 0.271498,0.118199 0.387937,0.142819 0,0 -0.110936,0.02798 -0.194428,-0.0045 0.02874,0.04578 -0.08127,0.07209 -0.08127,0.07209 -8.81e-4,-0.05239 -0.05735,-0.14446 -0.112245,-0.210406 0,0 4e-6,5e-6 4e-6,5e-6 z"
                   id="path8" />
                <path
                   style="color:#000000;fill:#ffffff;fill-rule:evenodd;-inkscape-stroke:none"
                   d="m 46.005691,76.607305 c 0.0014,0.0067 0.0043,0.02002 0.0043,0.02002 0.0095,0.03035 6.18e-4,0.07715 -0.03449,0.106282 -0.0073,0.006 -0.02185,0.01812 -0.02185,0.01812 0.0179,-0.0043 0.05367,-0.01278 0.05367,-0.01278 0,0 0.03592,-0.0087 0.07239,-0.02041 0.03033,-0.01001 0.05476,-0.02298 0.06725,-0.03569 0.03735,3.69e-4 0.07909,-0.0023 0.115111,-0.0087 0.0444,-0.0078 0.08087,-0.01649 0.08087,-0.01649 0.01787,-0.0044 0.05363,-0.01311 0.05363,-0.01311 -0.01841,2.57e-4 -0.05519,7.27e-4 -0.05519,7.27e-4 -0.08978,0.0011 -0.212495,-0.01332 -0.287604,-0.02839 -8.8e-5,1.74e-4 -0.04808,-0.0096 -0.04804,-0.0096 m 0.04928,0.02653 c 0.06579,0.01142 0.145632,0.02026 0.225766,0.0224 -0.01154,0.0024 -0.01314,0.003 -0.02847,0.0056 -0.03837,0.0067 -0.07903,0.01141 -0.100403,0.0089 -0.0122,-0.0016 -0.03656,-0.0047 -0.03656,-0.0047 -0.0015,0.0052 -0.0039,0.01475 -0.0039,0.01475 -0.0015,0.008 -0.02878,0.0196 -0.06029,0.02966 -0.01267,0.0041 -0.01449,0.0044 -0.0251,0.0072 0.0238,-0.02742 0.03294,-0.05763 0.02887,-0.08373 0,0 -10e-6,4e-5 -10e-6,4e-5 m 1.153787,-0.316384 c 0.0021,0.0062 0.0063,0.01853 0.0063,0.01853 0.01278,0.02801 0.0087,0.07165 -0.02368,0.09952 -0.0067,0.0058 -0.0202,0.01735 -0.0202,0.01735 0.01767,-0.0044 0.05301,-0.01318 0.05301,-0.01318 0,0 0.03547,-0.009 0.07117,-0.02077 0.02938,-0.0096 0.05265,-0.02217 0.06387,-0.03419 0.03775,-3.65e-4 0.0796,-0.0037 0.115219,-0.01019 0.04392,-0.0081 0.0797,-0.0167 0.0797,-0.0167 0.01752,-0.0043 0.05256,-0.01301 0.05256,-0.01301 -0.01851,5.49e-4 -0.0555,0.0016 -0.0555,0.0016 -0.09024,0.0026 -0.215769,-0.0084 -0.293071,-0.0209 -4e-5,-7e-6 -0.04939,-0.0081 -0.04943,-0.0081 z m 0.05251,0.02371 c 0.06761,0.0093 0.149153,0.01588 0.230176,0.01638 -0.01141,0.0024 -0.01288,0.003 -0.02809,0.0057 -0.03794,0.0069 -0.0785,0.01209 -0.100327,0.01014 -0.01248,-0.0012 -0.03742,-0.0036 -0.03742,-0.0036 -7.05e-4,0.0044 -0.0021,0.01334 -0.0021,0.01334 -6.51e-4,0.0075 -0.02706,0.01889 -0.0579,0.02901 -0.01239,0.0041 -0.01422,0.0044 -0.02466,0.0073 0.02117,-0.02601 0.02719,-0.05425 0.0203,-0.07839 0,0 2e-5,7.6e-5 2e-5,7.6e-5 z m 1.121657,-0.30579 c 0.0028,0.0057 0.0085,0.01701 0.0085,0.01701 0.01598,0.02568 0.01713,0.06573 -0.01194,0.09143 -0.006,0.0053 -0.01811,0.01601 -0.01811,0.01601 0.01714,-0.0041 0.05138,-0.01242 0.05138,-0.01242 0,0 0.03434,-0.0085 0.06857,-0.01944 0.02817,-0.009 0.04987,-0.02057 0.05962,-0.03163 0.03759,-5.66e-4 0.07894,-0.0038 0.113641,-0.0099 0.04281,-0.0075 0.07739,-0.01558 0.07739,-0.01558 0.01693,-0.004 0.05078,-0.01207 0.05078,-0.01207 -0.01837,5.6e-4 -0.05508,0.0017 -0.05508,0.0017 -0.08949,0.0027 -0.216074,-0.0069 -0.294519,-0.01794 -3.4e-5,-5e-6 -0.05018,-0.0071 -0.05021,-0.0071 z m 0.0551,0.02152 c 0.0685,0.0082 0.150597,0.01384 0.231384,0.01398 -0.01111,0.0023 -0.01245,0.0027 -0.0273,0.0054 -0.03696,0.0065 -0.07681,0.01143 -0.0988,0.0098 -0.01259,-0.001 -0.03774,-0.0031 -0.03774,-0.0031 -1.67e-4,0.0041 -4.97e-4,0.01223 -4.97e-4,0.01223 2.42e-4,0.0068 -0.02473,0.01743 -0.05432,0.02689 -0.01189,0.0038 -0.01366,0.0042 -0.02375,0.0068 0.01803,-0.02393 0.02069,-0.04985 0.01102,-0.07198 0,0 -2e-6,2.7e-5 -2e-6,2.7e-5 z m 1.078723,-0.282251 c 0.0034,0.0053 0.01029,0.01579 0.01029,0.01579 0.01873,0.02383 0.0245,0.06078 -0.0012,0.0843 -0.0053,0.0049 -0.01603,0.01466 -0.01603,0.01466 0.01648,-0.0038 0.04942,-0.01127 0.04942,-0.01127 0,0 0.03301,-0.0077 0.0656,-0.01766 0.02682,-0.0082 0.04694,-0.01875 0.05529,-0.0289 0.03714,-3.58e-4 0.07769,-0.0032 0.111293,-0.0087 0.04146,-0.0068 0.07473,-0.01403 0.07473,-0.01403 0.01628,-0.0036 0.0488,-0.0109 0.0488,-0.0109 -0.0181,4.29e-4 -0.05428,0.0013 -0.05428,0.0013 -0.08812,0.0021 -0.214623,-0.0073 -0.293434,-0.01779 -3.1e-5,-4e-6 -0.05046,-0.0067 -0.05049,-0.0068 z m 0.05697,0.02013 c 0.06871,0.0078 0.150647,0.01334 0.230565,0.01381 -0.01073,0.002 -0.01197,0.0025 -0.02637,0.0048 -0.0358,0.0058 -0.07469,0.01016 -0.09662,0.0086 -0.01258,-0.001 -0.03772,-0.003 -0.03772,-0.003 3.08e-4,0.0038 9.35e-4,0.01128 9.35e-4,0.01128 0.001,0.0063 -0.02244,0.01597 -0.05062,0.02458 -0.01132,0.0035 -0.01303,0.0038 -0.0227,0.0063 0.01502,-0.02195 0.01463,-0.04586 0.0025,-0.06636 0,0 -1.2e-5,-8e-6 -1.2e-5,-8e-6 z m 1.035376,-0.258038 c 0.0039,0.005 0.01171,0.01507 0.01171,0.01507 0.02078,0.02275 0.03016,0.05771 0.0073,0.07956 -0.0048,0.0045 -0.01425,0.01364 -0.01425,0.01364 0.01585,-0.0034 0.04753,-0.01019 0.04753,-0.01019 0,0 0.03174,-0.0069 0.06281,-0.01609 0.02559,-0.0075 0.04433,-0.01729 0.05152,-0.02681 0.03657,-4.3e-5 0.07625,-0.0024 0.108791,-0.0073 0.04018,-0.006 0.07222,-0.01266 0.07222,-0.01266 0.01567,-0.0033 0.047,-0.0099 0.047,-0.0099 -0.01779,2.54e-4 -0.05334,7.59e-4 -0.05334,7.59e-4 -0.0865,0.0012 -0.212269,-0.0086 -0.290873,-0.01921 -3e-5,-4e-6 -0.05039,-0.0068 -0.05042,-0.0068 z m 0.05809,0.01953 c 0.06846,0.0079 0.149807,0.01381 0.228569,0.01491 -0.01036,0.0019 -0.01157,0.0022 -0.0255,0.0044 -0.03468,0.0052 -0.07259,0.009 -0.09435,0.0074 -0.0125,-0.001 -0.03747,-0.0031 -0.03747,-0.0031 6.8e-4,0.0036 0.0021,0.01066 0.0021,0.01066 0.0017,0.006 -0.02049,0.0149 -0.04738,0.02278 -0.0108,0.0032 -0.01247,0.0035 -0.02174,0.0057 0.01252,-0.02052 0.0097,-0.04313 -0.0042,-0.06266 0,0 1.9e-5,-3.4e-5 1.9e-5,-3.4e-5 z m 0.99823,-0.241003 c 0.0042,0.005 0.01252,0.01494 0.01252,0.01494 0.022,0.02255 0.03389,0.05681 0.01305,0.078 -0.0043,0.0044 -0.01295,0.01315 -0.01295,0.01315 0.01533,-0.0032 0.04596,-0.0095 0.04596,-0.0095 0,0 0.03067,-0.0065 0.06056,-0.01513 0.0246,-0.0071 0.0423,-0.01652 0.0487,-0.02579 0.03596,2.8e-4 0.07484,-0.0017 0.106512,-0.0062 0.03909,-0.0056 0.07017,-0.01181 0.07017,-0.01181 0.01519,-0.0031 0.04555,-0.0094 0.04555,-0.0094 -0.01748,9.4e-5 -0.05242,2.8e-4 -0.05242,2.8e-4 -0.08492,4.49e-4 -0.209556,-0.01035 -0.28754,-0.02141 -3.2e-5,-5e-6 -0.05008,-0.0071 -0.05011,-0.0071 z m 0.0585,0.01972 c 0.0679,0.0084 0.148417,0.01486 0.22595,0.01663 -0.01005,0.0017 -0.01123,0.0022 -0.02478,0.0041 -0.03376,0.0049 -0.07078,0.0082 -0.09231,0.0065 -0.01237,-0.0011 -0.0371,-0.0034 -0.0371,-0.0034 9.07e-4,0.0035 0.0027,0.01048 0.0027,0.01048 0.0021,0.0059 -0.01908,0.01442 -0.04493,0.02189 -0.01037,0.003 -0.01203,0.0033 -0.02094,0.0054 0.01074,-0.01993 0.0064,-0.04213 -0.0086,-0.06148 0,0 -2.2e-5,-3.4e-5 -2.2e-5,-3.4e-5 z m 0.970644,-0.235145 c 0.0043,0.0052 0.01281,0.01543 0.01281,0.01543 0.0224,0.0233 0.0354,0.05842 0.01576,0.07981 -0.0041,0.0044 -0.01217,0.01326 -0.01217,0.01326 0.01494,-0.0031 0.04482,-0.0093 0.04482,-0.0093 0,0 0.02991,-0.0064 0.05898,-0.01496 0.02393,-0.0071 0.04099,-0.01655 0.04695,-0.02601 0.03542,5.46e-4 0.07361,-0.0012 0.104631,-0.0056 0.03829,-0.0054 0.06867,-0.01165 0.06867,-0.01165 0.01485,-0.0031 0.04455,-0.0093 0.04455,-0.0093 -0.0172,-2.5e-5 -0.0516,-7.5e-5 -0.0516,-7.5e-5 -0.08348,-1.21e-4 -0.206766,-0.01208 -0.283828,-0.02393 -3.6e-5,-5e-6 -0.04953,-0.0076 -0.04956,-0.0076 z m 0.05825,0.02064 c 0.06711,0.009 0.146676,0.01625 0.223034,0.01861 -0.0099,0.0017 -0.01101,0.0021 -0.02427,0.004 -0.03307,0.0047 -0.06939,0.008 -0.09065,0.006 -0.01222,-0.0012 -0.03664,-0.0037 -0.03664,-0.0037 0.001,0.0036 0.0031,0.01076 0.0031,0.01076 0.0022,0.006 -0.01825,0.01462 -0.04339,0.02205 -0.01008,0.003 -0.01173,0.0032 -0.02041,0.0053 0.0098,-0.02022 0.0047,-0.043 -0.0108,-0.06296 0,0 4.6e-5,-6.3e-5 4.6e-5,-6.3e-5 z m 0.953413,-0.241395 c 0.0042,0.0055 0.01254,0.01656 0.01254,0.01656 0.02212,0.02483 0.03499,0.06218 0.0158,0.08472 -0.004,0.0047 -0.0119,0.01397 -0.0119,0.01397 0.0147,-0.0032 0.04411,-0.0096 0.04411,-0.0096 0,0 0.02943,-0.0066 0.05806,-0.01556 0.02356,-0.0074 0.04036,-0.01736 0.04623,-0.0274 0.03492,7.36e-4 0.07258,-9.3e-4 0.103173,-0.0055 0.03776,-0.0056 0.06774,-0.01213 0.06774,-0.01213 0.01431,-0.0028 0.04372,-0.0095 0.04372,-0.0095 -0.01696,-9.8e-5 -0.05089,-2.95e-4 -0.05089,-2.95e-4 -0.0821,-4.8e-4 -0.203917,-0.01398 -0.279677,-0.02691 -2.6e-5,-3e-6 -0.04887,-0.0084 -0.0489,-0.0084 z m 0.05733,0.02232 c 0.06605,0.01 0.144493,0.01817 0.219684,0.02107 -0.0098,0.0018 -0.01088,0.0022 -0.02402,0.0043 -0.03219,0.0043 -0.06799,0.0077 -0.08897,0.0054 -0.01205,-0.0014 -0.03613,-0.0042 -0.03613,-0.0042 0.001,0.0038 0.0031,0.01146 0.0031,0.01146 0.0022,0.0064 -0.01797,0.01545 -0.04273,0.02322 -0.0099,0.0031 -0.01156,0.0034 -0.02009,0.0056 0.0095,-0.02138 0.0045,-0.04562 -0.01072,-0.06693 -1.05e-4,1.3e-4 -1.11e-4,4e-5 -1.11e-4,4e-5 m -6.047346,2.482453 c 0.0028,0.0067 0.0085,0.01997 0.0085,0.01997 0.01656,0.02994 0.01497,0.07847 -0.02042,0.11189 -0.0073,0.0069 -0.02203,0.0208 -0.02203,0.0208 0.01998,-0.0062 0.05995,-0.01874 0.05995,-0.01874 0,0 0.0401,-0.01276 0.0803,-0.02858 0.03307,-0.01299 0.05892,-0.02868 0.07095,-0.04283 0.04335,-0.0034 0.09118,-0.01048 0.131683,-0.02056 0.04993,-0.0124 0.09043,-0.02487 0.09043,-0.02487 0.01984,-0.0062 0.05949,-0.01861 0.05949,-0.01861 -0.02128,0.0021 -0.06377,0.0064 -0.06377,0.0064 -0.104149,0.01029 -0.248176,0.0081 -0.337994,2.74e-4 -0.01906,-0.0017 -0.03809,-0.0034 -0.0571,-0.0051 z m 0.06175,0.02214 c 0.07821,0.005 0.172082,0.0059 0.265413,-1.97e-4 -0.01292,0.0036 -0.01461,0.0043 -0.03186,0.0085 -0.04311,0.01069 -0.08933,0.0196 -0.114533,0.01924 -0.01442,-3.26e-4 -0.04321,-0.001 -0.04321,-0.001 -4.91e-4,0.005 -0.0015,0.01488 -0.0015,0.01488 -2.22e-4,0.0082 -0.02974,0.02299 -0.06444,0.03661 -0.01394,0.0055 -0.01603,0.006 -0.02781,0.01002 0.02253,-0.03044 0.02746,-0.06208 0.0179,-0.08818 0,0 1.5e-5,1.01e-4 1.5e-5,1.01e-4 z m 1.261378,-0.422833 c 0.0039,0.0058 0.01179,0.01725 0.01179,0.01725 0.02147,0.02578 0.02751,0.0681 -0.0032,0.09809 -0.0064,0.0062 -0.01914,0.01867 -0.01914,0.01867 0.01936,-0.0059 0.05804,-0.0178 0.05804,-0.0178 0,0 0.03877,-0.01205 0.07709,-0.02677 0.03153,-0.01207 0.05526,-0.02625 0.0652,-0.0388 0.04343,-0.0039 0.09086,-0.01105 0.13026,-0.02062 0.04861,-0.01175 0.08759,-0.02333 0.08759,-0.02333 0.01908,-0.0058 0.0572,-0.01722 0.0572,-0.01722 -0.02119,0.0022 -0.06354,0.0067 -0.06354,0.0067 -0.103641,0.01087 -0.250339,0.01199 -0.342517,0.007 -0.01961,-0.001 -0.03919,-0.0021 -0.05876,-0.0032 z m 0.06611,0.018 c 0.08011,0.0027 0.175496,0.0014 0.269092,-0.0056 -0.01257,0.0034 -0.01404,0.004 -0.0309,0.0081 -0.04196,0.0101 -0.08744,0.01886 -0.113049,0.01911 -0.01468,2.2e-5 -0.04401,3.7e-5 -0.04401,3.7e-5 2.89e-4,0.0043 8.66e-4,0.01297 8.66e-4,0.01297 0.0011,0.0072 -0.02651,0.02064 -0.05963,0.03331 -0.01332,0.0051 -0.01531,0.0056 -0.02667,0.0094 0.01809,-0.02704 0.01808,-0.0547 0.0043,-0.07724 0,0 3.3e-5,5e-6 3.3e-5,5e-6 z m 1.201487,-0.38266 c 0.0049,0.0049 0.01485,0.01471 0.01485,0.01471 0.02601,0.02195 0.03956,0.05807 0.014,0.08394 -0.0053,0.0054 -0.01593,0.01612 -0.01593,0.01612 0.0184,-0.0053 0.05516,-0.01572 0.05516,-0.01572 0,0 0.0368,-0.01064 0.07265,-0.02347 0.02951,-0.01052 0.05077,-0.0228 0.0585,-0.03357 0.04284,-0.0037 0.08915,-0.01004 0.126917,-0.01844 0.0466,-0.01029 0.08356,-0.02035 0.08356,-0.02035 0.01807,-0.005 0.05416,-0.01494 0.05416,-0.01494 -0.02081,0.002 -0.06242,0.006 -0.06242,0.006 -0.101724,0.0098 -0.248821,0.01168 -0.341959,0.008 3.3e-5,2e-6 -0.05952,-0.0023 -0.05949,-0.0023 z m 0.0694,0.01499 c 0.08079,0.0018 0.17622,5.3e-5 0.268725,-0.0065 -0.01201,0.003 -0.01331,0.0035 -0.0295,0.0071 -0.04019,0.0089 -0.08429,0.01663 -0.109932,0.01698 -0.01472,1.2e-4 -0.04413,3.36e-4 -0.04413,3.36e-4 0.0011,0.0037 0.0032,0.01107 0.0032,0.01107 0.0024,0.0061 -0.02292,0.0178 -0.05391,0.02887 -0.01248,0.0045 -0.01436,0.0049 -0.02511,0.0082 0.01337,-0.02322 0.0085,-0.04685 -0.0093,-0.06607 0,0 -3.7e-5,3.4e-5 -3.7e-5,3.4e-5 z m 1.130665,-0.329033 c 0.0058,0.0042 0.01739,0.01265 0.01739,0.01265 0.02985,0.01887 0.05003,0.04965 0.02937,0.07158 -0.0043,0.0045 -0.01285,0.01365 -0.01285,0.01365 0.01734,-0.0044 0.05198,-0.01324 0.05198,-0.01324 0,0 0.03463,-0.009 0.0679,-0.01976 0.02737,-0.0089 0.04623,-0.01922 0.05189,-0.02836 0.04193,-0.0029 0.08678,-0.0083 0.122714,-0.01524 0.04439,-0.0086 0.07919,-0.01697 0.07919,-0.01697 0.01701,-0.0042 0.05098,-0.01246 0.05098,-0.01246 -0.02029,0.0016 -0.06087,0.0048 -0.06087,0.0048 -0.09909,0.0079 -0.245147,0.009 -0.338244,0.0055 4.3e-5,10e-7 -0.05949,-0.0022 -0.05944,-0.0022 z m 0.0717,0.01306 c 0.0806,0.0018 0.175177,6.44e-4 0.265841,-0.0046 -0.01142,0.0025 -0.01256,0.0029 -0.02802,0.0059 -0.03828,0.0074 -0.08067,0.01386 -0.106083,0.01408 -0.01461,5.5e-5 -0.0438,1.48e-4 -0.0438,1.48e-4 0.0017,0.0031 0.0052,0.0094 0.0052,0.0094 0.0035,0.0052 -0.01947,0.01507 -0.04824,0.0244 -0.01158,0.0038 -0.01338,0.0041 -0.02344,0.0069 0.0089,-0.01968 -3.16e-4,-0.03983 -0.0215,-0.05631 0,0 -7e-6,4.2e-5 -7e-6,4.2e-5 z m 1.060657,-0.275767 c 0.0064,0.0038 0.01937,0.01123 0.01937,0.01123 0.03277,0.01677 0.05825,0.04365 0.0419,0.06235 -0.0034,0.0039 -0.01018,0.01163 -0.01018,0.01163 0.01633,-0.0036 0.04894,-0.01091 0.04894,-0.01091 0,0 0.03257,-0.0074 0.06346,-0.01638 0.02543,-0.0074 0.04215,-0.01614 0.04608,-0.02399 0.04085,-0.0021 0.0842,-0.0062 0.118433,-0.01186 0.04224,-0.007 0.07509,-0.01386 0.07509,-0.01386 0.01603,-0.0034 0.04805,-0.01026 0.04805,-0.01026 -0.01973,0.0012 -0.05919,0.0035 -0.05919,0.0035 -0.09623,0.0057 -0.240456,0.0051 -0.33282,0.0011 5.2e-5,2e-6 -0.05918,-0.0026 -0.05913,-0.0026 z m 0.07305,0.01215 c 0.07985,0.0024 0.173073,0.0024 0.261585,-0.0012 -0.0108,0.0021 -0.01188,0.0024 -0.02658,0.0048 -0.03643,0.006 -0.07718,0.01113 -0.102173,0.01111 -0.01441,-1.01e-4 -0.04322,-3.17e-4 -0.04322,-3.17e-4 0.0023,0.0028 0.0069,0.0082 0.0069,0.0082 0.0044,0.0045 -0.01649,0.01285 -0.04322,0.02063 -0.01075,0.0032 -0.01248,0.0034 -0.02191,0.0057 0.0052,-0.0169 -0.0075,-0.03448 -0.03136,-0.04906 0,0 7e-6,0 7e-6,0 z m 0.999086,-0.231914 c 0.0069,0.0035 0.0207,0.01053 0.0207,0.01053 0.03471,0.01575 0.06396,0.04042 0.05093,0.05697 -0.0027,0.0034 -0.0081,0.01028 -0.0081,0.01028 0.01545,-0.003 0.04633,-0.0091 0.04633,-0.0091 0,0 0.03081,-0.0062 0.05973,-0.0138 0.02378,-0.0063 0.03883,-0.01392 0.04147,-0.02098 0.03981,-0.0013 0.08176,-0.0044 0.11449,-0.009 0.04041,-0.0057 0.07161,-0.01146 0.07161,-0.01146 0.01521,-0.0029 0.04561,-0.0086 0.04561,-0.0086 -0.01919,7.7e-4 -0.05757,0.0023 -0.05757,0.0023 -0.09348,0.0038 -0.23552,0.001 -0.326705,-0.0039 5.9e-5,3e-6 -0.05854,-0.0033 -0.05848,-0.0032 z m 0.07357,0.01215 c 0.07876,0.0033 0.170426,0.0047 0.256771,0.0028 -0.01029,0.0017 -0.01129,0.002 -0.02535,0.004 -0.03487,0.0049 -0.07408,0.009 -0.09868,0.0085 -0.01417,-3.01e-4 -0.0425,-9.13e-4 -0.0425,-9.13e-4 0.0027,0.0025 0.008,0.0076 0.008,0.0076 0.0051,0.0042 -0.01419,0.01137 -0.0392,0.01799 -0.01008,0.0026 -0.01172,0.0029 -0.02058,0.0049 0.0024,-0.01511 -0.01291,-0.03123 -0.03847,-0.04485 0,0 -3e-5,-3.3e-5 -3e-5,-3.3e-5 z m 0.950014,-0.202341 c 0.0071,0.0035 0.02141,0.01052 0.02141,0.01052 0.0357,0.01578 0.0672,0.03997 0.05644,0.05552 -0.0022,0.0032 -0.0067,0.0097 -0.0067,0.0097 0.01477,-0.0026 0.04429,-0.0079 0.04429,-0.0079 0,0 0.02944,-0.0054 0.05687,-0.01221 0.02259,-0.0056 0.03642,-0.01273 0.0382,-0.01948 0.03884,-6.39e-4 0.07961,-0.0029 0.111134,-0.0069 0.03894,-0.0049 0.0689,-0.01 0.0689,-0.01 0.01459,-0.0026 0.04376,-0.0077 0.04376,-0.0077 -0.01872,4.44e-4 -0.05617,0.0013 -0.05617,0.0013 -0.09104,0.0022 -0.230795,-0.0027 -0.320547,-0.009 6.4e-5,4e-6 -0.05768,-0.004 -0.05762,-0.004 z m 0.0734,0.01291 c 0.0775,0.0045 0.167572,0.0073 0.251915,0.0068 -0.0098,0.0015 -0.01089,0.0017 -0.0244,0.0035 -0.03361,0.0042 -0.07159,0.0075 -0.09574,0.0067 -0.01393,-5.28e-4 -0.04177,-0.0016 -0.04177,-0.0016 0.0029,0.0025 0.0088,0.0074 0.0088,0.0074 0.0054,0.0041 -0.0126,0.01072 -0.03634,0.01665 -0.0095,0.0024 -0.01117,0.0026 -0.01959,0.0043 5.74e-4,-0.0144 -0.0163,-0.03018 -0.04279,-0.04377 0,0 -5.8e-5,8e-6 -5.8e-5,8e-6 z m 0.914618,-0.188482 c 0.0072,0.0037 0.02155,0.01113 0.02155,0.01113 0.03587,0.01674 0.06821,0.04199 0.05875,0.05768 -0.002,0.0033 -0.0059,0.0097 -0.0059,0.0097 0.01428,-0.0025 0.04284,-0.0074 0.04284,-0.0074 0,0 0.02848,-0.0051 0.05491,-0.01165 0.02175,-0.0054 0.03487,-0.01252 0.03621,-0.01945 0.03802,-1.18e-4 0.07785,-0.0019 0.108513,-0.0056 0.03791,-0.0045 0.06697,-0.0094 0.06697,-0.0094 0.01417,-0.0024 0.04249,-0.0073 0.04249,-0.0073 -0.01833,2.1e-4 -0.05498,6.34e-4 -0.05498,6.34e-4 -0.08901,0.001 -0.226484,-0.0059 -0.31469,-0.01354 6.4e-5,5e-6 -0.05676,-0.0049 -0.05669,-0.0049 z m 0.07265,0.0143 c 0.07617,0.0056 0.1647,0.0098 0.247296,0.01042 -0.0096,0.0014 -0.01058,0.0017 -0.02376,0.0032 -0.0327,0.0039 -0.06973,0.0067 -0.09344,0.0056 -0.01368,-7.28e-4 -0.04102,-0.0022 -0.04102,-0.0022 0.003,0.0026 0.009,0.0077 0.009,0.0077 0.0056,0.0043 -0.0117,0.01083 -0.03457,0.01657 -0.0091,0.0023 -0.01079,0.0025 -0.01894,0.0041 -3.92e-4,-0.0147 -0.01786,-0.03116 -0.04459,-0.04552 0,0 -1.1e-5,4.4e-5 -1.1e-5,4.4e-5 z m -5.901892,2.494063 c 0.0049,0.0063 0.01481,0.01893 0.01481,0.01893 0.02656,0.028 0.03569,0.07689 9.99e-4,0.114662 -0.0072,0.0078 -0.02162,0.02354 -0.02162,0.02354 0.02241,-0.0086 0.06721,-0.02583 0.06721,-0.02583 0,0 0.04488,-0.01748 0.08913,-0.03799 0.03641,-0.01685 0.06357,-0.03554 0.07462,-0.05108 0.05071,-0.0084 0.105964,-0.02078 0.151712,-0.03538 0.05642,-0.01798 0.101558,-0.0349 0.101558,-0.0349 0.02208,-0.0084 0.0662,-0.02512 0.0662,-0.02512 -0.02473,0.0045 -0.07416,0.01335 -0.07416,0.01335 -0.120673,0.02166 -0.293237,0.03587 -0.401345,0.03832 1.33e-4,-3e-6 -0.06924,0.0015 -0.06911,0.0015 z m 0.0785,0.01499 c 0.09403,-0.004 0.205956,-0.01378 0.315263,-0.03017 -0.01454,0.0051 -0.01627,0.0059 -0.03584,0.01209 -0.04869,0.01551 -0.101588,0.02964 -0.131614,0.0321 -0.0172,0.0013 -0.05157,0.0039 -0.05157,0.0039 5.66e-4,0.005 0.0017,0.01508 0.0017,0.01508 0.0016,0.0083 -0.0301,0.02645 -0.06832,0.04413 -0.01538,0.0071 -0.01769,0.0078 -0.03081,0.0133 0.01998,-0.03324 0.01861,-0.06551 0.0012,-0.0905 0,0 -2.2e-5,4.9e-5 -2.2e-5,4.9e-5 z m 1.384269,-0.54982 c 0.0062,0.0051 0.01874,0.01542 0.01874,0.01542 0.03252,0.0227 0.05134,0.06313 0.02319,0.09543 -0.0058,0.0067 -0.01754,0.02013 -0.01754,0.02013 0.02122,-0.0077 0.0636,-0.02309 0.0636,-0.02309 0,0 0.04241,-0.01558 0.0835,-0.03361 0.03382,-0.0148 0.05782,-0.03089 0.06601,-0.044 0.05,-0.0079 0.103804,-0.01942 0.147397,-0.03241 0.0538,-0.016 0.0963,-0.03079 0.0963,-0.03079 0.02077,-0.0073 0.06222,-0.02195 0.06222,-0.02195 -0.02423,0.0041 -0.07268,0.0124 -0.07268,0.0124 -0.117983,0.02007 -0.291423,0.03542 -0.400711,0.03973 1.93e-4,-7e-6 -0.07022,0.0027 -0.07003,0.0027 z m 0.08287,0.01077 c 0.09494,-0.0053 0.207031,-0.01575 0.314879,-0.03142 -0.01385,0.0045 -0.0153,0.0052 -0.03401,0.01074 -0.04641,0.01377 -0.09751,0.02658 -0.127561,0.02929 -0.01726,0.0014 -0.05176,0.0043 -0.05176,0.0043 0.0016,0.0042 0.0047,0.01248 0.0047,0.01248 0.0033,0.0069 -0.02547,0.02259 -0.06099,0.03814 -0.01433,0.0062 -0.01647,0.0069 -0.02884,0.01172 0.01393,-0.02811 0.0062,-0.05489 -0.01643,-0.07525 0,0 3.4e-5,1.2e-5 3.4e-5,1.2e-5 z m 1.28753,-0.47034 c 0.0074,0.0041 0.02233,0.01224 0.02233,0.01224 0.03786,0.01797 0.06588,0.0503 0.04464,0.07662 -0.0044,0.0055 -0.01326,0.01642 -0.01326,0.01642 0.01973,-0.0065 0.05911,-0.01928 0.05911,-0.01928 0,0 0.03937,-0.01297 0.07678,-0.02787 0.03082,-0.01223 0.05141,-0.02536 0.05671,-0.03597 0.0486,-0.0068 0.100281,-0.01649 0.141269,-0.0272 0.05056,-0.01326 0.08998,-0.02538 0.08998,-0.02538 0.01923,-0.006 0.05761,-0.01798 0.05761,-0.01798 -0.02344,0.0035 -0.07034,0.01041 -0.07034,0.01041 -0.113849,0.01691 -0.285854,0.03072 -0.394773,0.03516 3.06e-4,-1.3e-5 -0.07036,0.0028 -0.07006,0.0028 z m 0.08597,0.0079 c 0.09451,-0.0051 0.205249,-0.01452 0.310276,-0.0279 -0.013,0.0037 -0.01418,0.0043 -0.03184,0.0089 -0.04362,0.01139 -0.09228,0.02212 -0.121952,0.02454 -0.01707,0.0013 -0.0512,0.004 -0.0512,0.004 0.0025,0.0033 0.0075,0.01 0.0075,0.01 0.0049,0.0055 -0.0206,0.01838 -0.05299,0.03124 -0.01309,0.0052 -0.01507,0.0057 -0.02648,0.0097 0.0078,-0.02276 -0.006,-0.04421 -0.03332,-0.06039 z m 1.182562,-0.379993 c 0.0084,0.0032 0.02534,0.0097 0.02534,0.0097 0.04225,0.01418 0.07829,0.03962 0.06349,0.06035 -0.0031,0.0043 -0.0092,0.01293 -0.0092,0.01293 0.01817,-0.0051 0.05443,-0.01521 0.05443,-0.01521 0,0 0.03619,-0.01026 0.06997,-0.02193 0.0278,-0.0096 0.04513,-0.01991 0.04779,-0.02823 0.04687,-0.0053 0.09617,-0.01287 0.134418,-0.02122 0.04726,-0.01028 0.08352,-0.01974 0.08352,-0.01974 0.01769,-0.0047 0.053,-0.01396 0.053,-0.01396 -0.02254,0.0027 -0.06762,0.008 -0.06762,0.008 -0.109088,0.01298 -0.278293,0.02371 -0.385751,0.02714 5.79e-4,-1.8e-5 -0.06992,0.0022 -0.06934,0.0022 z m 0.08792,0.0063 c 0.09317,-0.004 0.201697,-0.0113 0.303205,-0.02163 -0.01215,0.0029 -0.01302,0.0033 -0.02957,0.0069 -0.04072,0.0089 -0.08673,0.01726 -0.115797,0.01912 -0.01674,0.001 -0.05022,0.0031 -0.05022,0.0031 0.0033,0.0026 0.01003,0.0078 0.01003,0.0078 0.0062,0.0043 -0.01606,0.01443 -0.04529,0.02455 -0.01181,0.0041 -0.01365,0.0045 -0.02408,0.0077 0.0022,-0.0179 -0.01688,-0.03478 -0.04825,-0.04753 0,0 -2.7e-5,-8e-6 -2.7e-5,-8e-6 z m 1.082034,-0.293668 c 0.0092,0.0026 0.02763,0.0079 0.02763,0.0079 0.04558,0.01156 0.08795,0.03187 0.07866,0.04796 -0.0019,0.0033 -0.0058,0.01005 -0.0058,0.01005 0.01672,-0.0038 0.05009,-0.01147 0.05009,-0.01147 0,0 0.03328,-0.0077 0.06371,-0.01659 0.02508,-0.0073 0.03957,-0.0152 0.04004,-0.02171 0.04507,-0.0038 0.09203,-0.0092 0.127726,-0.01539 0.04414,-0.0076 0.07759,-0.01467 0.07759,-0.01467 0.0163,-0.0035 0.04882,-0.01042 0.04882,-0.01042 -0.02162,0.0019 -0.06488,0.0056 -0.06488,0.0056 -0.104229,0.009 -0.270082,0.01593 -0.375375,0.01766 0.0022,-3.6e-5 -0.07043,0.0012 -0.06821,0.0011 z m 0.08885,0.0057 c 0.09132,-0.0023 0.197232,-0.0071 0.295044,-0.01417 -0.01123,0.0022 -0.01207,0.0025 -0.02753,0.0051 -0.03799,0.0066 -0.08149,0.01273 -0.109794,0.01394 -0.01635,6.45e-4 -0.04903,0.0019 -0.04903,0.0019 0.004,0.0021 0.01198,0.0062 0.01198,0.0062 0.0073,0.0034 -0.01216,0.01118 -0.03854,0.01886 -0.01064,0.0031 -0.01236,0.0034 -0.02189,0.0058 -0.0025,-0.014 -0.02587,-0.02743 -0.06019,-0.03777 0,0 -5.4e-5,-4e-6 -5.4e-5,-4e-6 z m 0.994365,-0.221401 c 0.0097,0.0023 0.02916,0.0069 0.02916,0.0069 0.04777,0.01016 0.09468,0.02732 0.08971,0.04009 -0.001,0.0027 -0.0031,0.008 -0.0031,0.008 0.01548,-0.0028 0.04639,-0.0084 0.04639,-0.0084 0,0 0.03076,-0.0057 0.05848,-0.01236 0.02283,-0.0055 0.03505,-0.01165 0.03384,-0.01692 0.04343,-0.0023 0.08824,-0.006 0.12176,-0.01039 0.04143,-0.0055 0.07258,-0.01063 0.07258,-0.01063 0.01514,-0.0026 0.04537,-0.0077 0.04537,-0.0077 -0.02079,0.0011 -0.06238,0.0034 -0.06238,0.0034 -0.09974,0.0056 -0.262133,0.0085 -0.364922,0.0082 -0.0017,-4e-6 -0.06515,-1.57e-4 -0.06687,-1.61e-4 z m 0.08891,0.0061 c 0.08922,-4.24e-4 0.192504,-0.0026 0.286794,-0.0067 -0.01055,0.0016 -0.01123,0.0018 -0.02576,0.0037 -0.03572,0.0047 -0.07697,0.009 -0.10453,0.0095 -0.01593,2.56e-4 -0.04778,7.76e-4 -0.04778,7.76e-4 0.0044,0.0018 0.01333,0.0053 0.01333,0.0053 0.0081,0.0029 -0.0091,0.0089 -0.0331,0.01465 -0.0097,0.0023 -0.01133,0.0025 -0.02006,0.0044 -0.0061,-0.01132 -0.03249,-0.02261 -0.0689,-0.0316 0,0 10e-6,-5e-6 10e-6,-5e-6 z m 0.924083,-0.1687 c 0.01,0.0022 0.03,0.0066 0.03,0.0066 0.0489,0.0099 0.09861,0.02589 0.09666,0.03677 -4.1e-4,0.0023 -0.0012,0.0068 -0.0012,0.0068 0.0145,-0.0021 0.04348,-0.0063 0.04348,-0.0063 0,0 0.02885,-0.0043 0.05444,-0.0095 0.02112,-0.0043 0.0317,-0.0094 0.02937,-0.01405 0.04195,-0.0011 0.08502,-0.0034 0.116827,-0.0066 0.03935,-0.0039 0.06868,-0.0079 0.06868,-0.0079 0.01425,-0.002 0.04273,-0.0058 0.04273,-0.0058 -0.02008,5.68e-4 -0.06025,0.0017 -0.06025,0.0017 -0.09596,0.0028 -0.25492,0.002 -0.355217,-3.37e-4 -7.45e-4,-1.7e-5 -0.06475,-0.0015 -0.06549,-0.0015 z m 0.08832,0.0072 c 0.0871,0.0014 0.187935,0.0017 0.279133,5.6e-5 -0.0098,0.0012 -0.01066,0.0014 -0.02443,0.0027 -0.03393,0.0034 -0.07333,0.0063 -0.100161,0.0062 -0.01553,-1.07e-4 -0.04658,-3.1e-4 -0.04658,-3.1e-4 0.0047,0.0016 0.0142,0.0049 0.0142,0.0049 0.0085,0.0027 -0.007,0.0076 -0.02915,0.01209 -0.009,0.0018 -0.01054,0.002 -0.01866,0.0034 -0.0085,-0.0099 -0.03681,-0.02036 -0.07436,-0.02901 0,0 1.1e-5,-10e-7 1.1e-5,-10e-7 z m 0.872468,-0.137212 c 0.01007,0.0024 0.03024,0.0071 0.03024,0.0071 0.04912,0.01064 0.100113,0.02717 0.09996,0.0375 -3.1e-5,0.0022 -8e-5,0.0065 -8e-5,0.0065 0.0138,-0.0017 0.04139,-0.0051 0.04139,-0.0051 0,0 0.02745,-0.0035 0.0516,-0.008 0.01991,-0.0037 0.02948,-0.0084 0.0265,-0.01301 0.04075,-2.55e-4 0.08245,-0.0016 0.113018,-0.0041 0.03784,-0.0031 0.0659,-0.0063 0.0659,-0.0063 0.01363,-0.0016 0.04089,-0.0049 0.04089,-0.0049 -0.01951,1.67e-4 -0.05854,5.26e-4 -0.05854,5.26e-4 -0.09312,8.83e-4 -0.2486,-0.0031 -0.346728,-0.0074 -5.5e-4,-2.4e-5 -0.06359,-0.0027 -0.06414,-0.0028 z m 0.08724,0.0088 c 0.08517,0.0032 0.183745,0.0054 0.272417,0.0056 -0.0094,9.46e-4 -0.01026,0.0011 -0.02343,0.0022 -0.03262,0.0027 -0.07062,0.0047 -0.09682,0.0041 -0.01516,-4.17e-4 -0.04549,-0.0012 -0.04549,-0.0012 0.0049,0.0017 0.01463,0.0051 0.01463,0.0051 0.0088,0.0028 -0.0057,0.0072 -0.0266,0.0111 -0.0084,0.0016 -0.01,0.0017 -0.01769,0.0029 -0.0098,-0.0097 -0.03904,-0.02044 -0.07696,-0.02964 0,0 -6.8e-5,-2.1e-5 -6.8e-5,-2.1e-5 z m -5.743013,2.585104 c 0.0065,0.0071 0.01933,0.02146 0.01933,0.02146 0.03392,0.03168 0.05002,0.08883 0.01475,0.134179 -0.0073,0.0094 -0.02201,0.02828 -0.02201,0.02828 0.02454,-0.01067 0.07354,-0.03195 0.07354,-0.03195 0,0 0.04907,-0.02159 0.09702,-0.0467 0.03945,-0.02063 0.06819,-0.04323 0.07896,-0.0618 0.05656,-0.01077 0.117784,-0.02645 0.167878,-0.04444 0.06182,-0.02211 0.110928,-0.04281 0.110928,-0.04281 0.02401,-0.01024 0.07196,-0.03065 0.07196,-0.03065 -0.02742,0.0056 -0.08226,0.0168 -0.08226,0.0168 -0.132174,0.027 -0.329785,0.04773 -0.451335,0.05371 -7.43e-4,3.7e-5 -0.07802,0.0039 -0.07876,0.0039 z m 0.09158,0.015 c 0.106384,-0.0072 0.233146,-0.02128 0.354582,-0.04232 -0.01595,0.0063 -0.0177,0.0072 -0.03917,0.01496 -0.05336,0.01912 -0.111749,0.03679 -0.145516,0.04035 -0.01938,0.0019 -0.05813,0.0057 -0.05813,0.0057 0.0012,0.0059 0.0037,0.01769 0.0037,0.01769 0.0028,0.0098 -0.03116,0.03179 -0.0726,0.05345 -0.01667,0.0088 -0.01921,0.0097 -0.03352,0.01632 0.01902,-0.03968 0.01369,-0.07752 -0.0093,-0.10612 0,0 -2e-5,-6e-5 -2e-5,-6e-5 z m 1.492402,-0.665646 c 0.0078,0.0059 0.02342,0.01782 0.02342,0.01782 0.03996,0.02628 0.06655,0.07416 0.03929,0.112598 -0.0057,0.008 -0.01707,0.024 -0.01707,0.024 0.02274,-0.0092 0.06813,-0.02737 0.06813,-0.02737 0,0 0.04539,-0.01846 0.08893,-0.0398 0.03584,-0.01753 0.06053,-0.03663 0.06792,-0.05223 0.0547,-0.0092 0.113169,-0.02259 0.15998,-0.03773 0.05778,-0.01871 0.103044,-0.03601 0.103044,-0.03601 0.02211,-0.0086 0.06621,-0.02567 0.06621,-0.02567 -0.02636,0.0047 -0.07912,0.01413 -0.07912,0.01413 -0.126527,0.0226 -0.321935,0.04088 -0.442306,0.04655 -3.26e-4,1.5e-5 -0.07811,0.0037 -0.07844,0.0037 z m 0.09478,0.01198 c 0.105364,-0.0066 0.230066,-0.01894 0.347584,-0.0368 -0.01486,0.0053 -0.01632,0.006 -0.03646,0.01253 -0.04984,0.01614 -0.105149,0.03114 -0.138317,0.03426 -0.01907,0.0017 -0.05723,0.005 -0.05723,0.005 0.0023,0.0049 0.007,0.01481 0.007,0.01481 0.0046,0.0082 -0.02544,0.0268 -0.06309,0.04523 -0.01517,0.0074 -0.0175,0.0082 -0.03068,0.0139 0.01196,-0.03351 -3.38e-4,-0.0652 -0.02868,-0.089 0,0 -1.01e-4,4.2e-5 -1.01e-4,4.2e-5 z m 1.357469,-0.546552 c 0.0091,0.0048 0.02713,0.01447 0.02713,0.01447 0.04537,0.0214 0.08191,0.0603 0.06276,0.09139 -0.004,0.0064 -0.01198,0.01942 -0.01198,0.01942 0.02069,-0.0073 0.06198,-0.02183 0.06198,-0.02183 0,0 0.04122,-0.01472 0.07994,-0.0317 0.03189,-0.01396 0.05234,-0.02923 0.05636,-0.04179 0.05226,-0.0071 0.107406,-0.01736 0.150488,-0.02919 0.05324,-0.01456 0.09429,-0.02809 0.09429,-0.02809 0.02003,-0.0067 0.05998,-0.02001 0.05998,-0.02001 -0.02506,0.0035 -0.07524,0.0106 -0.07524,0.0106 -0.119549,0.01691 -0.310921,0.03027 -0.428602,0.03413 -2.08e-4,6e-6 -0.07689,0.0026 -0.0771,0.0026 z m 0.09679,0.01017 c 0.103091,-0.0047 0.224466,-0.01377 0.336858,-0.02709 -0.01367,0.0042 -0.01477,0.0047 -0.0334,0.0098 -0.04592,0.01253 -0.09758,0.02426 -0.129782,0.02653 -0.01856,0.0012 -0.05569,0.0037 -0.05569,0.0037 0.0034,0.004 0.01004,0.01202 0.01004,0.01202 0.0063,0.0066 -0.01955,0.0215 -0.05306,0.03618 -0.01354,0.0059 -0.01564,0.0065 -0.02755,0.01105 0.0049,-0.02712 -0.01405,-0.05281 -0.04737,-0.07216 0,0 -5.8e-5,-3.1e-5 -5.8e-5,-3.1e-5 z m 1.217787,-0.419666 c 0.01009,0.0039 0.0302,0.01175 0.0302,0.01175 0.04985,0.01749 0.09505,0.04846 0.0834,0.07287 -0.0024,0.005 -0.0073,0.01514 -0.0073,0.01514 0.01864,-0.0054 0.0558,-0.01619 0.0558,-0.01619 0,0 0.03706,-0.0109 0.07108,-0.0236 0.02802,-0.01043 0.04449,-0.02209 0.04545,-0.03189 0.04959,-0.0046 0.101267,-0.01168 0.140692,-0.0201 0.0487,-0.01043 0.08569,-0.0202 0.08569,-0.0202 0.01801,-0.0049 0.05394,-0.01448 0.05394,-0.01448 -0.0237,0.0022 -0.07117,0.0068 -0.07117,0.0068 -0.112031,0.01078 -0.298694,0.01796 -0.412581,0.01911 -1.52e-4,10e-7 -0.07509,8.41e-4 -0.07525,8.43e-4 z m 0.09771,0.0095 c 0.100052,-0.002 0.217506,-0.007 0.324267,-0.01529 -0.01248,0.003 -0.0133,0.0034 -0.0304,0.0071 -0.04199,0.009 -0.08994,0.01724 -0.121007,0.01843 -0.01794,6.05e-4 -0.05384,0.0019 -0.05384,0.0019 0.0042,0.0032 0.01268,0.0096 0.01268,0.0096 0.0078,0.0053 -0.0141,0.01656 -0.04356,0.02755 -0.01192,0.0045 -0.01382,0.0048 -0.02443,0.0083 -0.0016,-0.0213 -0.02625,-0.0418 -0.06371,-0.0575 0,0 -1e-6,-1.3e-5 -1e-6,-1.3e-5 z m 1.08728,-0.301419 c 0.01085,0.0033 0.03251,0.0098 0.03251,0.0098 0.05316,0.01477 0.105066,0.03994 0.0999,0.05863 -0.0011,0.0038 -0.0032,0.01158 -0.0032,0.01158 0.01676,-0.0037 0.0502,-0.01111 0.0502,-0.01111 0,0 0.03329,-0.0075 0.06312,-0.01644 0.02459,-0.0074 0.03762,-0.01595 0.03605,-0.02354 0.04698,-0.0022 0.09541,-0.0063 0.131476,-0.01171 0.04463,-0.0067 0.07796,-0.01324 0.07796,-0.01324 0.01623,-0.0033 0.04859,-0.0097 0.04859,-0.0097 -0.0224,0.001 -0.06727,0.0032 -0.06727,0.0032 -0.104506,0.0051 -0.286787,0.0056 -0.396174,0.0037 -0.02435,-4.26e-4 -0.04872,-8.26e-4 -0.07311,-0.0012 z m 0.09768,0.0098 c 0.0966,9.77e-4 0.210168,2.55e-4 0.311345,-0.0031 -0.0114,0.002 -0.01201,0.0022 -0.02771,0.0046 -0.03845,0.0058 -0.08295,0.01088 -0.112837,0.01096 -0.01727,-1.1e-5 -0.05185,1.2e-5 -0.05185,1.2e-5 0.005,0.0026 0.01482,0.0078 0.01482,0.0078 0.0089,0.0043 -0.0095,0.01247 -0.03533,0.02022 -0.01048,0.0031 -0.01219,0.0034 -0.02168,0.0058 -0.007,-0.01659 -0.03625,-0.03314 -0.07676,-0.04625 0,0 -1.3e-5,1e-5 -1.3e-5,1e-5 z m 0.975387,-0.203193 c 0.01135,0.0029 0.03401,0.0088 0.03401,0.0088 0.05527,0.01334 0.111874,0.03486 0.111738,0.04941 -3.1e-5,0.003 -1.26e-4,0.009 -1.26e-4,0.009 0.01519,-0.0024 0.0455,-0.007 0.0455,-0.007 0,0 0.03015,-0.0047 0.05656,-0.01078 0.02179,-0.0049 0.03211,-0.01129 0.02864,-0.01734 0.04465,-1.55e-4 0.09025,-0.0017 0.123515,-0.0047 0.0412,-0.0037 0.07158,-0.0078 0.07158,-0.0078 0.01476,-0.002 0.04422,-0.006 0.04422,-0.006 -0.02126,2.7e-5 -0.06385,1.58e-4 -0.06385,1.58e-4 -0.09754,3.59e-4 -0.276262,-0.0055 -0.380835,-0.01045 -0.02363,-0.0011 -0.04728,-0.0022 -0.07096,-0.0033 z m 0.09692,0.01083 c 0.09308,0.0039 0.203197,0.0072 0.299232,0.008 -0.01037,0.0012 -0.01102,0.0014 -0.02548,0.0027 -0.0355,0.0032 -0.07705,0.0057 -0.105774,0.0048 -0.01665,-6.05e-4 -0.04998,-0.0018 -0.04998,-0.0018 0.0054,0.0022 0.0163,0.0067 0.0163,0.0067 0.0098,0.0037 -0.0059,0.0095 -0.0288,0.01475 -0.0093,0.0021 -0.01088,0.0022 -0.01938,0.0038 -0.011,-0.01331 -0.04356,-0.02733 -0.08611,-0.03898 0,0 -7e-6,0 -7e-6,0 z m 0.887165,-0.131288 c 0.0116,0.0028 0.03476,0.0085 0.03476,0.0085 0.05628,0.01309 0.115656,0.0331 0.119017,0.0452 6.93e-4,0.0025 0.0021,0.0075 0.0021,0.0075 0.01398,-0.0014 0.04189,-0.0042 0.04189,-0.0042 0,0 0.0277,-0.0029 0.0516,-0.0069 0.01968,-0.0033 0.02809,-0.0083 0.02334,-0.01351 0.04272,0.0015 0.08604,0.0019 0.11721,5.09e-4 0.03856,-0.0017 0.06674,-0.004 0.06674,-0.004 0.01367,-0.0012 0.04097,-0.0035 0.04097,-0.0035 -0.02034,-7.38e-4 -0.06107,-0.0021 -0.06107,-0.0021 -0.09187,-0.0031 -0.267275,-0.01453 -0.367527,-0.02221 -0.02297,-0.0018 -0.04597,-0.0035 -0.06899,-0.0052 z m 0.09566,0.01242 c 0.08985,0.0065 0.196993,0.0132 0.288711,0.01734 -0.0096,6.27e-4 -0.01022,7.93e-4 -0.02375,0.0014 -0.0332,0.0015 -0.07244,0.0021 -0.100213,2.6e-4 -0.01608,-0.0011 -0.04827,-0.0032 -0.04827,-0.0032 0.0058,0.0021 0.01724,0.0062 0.01724,0.0062 0.01022,0.0035 -0.0034,0.0078 -0.0241,0.01132 -0.0083,0.0014 -0.0099,0.0015 -0.01769,0.0025 -0.01368,-0.0115 -0.04823,-0.02442 -0.09184,-0.03569 0,0 -8.6e-5,-1.5e-5 -8.6e-5,-1.5e-5 z m 0.823851,-0.08747 c 0.01165,0.003 0.0349,0.0089 0.0349,0.0089 0.05638,0.01382 0.116885,0.03418 0.122291,0.0454 0.0011,0.0023 0.0033,0.0069 0.0033,0.0069 0.01314,-8.58e-4 0.03938,-0.0026 0.03938,-0.0026 0,0 0.02604,-0.0018 0.04823,-0.0049 0.01828,-0.0025 0.0255,-0.0069 0.02006,-0.01193 0.04129,0.0026 0.08285,0.0042 0.112542,0.0038 0.03672,-5.35e-4 0.06341,-0.002 0.06341,-0.002 0.01294,-7.65e-4 0.0388,-0.0023 0.0388,-0.0023 -0.01965,-0.0012 -0.05899,-0.0037 -0.05899,-0.0037 -0.08849,-0.0054 -0.25926,-0.02102 -0.356753,-0.03098 -0.02236,-0.0023 -0.04475,-0.0045 -0.06716,-0.0068 z m 0.09409,0.0143 c 0.0873,0.0086 0.191606,0.0179 0.280175,0.0243 -0.0091,3.2e-4 -0.0098,4.71e-4 -0.0226,6.58e-4 -0.03167,5.06e-4 -0.06916,-3.7e-5 -0.09617,-0.0026 -0.01563,-0.0015 -0.04691,-0.0044 -0.04691,-0.0044 0.0059,0.0021 0.01761,0.0063 0.01761,0.0063 0.01041,0.0036 -0.0019,0.0072 -0.02114,0.0098 -0.0077,0.0011 -0.0092,0.0011 -0.01651,0.0018 -0.01515,-0.01105 -0.05058,-0.02411 -0.09442,-0.03589 0,0 -3e-5,1.2e-5 -3e-5,1.2e-5 z m -5.720942,2.970757 c 0.0057,0.01134 0.01683,0.03415 0.01683,0.03415 0.03018,0.05134 0.03876,0.137606 -0.003,0.199602 -0.0086,0.01277 -0.02588,0.03839 -0.02588,0.03839 0.0259,-0.01194 0.0776,-0.03574 0.0776,-0.03574 0,0 0.0518,-0.02425 0.102958,-0.05389 0.04209,-0.02435 0.07385,-0.05337 0.08717,-0.07922 0.05765,-0.0071 0.120563,-0.02057 0.172712,-0.0392 0.06437,-0.02303 0.115935,-0.04589 0.115935,-0.04589 0.02523,-0.01139 0.07558,-0.03406 0.07558,-0.03406 -0.02788,0.0039 -0.08372,0.01168 -0.08372,0.01168 -0.132934,0.0187 -0.335328,0.01878 -0.456628,0.0099 -0.02648,-0.002 -0.053,-0.0039 -0.07957,-0.0057 z m 0.09006,0.03525 c 0.107086,0.0051 0.235875,0.0039 0.358713,-0.0079 -0.0167,0.0067 -0.01855,0.0079 -0.04096,0.01593 -0.05558,0.01994 -0.116039,0.03691 -0.150065,0.03682 -0.01951,-2.46e-4 -0.05859,-6.65e-4 -0.05859,-6.65e-4 4.39e-4,0.0089 0.0013,0.02675 0.0013,0.02675 0.0015,0.01491 -0.03542,0.04223 -0.07965,0.0678 -0.01779,0.01033 -0.02045,0.01124 -0.03561,0.01896 0.02451,-0.05578 0.02429,-0.11243 0.005,-0.157847 0,0 -7.7e-5,1.19e-4 -7.7e-5,1.19e-4 z m 1.570847,-0.75838 c 0.007,0.01017 0.02074,0.03065 0.02074,0.03065 0.03588,0.04627 0.05498,0.12312 0.02196,0.177553 -0.0068,0.01119 -0.02047,0.03368 -0.02047,0.03368 0.02365,-0.01002 0.07084,-0.02993 0.07084,-0.02993 0,0 0.04722,-0.0203 0.09307,-0.04535 0.03773,-0.02056 0.06484,-0.04552 0.0745,-0.06813 0.05482,-0.0047 0.113888,-0.01483 0.16185,-0.02989 0.05921,-0.01852 0.105989,-0.03719 0.105989,-0.03719 0.02287,-0.0093 0.06848,-0.02782 0.06848,-0.02782 -0.02636,0.0025 -0.07916,0.0077 -0.07916,0.0077 -0.125113,0.01241 -0.321808,0.0067 -0.439951,-0.0042 -0.0259,-0.0024 -0.05186,-0.0047 -0.07785,-0.007 z m 0.09184,0.03354 c 0.104264,0.0074 0.228826,0.0099 0.345698,0.0032 -0.01532,0.0055 -0.01685,0.0065 -0.0375,0.01295 -0.0511,0.01601 -0.107396,0.02939 -0.140277,0.02839 -0.01889,-7.55e-4 -0.05672,-0.0022 -0.05672,-0.0022 0.0015,0.0079 0.0045,0.02382 0.0045,0.02382 0.0032,0.0133 -0.029,0.03658 -0.06865,0.0582 -0.01598,0.0087 -0.01839,0.0095 -0.03214,0.01595 0.01694,-0.04914 0.0096,-0.09949 -0.01491,-0.140245 0,0 3.6e-5,-3.3e-5 3.6e-5,-3.3e-5 z m 1.405071,-0.609535 c 0.0082,0.009 0.02446,0.02717 0.02446,0.02717 0.04128,0.04127 0.07075,0.10837 0.04695,0.154368 -0.0049,0.0094 -0.01476,0.02842 -0.01476,0.02842 0.02115,-0.0077 0.06333,-0.02309 0.06333,-0.02309 0,0 0.04215,-0.01567 0.08223,-0.03544 0.033,-0.01623 0.05522,-0.03667 0.06112,-0.0558 0.05149,-0.0017 0.106235,-0.0079 0.149616,-0.01872 0.05359,-0.01332 0.09526,-0.02734 0.09526,-0.02734 0.02035,-0.007 0.06091,-0.02086 0.06091,-0.02086 -0.02464,9.59e-4 -0.07403,0.003 -0.07403,0.003 -0.1162,0.0049 -0.305833,-0.0084 -0.419625,-0.02256 -0.0251,-0.0031 -0.05025,-0.0062 -0.07545,-0.0092 z m 0.09278,0.03255 c 0.100473,0.01059 0.219834,0.01813 0.329764,0.0175 -0.01378,0.004 -0.01503,0.0048 -0.03375,0.0094 -0.04622,0.01152 -0.09788,0.02067 -0.129319,0.01842 -0.0181,-0.0015 -0.05435,-0.0043 -0.05435,-0.0043 0.0026,0.0069 0.0077,0.02076 0.0077,0.02076 0.0051,0.01162 -0.0223,0.0304 -0.05698,0.04747 -0.01398,0.0069 -0.01615,0.0074 -0.02834,0.01248 0.0091,-0.04191 -0.0052,-0.08569 -0.03478,-0.121784 0,0 2.1e-5,6.3e-5 2.1e-5,6.3e-5 z m 1.236039,-0.453079 c 0.0093,0.008 0.02764,0.02417 0.02764,0.02417 0.04585,0.037 0.08452,0.0953 0.0694,0.133202 -0.0031,0.0078 -0.0094,0.02338 -0.0094,0.02338 0.01868,-0.0054 0.0559,-0.01619 0.0559,-0.01619 0,0 0.03715,-0.01102 0.07166,-0.0256 0.02842,-0.01196 0.04601,-0.02807 0.04846,-0.04397 0.04809,0.0014 0.09849,-7.2e-4 0.137419,-0.0074 0.04809,-0.0083 0.08488,-0.0177 0.08488,-0.0177 0.01794,-0.0048 0.05368,-0.01413 0.05368,-0.01413 -0.02292,-6.29e-4 -0.06887,-0.0018 -0.06887,-0.0018 -0.107112,-0.0025 -0.289381,-0.02447 -0.398108,-0.0423 -0.02418,-0.004 -0.04841,-0.0079 -0.07269,-0.01172 z m 0.09292,0.03233 c 0.09618,0.01427 0.210059,0.02729 0.312843,0.03302 -0.01232,0.0026 -0.01327,0.0032 -0.03013,0.0061 -0.04148,0.0072 -0.08853,0.01199 -0.118432,0.0084 -0.01724,-0.0022 -0.05178,-0.0066 -0.05178,-0.0066 0.0036,0.006 0.01073,0.01801 0.01073,0.01801 0.0066,0.01013 -0.01605,0.02454 -0.04593,0.03712 -0.01207,0.0051 -0.01398,0.0054 -0.02465,0.0091 0.0018,-0.03512 -0.01875,-0.07293 -0.0526,-0.104984 0,0 -6.6e-5,-8.2e-5 -6.6e-5,-8.2e-5 z m 1.08029,-0.308683 c 0.01006,0.0073 0.03006,0.02192 0.03006,0.02192 0.04932,0.03383 0.0953,0.08519 0.08763,0.116233 -0.0016,0.0063 -0.0048,0.0191 -0.0048,0.0191 0.01646,-0.0034 0.04927,-0.01006 0.04927,-0.01006 0,0 0.03269,-0.0069 0.06231,-0.01696 0.0244,-0.0082 0.03801,-0.02069 0.03758,-0.03391 0.04493,0.0043 0.09138,0.0058 0.126351,0.0027 0.04324,-0.0038 0.07577,-0.0093 0.07577,-0.0093 0.01583,-0.0028 0.0474,-0.0084 0.0474,-0.0084 -0.02136,-0.002 -0.06418,-0.006 -0.06418,-0.006 -0.09861,-0.009 -0.274117,-0.03955 -0.377548,-0.06101 -0.02323,-0.0048 -0.04652,-0.0096 -0.06985,-0.01426 z m 0.09234,0.03282 c 0.09184,0.01792 0.200547,0.03626 0.296638,0.04778 -0.011,0.0014 -0.01177,0.0018 -0.02693,0.0032 -0.0373,0.0033 -0.08019,0.0043 -0.108602,-6.38e-4 -0.01641,-0.003 -0.04929,-0.0089 -0.04929,-0.0089 0.0044,0.0053 0.01303,0.01584 0.01303,0.01584 0.0079,0.009 -0.01074,0.01962 -0.03638,0.02831 -0.01036,0.0035 -0.01208,0.0037 -0.02141,0.006 -0.0042,-0.02949 -0.02986,-0.06256 -0.06705,-0.09154 0,0 -7e-6,-1.3e-5 -7e-6,-1.3e-5 z m 0.949289,-0.190388 c 0.0106,0.0068 0.03168,0.02052 0.03168,0.02052 0.05162,0.03191 0.102791,0.07856 0.100873,0.104529 -3.83e-4,0.0053 -0.0012,0.01595 -0.0012,0.01595 0.01465,-0.0018 0.04385,-0.0053 0.04385,-0.0053 0,0 0.02905,-0.0037 0.05475,-0.01027 0.02117,-0.0054 0.0317,-0.01511 0.02911,-0.02643 0.04224,0.0067 0.08541,0.01105 0.117212,0.01074 0.03932,-3.79e-4 0.06846,-0.003 0.06846,-0.003 0.01417,-0.0014 0.04243,-0.004 0.04243,-0.004 -0.02006,-0.0032 -0.06027,-0.0094 -0.06027,-0.0094 -0.09141,-0.01411 -0.261145,-0.05214 -0.359623,-0.07676 -0.02237,-0.0056 -0.04479,-0.01113 -0.06726,-0.01661 z m 0.09127,0.0338 c 0.08783,0.02112 0.192107,0.04406 0.282471,0.06023 -0.0099,5.41e-4 -0.0106,7.78e-4 -0.02437,9.31e-4 -0.03392,3.61e-4 -0.0734,-0.0016 -0.1005,-0.0077 -0.01567,-0.0036 -0.04707,-0.01085 -0.04707,-0.01085 0.0049,0.0048 0.01473,0.01436 0.01473,0.01436 0.0088,0.0082 -0.0067,0.01602 -0.02891,0.0217 -0.009,0.0023 -0.01056,0.0023 -0.01876,0.0037 -0.0089,-0.02541 -0.0381,-0.05525 -0.07753,-0.0823 0,0 -6e-5,-6.9e-5 -6e-5,-6.9e-5 z m 0.84913,-0.106034 c 0.01089,0.0066 0.03257,0.01992 0.03257,0.01992 0.05284,0.03114 0.107175,0.07531 0.10924,0.09816 4.24e-4,0.0046 0.0012,0.01399 0.0012,0.01399 0.01331,-6.88e-4 0.03986,-0.002 0.03986,-0.002 0,0 0.02638,-0.0015 0.04927,-0.0059 0.01886,-0.0035 0.02724,-0.01156 0.0232,-0.02178 0.04017,0.0083 0.08086,0.01468 0.110355,0.01614 0.03645,0.0018 0.06321,0.0011 0.06321,0.0011 0.01298,-4.55e-4 0.0389,-0.0013 0.0389,-0.0013 -0.01909,-0.0039 -0.05734,-0.01171 -0.05734,-0.01171 -0.08628,-0.01745 -0.250739,-0.0611 -0.345432,-0.08823 -0.02164,-0.0062 -0.04333,-0.01233 -0.06507,-0.01842 z m 0.08995,0.03502 c 0.08459,0.02358 0.185213,0.04995 0.271235,0.06934 -0.0091,-7.1e-5 -0.0098,1.13e-4 -0.02252,-5.2e-4 -0.03148,-0.0015 -0.0684,-0.0055 -0.09447,-0.01254 -0.01508,-0.0041 -0.04528,-0.01229 -0.04528,-0.01229 0.0053,0.0045 0.01575,0.01359 0.01575,0.01359 0.0093,0.0077 -0.0039,0.01384 -0.02367,0.01757 -0.008,0.0015 -0.0095,0.0015 -0.01686,0.0022 -0.01191,-0.02299 -0.04345,-0.0511 -0.08414,-0.07729 0,0 -3.8e-5,-5.8e-5 -3.8e-5,-5.8e-5 z m 0.781073,-0.0577 c 0.01099,0.0066 0.03286,0.01996 0.03286,0.01996 0.0532,0.03127 0.109041,0.07487 0.113428,0.0964 8.91e-4,0.0044 0.0026,0.01316 0.0026,0.01316 0.01244,-1.37e-4 0.0373,-3.91e-4 0.0373,-3.91e-4 0,0 0.02468,-4.48e-4 0.04581,-0.0037 0.01741,-0.0027 0.02452,-0.01 0.01969,-0.01982 0.03879,0.0092 0.07783,0.01656 0.105911,0.0189 0.03468,0.0029 0.05995,0.003 0.05995,0.003 0.01226,-6.5e-5 0.03676,-1.88e-4 0.03676,-1.88e-4 -0.01846,-0.0043 -0.05542,-0.01283 -0.05542,-0.01283 -0.08375,-0.01929 -0.242833,-0.0658 -0.335519,-0.09476 -0.0211,-0.0066 -0.04224,-0.01315 -0.06342,-0.01965 z m 0.08865,0.03619 c 0.08238,0.02517 0.180056,0.05346 0.263358,0.07457 -0.0086,-3.48e-4 -0.0093,-1.88e-4 -0.02137,-0.0012 -0.02995,-0.0024 -0.0652,-0.0074 -0.09056,-0.01493 -0.01466,-0.0044 -0.04403,-0.01319 -0.04403,-0.01319 0.0054,0.0045 0.01625,0.01341 0.01625,0.01341 0.0096,0.0076 -0.0023,0.01298 -0.02053,0.0158 -0.0073,0.0012 -0.0088,0.001 -0.01567,0.0014 -0.0136,-0.02208 -0.04629,-0.04976 -0.08744,-0.07594 0,0 -6e-6,1.6e-5 -6e-6,1.6e-5 z m -6.027941,3.899962 c 0.0022,0.01908 0.0065,0.05736 0.0065,0.05736 0.01421,0.08737 -2.12e-4,0.223764 -0.05385,0.310208 -0.01107,0.01784 -0.03327,0.05357 -0.03327,0.05357 0.02663,-0.01263 0.07979,-0.03783 0.07979,-0.03783 0,0 0.05336,-0.02585 0.10754,-0.06033 0.04456,-0.02828 0.0809,-0.06619 0.09969,-0.103443 0.05436,0.002 0.115178,-0.0049 0.167499,-0.02217 0.06458,-0.02139 0.117488,-0.04549 0.117488,-0.04549 0.02593,-0.01211 0.07769,-0.03622 0.07769,-0.03622 -0.02641,-2.18e-4 -0.07933,-5.35e-4 -0.07933,-5.35e-4 -0.1262,-8.11e-4 -0.310131,-0.04626 -0.418677,-0.08797 -0.02363,-0.0091 -0.04731,-0.01816 -0.07104,-0.02715 z m 0.07294,0.07582 c 0.09635,0.03245 0.213889,0.05976 0.328946,0.06897 -0.01694,0.0068 -0.01901,0.0082 -0.04146,0.01572 -0.05579,0.01853 -0.115266,0.03139 -0.146279,0.02364 -0.01773,-0.0048 -0.05325,-0.01422 -0.05325,-0.01422 -0.0019,0.01397 -0.0058,0.04196 -0.0058,0.04196 -0.0025,0.02355 -0.04312,0.0577 -0.08994,0.08745 -0.01884,0.01206 -0.02151,0.01281 -0.03729,0.02137 0.03649,-0.08094 0.05087,-0.169332 0.04505,-0.24483 0,0 1.6e-5,-5.3e-5 1.6e-5,-5.3e-5 z m 1.633961,-0.847675 c 0.0035,0.0179 0.01038,0.05385 0.01038,0.05385 0.01986,0.08231 0.01609,0.209298 -0.02865,0.288358 -0.0092,0.01629 -0.02775,0.04896 -0.02775,0.04896 0.02426,-0.01071 0.07264,-0.03201 0.07264,-0.03201 0,0 0.04852,-0.02192 0.09709,-0.05174 0.03996,-0.02448 0.07145,-0.05829 0.08644,-0.09226 0.05124,0.0044 0.107839,0.0011 0.155661,-0.01252 0.05904,-0.01678 0.106817,-0.03656 0.106817,-0.03656 0.02341,-0.01 0.07008,-0.02977 0.07008,-0.02977 -0.02473,-0.0016 -0.0743,-0.0047 -0.0743,-0.0047 -0.118044,-0.0072 -0.294507,-0.05887 -0.39952,-0.102948 -0.0229,-0.0096 -0.04586,-0.01917 -0.06888,-0.02867 z m 0.07428,0.07427 c 0.09299,0.03492 0.20546,0.06622 0.313985,0.08063 -0.01544,0.0055 -0.01716,0.0067 -0.03774,0.01259 -0.05095,0.01447 -0.105919,0.02364 -0.135606,0.01489 -0.017,-0.0053 -0.05107,-0.01588 -0.05107,-0.01588 -7.89e-4,0.01298 -0.0024,0.03901 -0.0024,0.03901 -7.24e-4,0.02192 -0.03642,0.052 -0.07841,0.07774 -0.01689,0.01037 -0.01936,0.01111 -0.03362,0.01835 0.0288,-0.0744 0.03601,-0.15645 0.02487,-0.227269 0,0 2.6e-5,-6e-5 2.6e-5,-6e-5 z m 1.452092,-0.688003 c 0.0049,0.01653 0.01456,0.04974 0.01456,0.04974 0.02594,0.07636 0.03386,0.19198 -7.06e-4,0.261679 -0.0071,0.01433 -0.02144,0.04311 -0.02144,0.04311 0.02152,-0.0083 0.0644,-0.02467 0.0644,-0.02467 0,0 0.04295,-0.01693 0.08519,-0.04105 0.03476,-0.01976 0.06082,-0.04859 0.0716,-0.07861 0.04764,0.0075 0.09953,0.0082 0.142349,-8.64e-4 0.05287,-0.01126 0.09502,-0.02597 0.09502,-0.02597 0.02063,-0.0075 0.06174,-0.02223 0.06174,-0.02223 -0.02289,-0.0032 -0.06878,-0.0094 -0.06878,-0.0094 -0.108941,-0.01476 -0.276873,-0.074 -0.37769,-0.121018 -0.02203,-0.0103 -0.04412,-0.02055 -0.06626,-0.03073 z m 0.07546,0.07258 c 0.08902,0.03801 0.195688,0.07417 0.296866,0.09478 -0.01372,0.0039 -0.01518,0.0049 -0.03361,0.0089 -0.04562,0.0097 -0.09548,0.01436 -0.123643,0.0044 -0.01616,-0.006 -0.04854,-0.01789 -0.04854,-0.01789 4.48e-4,0.0118 0.0013,0.03546 0.0013,0.03546 0.0013,0.01999 -0.02896,0.04509 -0.0655,0.06589 -0.01472,0.0084 -0.01688,0.0088 -0.02945,0.01459 0.02008,-0.06627 0.01935,-0.140687 0.0026,-0.205981 0,0 9e-6,-7.4e-5 9e-6,-7.4e-5 z m 1.263423,-0.514232 c 0.0062,0.01519 0.01848,0.04571 0.01848,0.04571 0.0316,0.07053 0.05063,0.174893 0.02606,0.234986 -0.005,0.01234 -0.01524,0.03713 -0.01524,0.03713 0.01878,-0.0057 0.05621,-0.0171 0.05621,-0.0171 0,0 0.03742,-0.01183 0.07343,-0.03011 0.02964,-0.01499 0.05043,-0.03879 0.05719,-0.06489 0.04407,0.01068 0.09132,0.01551 0.129277,0.01085 0.04688,-0.0058 0.08364,-0.01548 0.08364,-0.01548 0.01796,-0.005 0.05375,-0.01482 0.05375,-0.01482 -0.02109,-0.0048 -0.06338,-0.01417 -0.06338,-0.01417 -0.100097,-0.0222 -0.259399,-0.0892 -0.355853,-0.139309 -0.02114,-0.01099 -0.04232,-0.02192 -0.06356,-0.0328 z m 0.0763,0.07107 c 0.08492,0.0412 0.185745,0.08236 0.279683,0.109172 -0.01208,0.0024 -0.01325,0.0031 -0.02961,0.0052 -0.04044,0.005 -0.0853,0.0051 -0.111932,-0.0061 -0.01531,-0.0067 -0.04598,-0.01999 -0.04598,-0.01999 0.0016,0.01063 0.0048,0.03194 0.0048,0.03194 0.0032,0.01806 -0.02176,0.03817 -0.05292,0.05393 -0.01254,0.0063 -0.01448,0.0066 -0.02534,0.01077 0.0116,-0.05803 0.0034,-0.124882 -0.01868,-0.184763 0,0 -9e-6,-6.3e-5 -9e-6,-6.3e-5 z m 1.090005,-0.352729 c 0.0073,0.01404 0.02176,0.04225 0.02176,0.04225 0.03634,0.06553 0.0648,0.160107 0.04901,0.211693 -0.0032,0.01058 -0.0098,0.03183 -0.0098,0.03183 0.01635,-0.0035 0.04895,-0.0104 0.04895,-0.0104 0,0 0.03255,-0.0073 0.06312,-0.02052 0.02517,-0.01081 0.04141,-0.03025 0.04471,-0.05295 0.04096,0.01326 0.08413,0.02175 0.117899,0.02089 0.04171,-0.0011 0.07386,-0.0066 0.07386,-0.0066 0.01569,-0.0029 0.04695,-0.0086 0.04695,-0.0086 -0.01955,-0.0061 -0.05875,-0.01816 -0.05875,-0.01816 -0.09256,-0.0284 -0.244073,-0.102049 -0.336611,-0.154852 -0.02031,-0.01159 -0.04066,-0.02313 -0.06106,-0.03462 z m 0.0768,0.06982 c 0.08121,0.04397 0.176836,0.08944 0.264489,0.121456 -0.01065,0.0011 -0.01164,0.0017 -0.02619,0.0021 -0.03599,9.41e-4 -0.07648,-0.0029 -0.101743,-0.01522 -0.01454,-0.0073 -0.04368,-0.02189 -0.04368,-0.02189 0.0026,0.0096 0.0078,0.0289 0.0078,0.0289 0.0049,0.01638 -0.01556,0.03215 -0.04201,0.04353 -0.01065,0.0046 -0.01237,0.0047 -0.02173,0.0074 0.0043,-0.0508 -0.0104,-0.111087 -0.03688,-0.166314 0,0 -2e-5,3.4e-5 -2e-5,3.4e-5 z m 0.947495,-0.222963 c 0.0081,0.01315 0.02428,0.03957 0.02428,0.03957 0.04003,0.0616 0.07583,0.14857 0.06695,0.193548 -0.0018,0.0092 -0.0056,0.02771 -0.0056,0.02771 0.01445,-0.0018 0.04326,-0.0053 0.04326,-0.0053 0,0 0.02873,-0.0039 0.05507,-0.01333 0.0217,-0.0077 0.0344,-0.02385 0.03502,-0.04395 0.03857,0.01515 0.07864,0.02613 0.109245,0.02789 0.03778,0.0022 0.06646,-2.36e-4 0.06646,-2.36e-4 0.01397,-0.0014 0.04183,-0.0042 0.04183,-0.0042 -0.01842,-0.007 -0.05531,-0.02081 -0.05531,-0.02081 -0.08717,-0.03261 -0.232397,-0.110497 -0.322105,-0.165148 -0.01968,-0.01196 -0.03939,-0.02387 -0.05914,-0.03575 z m 0.07718,0.06862 c 0.07839,0.04583 0.169998,0.09414 0.252982,0.129668 -0.0095,1.5e-4 -0.01043,6.45e-4 -0.02359,-2.02e-4 -0.03261,-0.002 -0.06977,-0.0085 -0.094,-0.02157 -0.01397,-0.0077 -0.04195,-0.02304 -0.04195,-0.02304 0.0034,0.0088 0.01008,0.02653 0.01008,0.02653 0.0061,0.01508 -0.01074,0.02762 -0.03354,0.03569 -0.0092,0.0032 -0.01073,0.0031 -0.01892,0.0049 -0.0015,-0.04519 -0.02114,-0.1004 -0.05106,-0.151988 0,0 -4e-6,1.7e-5 -4e-6,1.7e-5 z m 0.84424,-0.135974 c 0.0087,0.0125 0.02614,0.03759 0.02614,0.03759 0.04275,0.05864 0.08391,0.140209 0.07993,0.180742 -8.23e-4,0.0083 -0.0025,0.02495 -0.0025,0.02495 0.01315,-7.9e-4 0.03941,-0.0023 0.03941,-0.0023 0,0 0.02615,-0.0019 0.04964,-0.009 0.01935,-0.0058 0.02964,-0.0199 0.02837,-0.0383 0.03712,0.01599 0.07524,0.02816 0.103834,0.03137 0.03528,0.004 0.06175,0.0031 0.06175,0.0031 0.01287,-6.13e-4 0.03858,-0.0018 0.03858,-0.0018 -0.01776,-0.0073 -0.05331,-0.02174 -0.05331,-0.02174 -0.08444,-0.03444 -0.225293,-0.113165 -0.313782,-0.168437 -0.01932,-0.01208 -0.03867,-0.02413 -0.05805,-0.03614 z m 0.07777,0.06714 c 0.07685,0.04636 0.165978,0.09551 0.246323,0.132387 -0.0088,-3.42e-4 -0.0097,-1.2e-5 -0.02193,-0.0014 -0.03047,-0.0034 -0.06547,-0.01146 -0.08913,-0.02471 -0.01365,-0.0078 -0.04096,-0.02343 -0.04096,-0.02343 0.0039,0.0083 0.01177,0.02486 0.01177,0.02486 0.0071,0.01416 -0.0074,0.02469 -0.02773,0.03079 -0.0082,0.0024 -0.0096,0.0022 -0.01703,0.0034 -0.0056,-0.04139 -0.02885,-0.09301 -0.06131,-0.14192 0,0 -1.1e-5,-1.3e-5 -1.1e-5,-1.3e-5 z m 0.781728,-0.09464 c 0.0092,0.01201 0.02755,0.0361 0.02755,0.0361 0.04485,0.05631 0.08983,0.134242 0.08895,0.172309 -1.91e-4,0.0078 -6.08e-4,0.02344 -6.08e-4,0.02344 0.01247,-4.59e-4 0.03739,-0.0014 0.03739,-0.0014 0,0 0.0248,-0.0013 0.04676,-0.0076 0.0181,-0.0052 0.02698,-0.01833 0.02452,-0.03578 0.03667,0.0157 0.07402,0.02769 0.101742,0.03108 0.03418,0.0042 0.05963,0.0035 0.05963,0.0035 0.01236,-4.87e-4 0.03709,-0.0015 0.03709,-0.0015 -0.01761,-0.007 -0.0528,-0.02107 -0.0528,-0.02107 -0.08441,-0.03374 -0.223178,-0.109522 -0.312291,-0.163861 -0.01929,-0.01178 -0.0386,-0.02354 -0.05793,-0.03529 z m 0.07891,0.06499 c 0.07679,0.04532 0.165181,0.09301 0.245036,0.128926 -0.0085,-4.12e-4 -0.0094,-9e-5 -0.02117,-0.0015 -0.02953,-0.0036 -0.0636,-0.01164 -0.08719,-0.02463 -0.0136,-0.0076 -0.04082,-0.02273 -0.04082,-0.02273 0.0043,0.0079 0.01296,0.02372 0.01296,0.02372 0.0077,0.0135 -0.0054,0.02325 -0.02438,0.02866 -0.0076,0.0022 -0.0091,0.002 -0.01602,0.0029 -0.0082,-0.03915 -0.03404,-0.08841 -0.0684,-0.135323 0,0 -1.6e-5,-4.3e-5 -1.6e-5,-4.3e-5 z m -6.485573,5.131128 c 0.0017,0.02333 0.0051,0.06978 0.0051,0.06978 0.01248,0.106009 -0.0015,0.264562 -0.05311,0.358139 -0.01072,0.01943 -0.03205,0.0581 -0.03205,0.0581 0.02647,-0.01213 0.0794,-0.0364 0.0794,-0.0364 0,0 0.05311,-0.02502 0.106967,-0.06002 0.04429,-0.0287 0.08016,-0.06921 0.0986,-0.110779 0.05483,0.0067 0.11611,0.0037 0.168695,-0.0122 0.06489,-0.01959 0.118031,-0.0434 0.118031,-0.0434 0.02604,-0.01199 0.07806,-0.03596 0.07806,-0.03596 -0.02671,-0.0023 -0.08015,-0.0069 -0.08015,-0.0069 -0.129368,-0.01102 -0.310727,-0.07937 -0.419463,-0.140806 -8.03e-4,-4.53e-4 -0.06928,-0.03912 -0.07008,-0.03957 z m 0.0711,0.09819 c 0.09614,0.04793 0.213439,0.08982 0.330053,0.109848 -0.01698,0.0065 -0.01913,0.008 -0.04163,0.01483 -0.05606,0.017 -0.115873,0.02705 -0.147136,0.01542 -0.01788,-0.007 -0.05362,-0.02113 -0.05362,-0.02113 -0.0019,0.01618 -0.0055,0.04841 -0.0055,0.04841 -0.0023,0.02715 -0.04268,0.06319 -0.08928,0.09346 -0.01867,0.01211 -0.0215,0.01303 -0.03715,0.02143 0.03494,-0.08945 0.04916,-0.191842 0.04431,-0.282322 0,0 -2.9e-5,3.8e-5 -2.9e-5,3.8e-5 z m 1.664264,-0.896969 c 0.0025,0.02295 0.0075,0.06875 0.0075,0.06875 0.01578,0.104743 0.008,0.26121 -0.03822,0.352874 -0.0096,0.01902 -0.0288,0.05701 -0.0288,0.05701 0.02475,-0.01124 0.07414,-0.03365 0.07414,-0.03365 0,0 0.04955,-0.02314 0.09932,-0.05598 0.04095,-0.02695 0.07344,-0.06577 0.08937,-0.106175 0.05193,0.0087 0.10956,0.0082 0.15846,-0.0053 0.06038,-0.01673 0.109396,-0.03792 0.109396,-0.03792 0.02401,-0.01071 0.07192,-0.03204 0.07192,-0.03204 -0.02519,-0.0034 -0.0756,-0.01013 -0.0756,-0.01013 -0.12206,-0.01626 -0.29533,-0.09086 -0.400072,-0.15564 -0.0011,-6.6e-4 -0.06636,-0.04113 -0.06742,-0.04179 z m 0.07073,0.09934 c 0.09236,0.05103 0.204327,0.09701 0.314833,0.121513 -0.01574,0.0057 -0.01765,0.0071 -0.03861,0.01293 -0.05211,0.01448 -0.108106,0.02204 -0.137978,0.0093 -0.0171,-0.0077 -0.05129,-0.02298 -0.05129,-0.02298 -0.0012,0.01589 -0.0035,0.04762 -0.0035,0.04762 -0.0012,0.02675 -0.03809,0.06094 -0.08115,0.08931 -0.01728,0.01139 -0.01988,0.01219 -0.03443,0.01996 0.03035,-0.08787 0.04012,-0.188449 0.03212,-0.277669 0,0 -1.8e-5,-2e-6 -1.8e-5,-2e-6 z m 1.502468,-0.776215 c 0.0039,0.02171 0.01164,0.06507 0.01164,0.06507 0.02172,0.09947 0.0249,0.246669 -0.01212,0.331046 -0.0077,0.01752 -0.02308,0.05255 -0.02308,0.05255 0.02227,-0.0093 0.06668,-0.02785 0.06668,-0.02785 0,0 0.04449,-0.0192 0.08847,-0.04745 0.03618,-0.02316 0.06368,-0.05796 0.07568,-0.09509 0.0486,0.0114 0.101908,0.01416 0.146193,0.0043 0.05466,-0.01215 0.09842,-0.02908 0.09842,-0.02908 0.02142,-0.0086 0.06412,-0.02568 0.06412,-0.02568 -0.0235,-0.0047 -0.07052,-0.01407 -0.07052,-0.01407 -0.113976,-0.02268 -0.279014,-0.103126 -0.380286,-0.170415 -9.44e-4,-6.27e-4 -0.06426,-0.0427 -0.0652,-0.04332 z m 0.07214,0.09766 c 0.08885,0.05359 0.19542,0.103482 0.299266,0.133154 -0.01419,0.0045 -0.01579,0.0056 -0.03475,0.0097 -0.04713,0.01048 -0.09841,0.01429 -0.126899,5.51e-4 -0.01633,-0.0082 -0.04899,-0.02466 -0.04899,-0.02466 -4e-6,0.0149 -1e-5,0.04468 -1e-5,0.04468 6.86e-4,0.02515 -0.03115,0.05526 -0.0692,0.07964 -0.01529,0.0098 -0.01762,0.01041 -0.0306,0.01693 0.02245,-0.0815 0.02471,-0.175696 0.01121,-0.260087 0,0 -3e-5,5.8e-5 -3e-5,5.8e-5 z m 1.317511,-0.617182 c 0.0055,0.0201 0.01636,0.06026 0.01636,0.06026 0.02857,0.09242 0.04435,0.227266 0.0177,0.30208 -0.0055,0.01553 -0.01663,0.04663 -0.01663,0.04663 0.01962,-0.007 0.05871,-0.02097 0.05871,-0.02097 0,0 0.03911,-0.01455 0.07691,-0.03734 0.03112,-0.01869 0.05322,-0.04857 0.06092,-0.08164 0.04548,0.0138 0.0945,0.0201 0.134156,0.01417 0.04893,-0.0072 0.08743,-0.01955 0.08743,-0.01955 0.01882,-0.0063 0.05632,-0.01883 0.05632,-0.01883 -0.02193,-0.0059 -0.0658,-0.01776 -0.0658,-0.01776 -0.106578,-0.02878 -0.264127,-0.113778 -0.362728,-0.182714 -6.27e-4,-4.38e-4 -0.06272,-0.04389 -0.06335,-0.04433 z m 0.07447,0.09442 c 0.08593,0.05539 0.187667,0.108482 0.285387,0.142908 -0.01257,0.003 -0.01391,0.0039 -0.03091,0.0065 -0.04218,0.0062 -0.08874,0.0061 -0.116018,-0.0085 -0.01566,-0.0087 -0.04697,-0.02601 -0.04697,-0.02601 0.0013,0.01361 0.0039,0.04082 0.0039,0.04082 0.0028,0.02302 -0.02363,0.0483 -0.05635,0.06796 -0.01317,0.008 -0.01521,0.0083 -0.02655,0.01337 0.01345,-0.0731 0.0073,-0.158999 -0.01251,-0.237029 0,0 -2.2e-5,1.4e-5 -2.2e-5,1.4e-5 z m 1.143971,-0.461533 c 0.007,0.01846 0.0209,0.05533 0.0209,0.05533 0.03526,0.08509 0.06311,0.207358 0.04611,0.272782 -0.0035,0.01358 -0.01065,0.04077 -0.01065,0.04077 0.01727,-0.005 0.05172,-0.01479 0.05172,-0.01479 0,0 0.0344,-0.01037 0.06678,-0.02827 0.02667,-0.01465 0.04395,-0.04 0.04768,-0.06915 0.04311,0.01546 0.0887,0.02446 0.124507,0.02188 0.04421,-0.0032 0.07835,-0.01174 0.07835,-0.01174 0.01665,-0.0044 0.04987,-0.0132 0.04987,-0.0132 -0.02077,-0.0068 -0.06227,-0.02031 -0.06227,-0.02031 -0.10133,-0.03308 -0.253373,-0.1197 -0.350755,-0.18892 -0.02076,-0.01477 -0.04151,-0.02957 -0.06224,-0.04439 z m 0.07743,0.09016 c 0.08419,0.0559 0.182525,0.110497 0.275827,0.147948 -0.01123,0.0019 -0.01238,0.0026 -0.02773,0.0037 -0.03809,0.0027 -0.0808,-5.57e-4 -0.107272,-0.0155 -0.01523,-0.0089 -0.04565,-0.02659 -0.04565,-0.02659 0.0026,0.01231 0.0077,0.03691 0.0077,0.03691 0.0049,0.02086 -0.01683,0.04175 -0.04486,0.05716 -0.01127,0.0062 -0.01311,0.0064 -0.02299,0.01017 0.0051,-0.06476 -0.0092,-0.142363 -0.035,-0.213852 0,0 -1.5e-5,1.9e-5 -1.5e-5,1.9e-5 z m 1.00722,-0.341371 c 0.0083,0.01691 0.02504,0.0507 0.02504,0.0507 0.0414,0.07807 0.07984,0.189118 0.07072,0.246708 -0.0019,0.01197 -0.0057,0.03594 -0.0057,0.03594 0.01559,-0.0036 0.0467,-0.01064 0.0467,-0.01064 0,0 0.03102,-0.0076 0.05946,-0.02204 0.02342,-0.01184 0.03699,-0.03374 0.03752,-0.05968 0.04192,0.01591 0.08555,0.02594 0.118921,0.02515 0.04117,-9.88e-4 0.07243,-0.0073 0.07243,-0.0073 0.01522,-0.0033 0.04561,-0.0099 0.04561,-0.0099 -0.02025,-0.0069 -0.06069,-0.02064 -0.06069,-0.02064 -0.09947,-0.03399 -0.24914,-0.117969 -0.347527,-0.185368 -0.02085,-0.0143 -0.04166,-0.02864 -0.06245,-0.04301 z m 0.08123,0.08478 c 0.08428,0.0544 0.181519,0.107792 0.273091,0.145391 -0.01031,0.0011 -0.01141,0.0018 -0.02565,0.0021 -0.03549,8.35e-4 -0.07578,-0.0041 -0.102086,-0.01871 -0.01515,-0.0086 -0.0454,-0.02597 -0.0454,-0.02597 0.0036,0.01115 0.01094,0.03344 0.01094,0.03344 0.0067,0.01893 -0.01146,0.0366 -0.03606,0.04903 -0.0099,0.0051 -0.01159,0.005 -0.02042,0.008 -0.0019,-0.05773 -0.02311,-0.127946 -0.05442,-0.193321 0,0 3e-6,6e-6 3e-6,6e-6 z m 0.920993,-0.275438 c 0.0096,0.01546 0.02887,0.04633 0.02887,0.04633 0.0472,0.07129 0.09484,0.172471 0.09152,0.224462 -6.94e-4,0.01082 -0.0021,0.03247 -0.0021,0.03247 0.01472,-0.0031 0.04414,-0.0092 0.04414,-0.0092 0,0 0.0293,-0.0066 0.05553,-0.01955 0.02161,-0.01061 0.03276,-0.03043 0.03084,-0.05398 0.04227,0.01453 0.08568,0.02371 0.118248,0.02292 0.04013,-9.81e-4 0.07021,-0.0069 0.07021,-0.0069 0.01461,-0.0031 0.04385,-0.0093 0.04385,-0.0093 -0.02051,-0.0061 -0.06141,-0.01844 -0.06141,-0.01844 -0.101591,-0.03078 -0.253112,-0.106617 -0.355368,-0.169219 -0.0215,-0.01316 -0.04295,-0.02637 -0.06435,-0.03964 z m 0.08636,0.0778 c 0.08678,0.0502 0.185878,0.0989 0.279033,0.132945 -0.0099,0.0011 -0.01103,0.0017 -0.02486,0.002 -0.03461,8.3e-4 -0.07425,-0.0037 -0.101206,-0.01709 -0.01554,-0.0079 -0.04653,-0.02376 -0.04653,-0.02376 0.0046,0.01015 0.01374,0.03042 0.01374,0.03042 0.0083,0.01721 -0.0077,0.03317 -0.03038,0.04427 -0.0091,0.0044 -0.01077,0.0045 -0.01903,0.0071 -0.0073,-0.05233 -0.03442,-0.116213 -0.07077,-0.175866 0,0 -4e-6,2.3e-5 -4e-6,2.3e-5 z m 0.887768,-0.268948 c 0.0109,0.01398 0.03273,0.04186 0.03273,0.04186 0.05318,0.06424 0.109386,0.156176 0.110138,0.204462 1.58e-4,0.01006 4.68e-4,0.03019 4.68e-4,0.03019 0.01466,-0.0035 0.04402,-0.01047 0.04402,-0.01047 0,0 0.0292,-0.0075 0.0549,-0.02078 0.02116,-0.01091 0.031,-0.02992 0.02725,-0.05175 0.04424,0.01137 0.08927,0.01751 0.122608,0.01491 0.04105,-0.0032 0.07154,-0.01057 0.07154,-0.01057 0.01479,-0.0038 0.04443,-0.01141 0.04443,-0.01141 -0.02158,-0.0044 -0.06453,-0.01337 -0.06453,-0.01337 -0.107775,-0.02285 -0.266059,-0.08486 -0.375381,-0.138926 -0.02279,-0.0113 -0.04551,-0.02268 -0.06817,-0.03414 z m 0.09339,0.06858 c 0.09203,0.04282 0.196309,0.08295 0.294554,0.109392 -0.01003,0.0016 -0.01123,0.0022 -0.02531,0.0033 -0.03541,0.0027 -0.07617,6.35e-4 -0.104701,-0.0104 -0.01644,-0.0065 -0.04921,-0.01975 -0.04921,-0.01975 0.0054,0.0092 0.01632,0.02763 0.01632,0.02763 0.0097,0.0156 -0.0053,0.03124 -0.02747,0.04264 -0.0089,0.0046 -0.0106,0.0046 -0.01877,0.0075 -0.01151,-0.04823 -0.04399,-0.106359 -0.0854,-0.160205 0,0 -8e-6,-1.14e-4 -8e-6,-1.14e-4 z"
                   id="path9" />
              </g>
            </g>
          </g>
        </g>
        <g
           ns1:text="\(\textrm{\textbf{X}}\)"
           transform="matrix(0.1,0,0,0.1,163.13431,6.5361593)"
           id="g28"
           style="fill:#ffffff;fill-opacity:1">
          <g
             id="g27"
             style="fill:#ffffff;fill-opacity:1">
            <g
               style="fill:#ffffff;fill-opacity:1"
               id="g26">
              <path
                 style="fill:#ffffff;fill-opacity:1;stroke:none"
                 d="M 8.328125,0 V -0.46875 H 7.34375 L 4.828125,-3.953125 6.5,-6.15625 C 6.609375,-6.296875 6.625,-6.3125 6.96875,-6.34375 7.203125,-6.375 7.265625,-6.375 7.546875,-6.375 h 0.28125 V -6.84375 C 7.421875,-6.8125 6.921875,-6.8125 6.5,-6.8125 c -0.390625,0 -1.15625,0 -1.515625,-0.03125 V -6.375 c 0.171875,0 0.5625,0 0.921875,0.109375 -0.015625,0.03125 -0.0625,0.078125 -0.078125,0.109375 L 4.5,-4.40625 3.078125,-6.375 H 3.90625 V -6.84375 C 3.5,-6.8125 2.546875,-6.8125 2.109375,-6.8125 c -0.40625,0 -1.265625,0 -1.625,-0.03125 V -6.375 H 1.46875 l 2.203125,3.0625 -2,2.640625 C 1.578125,-0.546875 1.5625,-0.53125 1.234375,-0.5 1.03125,-0.484375 0.828125,-0.46875 0.625,-0.46875 H 0.34375 V 0 C 0.75,-0.03125 1.25,-0.03125 1.671875,-0.03125 c 0.390625,0 1.15625,0 1.515625,0.03125 v -0.46875 c -0.171875,0 -0.5625,0 -0.921875,-0.109375 C 2.28125,-0.59375 2.328125,-0.65625 2.359375,-0.6875 L 4,-2.875 5.734375,-0.46875 H 4.90625 V 0 c 0.40625,-0.03125 1.359375,-0.03125 1.796875,-0.03125 0.40625,0 1.265625,0 1.625,0.03125 z m 0,0"
                 transform="translate(178.585,110.99)"
                 id="path25" />
            </g>
          </g>
        </g>
        <path
           style="fill:none;stroke:#ffffff;stroke-width:0.1;stroke-linecap:butt;stroke-linejoin:bevel;stroke-dasharray:none;stroke-opacity:1;marker-start:url(#ArrowTriangleStylized-9-2)"
           d="m 162.1075,12.937044 c 0.76017,0.186372 1.23982,0.357196 1.83747,0.464349 0.78202,0.140207 1.38616,0.157901 2.22467,0.222375 3.14473,0.241801 4.95223,0.478088 6.29798,0.928974 1.11183,0.372516 2.17095,1.030268 2.8679,1.72224 1.36256,1.352846 2.23621,3.035616 4.01435,4.665488"
           id="path28" />
      </g>
      <g
         ns1:text="\(\phi(t)\)"
         transform="matrix(0.1,0,0,0.1,142.47739,0.99541036)"
         id="g42"
         style="fill:#ffffff;fill-opacity:1">
        <g
           id="surface1"
           style="fill:#ffffff;fill-opacity:1">
          <g
             style="fill:#ffffff;fill-opacity:1"
             id="g38">
            <path
               style="fill:#ffffff;fill-opacity:1;stroke:none"
               d="m 4.359375,-6.671875 c 0,-0.03125 0.03125,-0.140625 0.03125,-0.140625 0,-0.015625 0,-0.109375 -0.125,-0.109375 -0.09375,0 -0.109375,0.03125 -0.15625,0.203125 L 3.53125,-4.421875 c -1.578125,0.0625 -3.046875,1.375 -3.046875,2.734375 0,0.953125 0.703125,1.734375 1.921875,1.8125 C 2.328125,0.421875 2.25,0.75 2.171875,1.0625 c -0.125,0.46875 -0.21875,0.84375 -0.21875,0.875 0,0.09375 0.078125,0.109375 0.125,0.109375 C 2.125,2.046875 2.140625,2.03125 2.171875,2 2.1875,1.984375 2.25,1.75 2.28125,1.609375 L 2.65625,0.125 c 1.609375,-0.0625 3.0625,-1.40625 3.0625,-2.734375 0,-0.796875 -0.53125,-1.703125 -1.921875,-1.8125 z m -1.90625,6.578125 c -0.59375,-0.03125 -1.3125,-0.390625 -1.3125,-1.375 0,-1.203125 0.859375,-2.59375 2.34375,-2.734375 z m 1.28125,-4.109375 c 0.765625,0.046875 1.328125,0.5 1.328125,1.375 0,1.1875 -0.859375,2.609375 -2.34375,2.734375 z m 0,0"
               transform="translate(178.585,110.99)"
               id="path37" />
          </g>
          <g
             style="fill:#ffffff;fill-opacity:1"
             id="g39">
            <path
               style="fill:#ffffff;fill-opacity:1;stroke:none"
               d="m 3.296875,2.390625 c 0,-0.03125 0,-0.046875 -0.171875,-0.21875 C 1.890625,0.921875 1.5625,-0.96875 1.5625,-2.5 c 0,-1.734375 0.375,-3.46875 1.609375,-4.703125 0.125,-0.125 0.125,-0.140625 0.125,-0.171875 0,-0.078125 -0.03125,-0.109375 -0.09375,-0.109375 -0.109375,0 -1,0.6875 -1.59375,1.953125 -0.5,1.09375 -0.625,2.203125 -0.625,3.03125 0,0.78125 0.109375,1.984375 0.65625,3.125 C 2.25,1.84375 3.09375,2.5 3.203125,2.5 c 0.0625,0 0.09375,-0.03125 0.09375,-0.109375 z m 0,0"
               transform="translate(184.521,110.99)"
               id="path38" />
          </g>
          <g
             style="fill:#ffffff;fill-opacity:1"
             id="g40">
            <path
               style="fill:#ffffff;fill-opacity:1;stroke:none"
               d="m 2.046875,-3.984375 h 0.9375 c 0.203125,0 0.3125,0 0.3125,-0.203125 0,-0.109375 -0.109375,-0.109375 -0.28125,-0.109375 h -0.875 C 2.5,-5.71875 2.546875,-5.90625 2.546875,-5.96875 c 0,-0.171875 -0.125,-0.265625 -0.296875,-0.265625 -0.03125,0 -0.3125,0 -0.390625,0.359375 L 1.46875,-4.296875 h -0.9375 c -0.203125,0 -0.296875,0 -0.296875,0.1875 0,0.125 0.078125,0.125 0.28125,0.125 h 0.875 C 0.671875,-1.15625 0.625,-0.984375 0.625,-0.8125 0.625,-0.265625 1,0.109375 1.546875,0.109375 2.5625,0.109375 3.125,-1.34375 3.125,-1.421875 3.125,-1.53125 3.046875,-1.53125 3.015625,-1.53125 2.921875,-1.53125 2.90625,-1.5 2.859375,-1.390625 2.4375,-0.34375 1.90625,-0.109375 1.5625,-0.109375 c -0.203125,0 -0.3125,-0.125 -0.3125,-0.453125 0,-0.25 0.03125,-0.3125 0.0625,-0.484375 z m 0,0"
               transform="translate(188.395,110.99)"
               id="path39" />
          </g>
          <g
             style="fill:#ffffff;fill-opacity:1"
             id="g41">
            <path
               style="fill:#ffffff;fill-opacity:1;stroke:none"
               d="m 2.875,-2.5 c 0,-0.765625 -0.109375,-1.96875 -0.65625,-3.109375 -0.59375,-1.21875 -1.453125,-1.875 -1.546875,-1.875 -0.0625,0 -0.109375,0.046875 -0.109375,0.109375 0,0.03125 0,0.046875 0.1875,0.234375 0.984375,0.984375 1.546875,2.5625 1.546875,4.640625 0,1.71875 -0.359375,3.46875 -1.59375,4.71875 C 0.5625,2.34375 0.5625,2.359375 0.5625,2.390625 0.5625,2.453125 0.609375,2.5 0.671875,2.5 0.765625,2.5 1.671875,1.8125 2.25,0.546875 2.765625,-0.546875 2.875,-1.65625 2.875,-2.5 Z m 0,0"
               transform="translate(191.993,110.99)"
               id="path40" />
          </g>
        </g>
      </g>
    </g>
  </g>
</svg>
