<?xml version="1.0" encoding="UTF-8" standalone="no"?>
<!-- Created with Inkscape (http://www.inkscape.org/) -->

<svg
   width="29.256428mm"
   height="14.857606mm"
   viewBox="0 0 29.256428 14.857606"
   version="1.1"
   id="svg1"
   xmlns="http://www.w3.org/2000/svg"
   xmlns:svg="http://www.w3.org/2000/svg"
   xmlns:ns1="http://wanglongqi.github.io/WriteTeX">
  <defs
     id="defs1">
    <marker
       style="overflow:visible"
       id="ConcaveTriangle-5-8"
       refX="0"
       refY="0"
       orient="auto-start-reverse"
       markerWidth="0.60000002"
       markerHeight="0.60000002"
       viewBox="0 0 1 1"
       preserveAspectRatio="xMidYMid">
      <path
         transform="scale(0.7)"
         d="M -2,-4 9,0 -2,4 c 2,-2.33 2,-5.66 0,-8 z"
         style="fill:context-stroke;fill-rule:evenodd;stroke:none"
         id="path22-5-3" />
    </marker>
    <marker
       style="overflow:visible"
       id="marker45-2-8"
       refX="0"
       refY="0"
       orient="auto-start-reverse"
       markerWidth="1"
       markerHeight="1"
       viewBox="0 0 1 1"
       preserveAspectRatio="xMidYMid">
      <path
         transform="scale(0.7)"
         d="M -2,-4 9,0 -2,4 c 2,-2.33 2,-5.66 0,-8 z"
         style="fill:context-stroke;fill-rule:evenodd;stroke:none"
         id="path45-4-1" />
    </marker>
    <marker
       style="overflow:visible"
       id="marker47-9-0"
       refX="0"
       refY="0"
       orient="auto-start-reverse"
       markerWidth="1"
       markerHeight="1"
       viewBox="0 0 1 1"
       preserveAspectRatio="xMidYMid">
      <path
         transform="scale(0.7)"
         d="M -2,-4 9,0 -2,4 c 2,-2.33 2,-5.66 0,-8 z"
         style="fill:context-stroke;fill-rule:evenodd;stroke:none"
         id="path47-2-3" />
    </marker>
  </defs>
  <g
     id="layer1"
     transform="translate(-50.919283,-6.9671558)">
    <g
       id="g36">
      <path
         style="fill:none;fill-rule:evenodd;stroke:#ffffff;stroke-width:0.1;stroke-dasharray:none;stroke-opacity:1"
         id="rect5-8-9"
         width="13.217748"
         height="6.4314456"
         x="180.65726"
         y="112.83871"
         d="m 274.2778,117.73606 8.14648,2.39786 -6.61282,1.09708 -8.12163,-2.47886 z m 8.14648,2.39786 8.63769,2.54245 -6.62851,1.18622 -8.622,-2.63159 z m 8.63769,2.54245 9.17471,2.70052 -6.63313,1.28457 -9.17009,-2.79887 z m 9.17471,2.70052 9.76341,2.87379 -6.6244,1.39341 -9.77214,-2.98263 z m 9.76341,2.87379 10.41067,3.06432 -6.59957,1.51419 -10.4355,-3.1851 z m 10.41067,3.06432 11.12448,3.27441 -6.55526,1.64868 -11.16879,-3.4089 z m 11.12448,3.27441 11.91432,3.50691 -6.4874,1.79894 -11.98218,-3.65717 z m 11.91432,3.50691 12.79137,3.76505 -6.39099,1.96747 -12.88778,-3.93358 z m 12.79137,3.76505 13.76896,4.05281 -6.25988,2.1572 -13.90007,-4.24254 z m 13.76896,4.05281 14.86309,4.37485 -6.08645,2.37176 -15.03652,-4.58941 z m -102.32006,-27.16204 8.12163,2.47886 -6.89812,1.14442 -8.08729,-2.56466 z m 8.12163,2.47886 8.622,2.63159 -6.92349,1.23901 -8.59663,-2.72618 z m 8.622,2.63159 9.17009,2.79887 -6.93793,1.3436 -9.15565,-2.90346 z m 9.17009,2.79887 9.77214,2.98263 -6.93903,1.45958 -9.77104,-3.09861 z m 9.77214,2.98263 10.4355,3.1851 -6.9239,1.5886 -10.45063,-3.31412 z m 10.4355,3.1851 11.16879,3.4089 -6.88902,1.73263 -11.20367,-3.55293 z m 11.16879,3.4089 11.98218,3.65717 -6.83006,1.89397 -12.04114,-3.81851 z m 11.98218,3.65717 12.88778,3.93358 -6.74167,2.07542 -12.97617,-4.11503 z m 12.88778,3.93358 13.90007,4.24254 -6.61724,2.28036 -14.0245,-4.44748 z m 13.90007,4.24254 15.03652,4.58941 -6.44853,2.51286 -15.20523,-4.82191 z m -102.92396,-28.26062 8.08729,2.56466 -7.2023,1.19488 -8.04227,-2.65565 z m 8.08729,2.56466 8.59663,2.72618 -7.23862,1.2954 -8.56031,-2.8267 z m 8.59663,2.72618 9.15565,2.90346 -7.26422,1.40678 -9.13005,-3.01484 z m 9.15565,2.90346 9.77104,3.09861 -7.2766,1.53059 -9.75866,-3.22242 z m 9.77104,3.09861 10.45063,3.31412 -7.27276,1.66865 -10.45447,-3.45218 z m 10.45063,3.31412 11.20367,3.55293 -7.24896,1.82315 -11.22747,-3.70743 z m 11.20367,3.55293 12.04114,3.81851 -7.2006,1.99672 -12.0895,-3.99208 z m 12.04114,3.81851 12.97617,4.11503 -7.12202,2.19251 -13.05475,-4.31082 z m 12.97617,4.11503 14.0245,4.44748 -7.00609,2.41435 -14.14043,-4.66932 z m 14.0245,4.44748 15.20523,4.82191 -6.84392,2.66692 -15.3674,-5.07448 z m -103.464,-29.43709 8.04227,2.65565 -7.52705,1.24875 -7.98524,-2.75227 z m 8.04227,2.65565 8.56031,2.8267 -7.57577,1.35574 -8.51159,-2.93369 z m 8.56031,2.8267 9.13005,3.01484 -7.61408,1.47455 -9.09174,-3.13365 z m 9.13005,3.01484 9.75866,3.22242 -7.63944,1.6069 -9.7333,-3.35477 z m 9.75866,3.22242 10.45447,3.45218 -7.64866,1.75489 -10.44525,-3.60017 z m 10.45447,3.45218 11.22747,3.70743 -7.63784,1.92096 -11.23829,-3.8735 z m 11.22747,3.70743 12.0895,3.99208 -7.60215,2.10807 -12.12519,-4.17919 z m 12.0895,3.99208 13.05475,4.31082 -7.53549,2.3198 -13.12141,-4.52255 z m 13.05475,4.31082 14.14043,4.66932 -7.43026,2.56053 -14.24566,-4.91005 z m 14.14043,4.66932 15.3674,5.07448 -7.27681,2.83562 -15.52085,-5.34957 z m -103.92793,-30.69931 7.98524,2.75227 -7.87426,1.30636 -7.91471,-2.85504 z m 7.98524,2.75227 8.51159,2.93369 -7.93702,1.42039 -8.44883,-3.04772 z m 8.51159,2.93369 9.09174,3.13365 -7.98985,1.54731 -9.03891,-3.26057 z m 9.09174,3.13365 9.7333,3.35477 -8.03009,1.68908 -9.69306,-3.49654 z m 9.7333,3.35477 10.44525,3.60017 -8.05447,1.848 -10.42087,-3.75909 z m 10.44525,3.60017 11.23829,3.8735 -8.0589,2.02685 -11.23386,-4.05235 z m 11.23829,3.8735 12.12519,4.17919 -8.03823,2.22899 -12.14586,-4.38133 z m 12.12519,4.17919 13.12141,4.52255 -7.98605,2.4585 -13.17359,-4.75206 z m 13.12141,4.52255 14.24566,4.91005 -7.89416,2.72039 -14.33755,-5.17194 z m 14.24566,4.91005 15.52085,5.34957 -7.75212,3.02084 -15.66289,-5.65002 z m -104.3014,-32.05625 7.91471,2.85504 -8.24608,1.36804 -7.82891,-2.9645 z m 7.91471,2.85504 8.44883,3.04772 -8.32476,1.48977 -8.37015,-3.16945 z m 8.44883,3.04772 9.03891,3.26057 -8.39413,1.62561 -8.96954,-3.39641 z m 9.03891,3.26057 9.69306,3.49654 -8.45151,1.77772 -9.63568,-3.64865 z m 9.69306,3.49654 10.42087,3.75909 -8.49346,1.94872 -10.37892,-3.93009 z m 10.42087,3.75909 11.23386,4.05235 -8.51574,2.14175 -11.21158,-4.24538 z m 11.23386,4.05235 12.14586,4.38133 -8.51296,2.36063 -12.14864,-4.60021 z m 12.14586,4.38133 13.17359,4.75206 -8.47826,2.61003 -13.20829,-5.00146 z m 13.17359,4.75206 14.33755,5.17194 -8.40289,2.8957 -14.41292,-5.45761 z m 14.33755,5.17194 15.66289,5.65002 -8.27557,3.22481 -15.79021,-5.97913 z m -104.56752,-33.51806 7.82891,2.9645 -8.64487,1.43421 -7.72591,-3.08127 z m 7.82891,2.9645 8.37015,3.16945 -8.74161,1.56437 -8.27341,-3.29961 z m 8.37015,3.16945 8.96954,3.39641 -8.82991,1.71 -8.88124,-3.54204 z m 8.96954,3.39641 9.63568,3.64865 -8.90698,1.87353 -9.55861,-3.81218 z m 9.63568,3.64865 10.37892,3.93009 -8.96935,2.05791 -10.31655,-4.11447 z m 10.37892,3.93009 11.21158,4.24538 -9.01258,2.26671 -11.16835,-4.45418 z m 11.21158,4.24538 12.14864,4.60021 -9.03102,2.50429 -12.1302,-4.83779 z m 12.14864,4.60021 13.20829,5.00146 -9.01742,2.77602 -13.22189,-5.27319 z m 13.20829,5.00146 14.41292,5.45761 -8.96244,3.08853 -14.4679,-5.77012 z m 14.41292,5.45761 15.79021,5.97913 -8.85389,3.45017 -15.89876,-6.34077 z m -104.7065,-35.09632 7.72591,3.08127 -9.07329,1.50528 -7.60347,-3.20603 z m 7.72591,3.08127 8.27341,3.29961 -9.19058,1.64472 -8.15612,-3.43905 z m 8.27341,3.29961 8.88124,3.54204 -9.30051,1.80114 -8.77131,-3.69846 z m 8.88124,3.54204 9.55861,3.81218 -9.4003,1.9773 -9.45882,-3.98834 z m 9.55861,3.81218 10.31655,4.11447 -9.48639,2.17653 -10.23046,-4.3137 z m 10.31655,4.11447 11.16835,4.45418 -9.5542,2.40293 -11.10054,-4.68058 z m 11.16835,4.45418 12.1302,4.83779 -9.59785,2.66148 -12.08655,-5.09634 z m 12.1302,4.83779 13.22189,5.27319 -9.60971,2.95834 -13.21003,-5.57005 z m 13.22189,5.27319 14.4679,5.77012 -9.5798,3.30127 -14.49781,-6.11305 z m 14.4679,5.77012 15.89876,6.34077 -9.49503,3.70001 -15.98353,-6.73951 z m -104.69491,-36.80433 7.60347,3.20603 -9.53438,1.58177 -7.45902,-3.33956 z m 7.60347,3.20603 8.15612,3.43905 -9.67504,1.73142 -8.01546,-3.5887 z m 8.15612,3.43905 8.77131,3.69846 -9.80977,1.89975 -8.63658,-3.86679 z m 8.77131,3.69846 9.45882,3.98834 -9.93577,2.08992 -9.33282,-4.17851 z m 9.45882,3.98834 10.23046,4.3137 -10.04946,2.30573 -10.11677,-4.52951 z m 10.23046,4.3137 11.10054,4.68058 -10.14616,2.55181 -11.00384,-4.92666 z m 11.10054,4.68058 12.08655,5.09634 -10.21978,2.83393 -12.01293,-5.37846 z m 12.08655,5.09634 13.21003,5.57005 -10.26232,3.15926 -13.16749,-5.89538 z m 13.21003,5.57005 14.49781,6.11305 -10.26323,3.53679 -14.4969,-6.49058 z m 14.49781,6.11305 15.98353,6.73951 -10.20842,3.97801 -16.03834,-7.18073 z m -104.50504,-38.65736 7.45902,3.33956 -10.03153,1.66426 -7.28961,-3.48276 z m 7.45902,3.33956 8.01546,3.5887 -10.19886,1.82516 -7.84813,-3.7496 z m 8.01546,3.5887 8.63658,3.86679 -10.36203,2.00672 -8.47341,-4.04835 z m 8.63658,3.86679 9.33282,4.17851 -10.51834,2.21247 -9.17651,-4.38426 z m 9.33282,4.17851 10.11677,4.52951 -10.66419,2.44677 -9.97092,-4.76381 z m 10.11677,4.52951 11.00384,4.92666 -10.79488,2.71497 -10.87315,-5.19486 z m 11.00384,4.92666 12.01293,5.37846 -10.90418,3.02372 -11.90363,-5.68721 z m 12.01293,5.37846 13.16749,5.89538 -10.98377,3.38135 -13.0879,-6.25301 z m 13.16749,5.89538 14.4969,6.49058 -11.02251,3.79845 -14.45816,-6.90768 z m 14.4969,6.49058 16.03834,7.18073 -11.00536,4.28855 -16.05549,-7.67083 z"
         transform="matrix(0.11339825,0,0,0.22960972,35.939157,-20.054451)" />
      <path
         style="fill:#ffffff;fill-opacity:0.2;stroke:#ffffff;stroke-width:0.121852;stroke-dasharray:none;stroke-opacity:1;paint-order:fill markers stroke"
         id="path5-8-1-9"
         d="m 153.45637,119.15461 c 0.0758,0.9705 -0.47119,1.26038 -1.20338,1.27645 -0.70303,0.0154 -1.39498,0.1395 -2.28232,0.37904 -0.99526,0.26867 -1.99279,0.14432 -3.29146,-0.9709 -1.24542,-1.0695 -1.7866,-2.07849 -1.66601,-2.19631 0.17914,-0.17502 1.17874,0.0376 2.32215,-0.35501 1.14342,-0.39264 2.32982,-1.0719 3.11183,-1.13348 0.73227,-0.0577 1.28862,0.33275 1.79348,0.79725 0.5412,0.49794 1.15018,1.36402 1.21571,2.20296 z"
         transform="matrix(0.89803602,0,0,0.70848625,-65.67606,-70.884046)" />
      <g
         id="surface1-0-6"
         transform="matrix(0.12136826,0,0,0.12136826,69.850834,6.928425)"
         style="fill:#ffffff;fill-opacity:1">
        <g
           style="fill:#ffffff;fill-opacity:1"
           id="g3-3-1">
          <g
             id="use2-5-9"
             style="fill:#ffffff;fill-opacity:1"
             transform="translate(0.71601599,7.766016)">
            <path
               style="stroke:none"
               d="M 2.671875,-3.125 H 3.03125 l 1.5,2.3125 C 4.625,-0.65625 4.859375,-0.265625 4.96875,-0.125 5.046875,0 5.078125,0 5.296875,0 h 1.375 c 0.1875,0 0.34375,0 0.34375,-0.171875 0,-0.09375 -0.0625,-0.15625 -0.15625,-0.171875 C 6.484375,-0.421875 6,-1.09375 5.765625,-1.40625 5.6875,-1.5 5.1875,-2.15625 4.53125,-3.234375 5.40625,-3.40625 6.265625,-3.78125 6.265625,-4.96875 6.265625,-6.34375 4.8125,-6.828125 3.625,-6.828125 H 0.5 c -0.1875,0 -0.34375,0 -0.34375,0.171875 0,0.171875 0.1875,0.171875 0.265625,0.171875 0.578125,0 0.625,0.078125 0.625,0.578125 v 4.984375 c 0,0.5 -0.046875,0.578125 -0.625,0.578125 -0.078125,0 -0.265625,0 -0.265625,0.171875 C 0.15625,0 0.3125,0 0.5,0 H 3.234375 C 3.40625,0 3.5625,0 3.5625,-0.171875 c 0,-0.171875 -0.171875,-0.171875 -0.28125,-0.171875 -0.5625,0 -0.609375,-0.078125 -0.609375,-0.578125 z m 1.921875,-0.5 c 0.28125,-0.359375 0.3125,-0.890625 0.3125,-1.328125 0,-0.484375 -0.0625,-1.015625 -0.375,-1.421875 0.40625,0.09375 1.390625,0.40625 1.390625,1.40625 0,0.65625 -0.296875,1.15625 -1.328125,1.34375 z M 2.671875,-5.9375 c 0,-0.21875 0,-0.546875 0.625,-0.546875 0.84375,0 1.265625,0.359375 1.265625,1.53125 0,1.28125 -0.3125,1.46875 -1.890625,1.46875 z M 1.3125,-0.34375 C 1.390625,-0.53125 1.390625,-0.8125 1.390625,-0.890625 V -5.9375 c 0,-0.09375 0,-0.359375 -0.078125,-0.546875 h 1.140625 c -0.125,0.171875 -0.125,0.359375 -0.125,0.515625 v 5.078125 c 0,0.09375 0,0.359375 0.078125,0.546875 z M 3.4375,-3.125 c 0.078125,-0.015625 0.109375,-0.03125 0.1875,-0.03125 0.15625,0 0.375,-0.015625 0.515625,-0.03125 0.15625,0.234375 1.234375,2.015625 2.0625,2.84375 h -0.96875 z m 0,0"
               id="path18-4" />
          </g>
        </g>
        <g
           style="fill:#ffffff;fill-opacity:1"
           id="g4-7-1">
          <g
             id="use3-7-7"
             style="fill:#ffffff;fill-opacity:1"
             transform="translate(7.9070358,4.148046)">
            <path
               style="stroke:none"
               d="m 0.84375,-0.4375 c -0.015625,0.09375 -0.0625,0.265625 -0.0625,0.28125 0,0.15625 0.125,0.21875 0.234375,0.21875 0.125,0 0.234375,-0.078125 0.28125,-0.140625 0.03125,-0.0625 0.078125,-0.296875 0.125,-0.4375 0.03125,-0.125 0.109375,-0.453125 0.140625,-0.625 0.046875,-0.15625 0.09375,-0.3125 0.125,-0.46875 0.078125,-0.28125 0.09375,-0.34375 0.296875,-0.625 C 2.171875,-2.515625 2.5,-2.875 3.03125,-2.875 c 0.390625,0 0.40625,0.359375 0.40625,0.484375 0,0.421875 -0.296875,1.1875 -0.40625,1.484375 -0.078125,0.203125 -0.109375,0.265625 -0.109375,0.375 0,0.375 0.296875,0.59375 0.65625,0.59375 0.703125,0 1,-0.953125 1,-1.0625 0,-0.09375 -0.078125,-0.09375 -0.109375,-0.09375 -0.09375,0 -0.09375,0.046875 -0.125,0.125 C 4.1875,-0.40625 3.875,-0.125 3.609375,-0.125 c -0.15625,0 -0.1875,-0.09375 -0.1875,-0.25 0,-0.15625 0.046875,-0.25 0.171875,-0.5625 0.078125,-0.21875 0.359375,-0.953125 0.359375,-1.34375 0,-0.671875 -0.53125,-0.796875 -0.90625,-0.796875 -0.578125,0 -0.96875,0.359375 -1.171875,0.640625 -0.046875,-0.484375 -0.453125,-0.640625 -0.75,-0.640625 -0.296875,0 -0.453125,0.21875 -0.546875,0.375 -0.15625,0.265625 -0.25,0.65625 -0.25,0.703125 0,0.078125 0.09375,0.078125 0.125,0.078125 0.09375,0 0.09375,-0.015625 0.140625,-0.203125 0.109375,-0.40625 0.25,-0.75 0.515625,-0.75 0.1875,0 0.234375,0.15625 0.234375,0.34375 0,0.125 -0.0625,0.390625 -0.125,0.578125 -0.046875,0.1875 -0.109375,0.46875 -0.140625,0.625 z m 0,0"
               id="path19-3" />
          </g>
        </g>
      </g>
      <path
         style="fill:none;fill-rule:evenodd;stroke:#ffffff;stroke-width:0.0972409;stroke-dasharray:none;stroke-opacity:1"
         id="rect1-1-7-7"
         width="31.979841"
         height="11.266134"
         x="131.95564"
         y="124.32661"
         ry="0"
         d="m 144.19991,125.26485 c 1.95754,1.15637 3.42481,1.29467 5.99871,1.30269 2.56592,0.008 4.21753,0.18382 6.51426,1.64921 1.98744,1.26806 3.72528,2.88703 5.01734,3.66513 1.28484,0.77377 2.11655,0.94546 2.11655,0.94546 -1.05134,0.48369 -2.00195,0.65875 -3.32788,0.96031 -1.36344,0.31009 -2.37595,0.62099 -3.71529,1.22145 -1.02841,0.46105 -2.03286,1.00729 -3.06127,1.46834 -0.77815,0.34883 -1.2504,0.4903 -1.2504,0.4903 -1.85173,-0.82527 -2.83695,-2.34216 -5.03639,-4.52585 -2.10662,-2.09153 -3.58845,-2.64802 -5.80472,-2.83976 -2.34859,-0.20318 -3.27033,-0.17097 -4.90163,-0.96463 -1.23909,-0.60284 -1.95484,-1.21855 -1.95484,-1.21855 3.13519,-0.66116 6.27037,-1.24178 9.40556,-2.1541 z"
         transform="matrix(0.99805395,0,0,1.0596151,-83.50669,-124.47379)" />
      <circle
         style="fill:#fbfbfb;fill-opacity:1;stroke:none;stroke-width:0.0603216;stroke-dasharray:none;stroke-opacity:1;paint-order:fill markers stroke"
         id="path4-8-8-1"
         cx="68.60067"
         cy="13.137685"
         r="0.15000001" />
      <g
         ns1:text="\(M\)"
         transform="matrix(0.1,0,0,0.1,36.207597,0.146067)"
         id="g7-9-4-6"
         style="fill:#ffffff;fill-opacity:1">
        <g
           id="g6-3-3-1"
           style="fill:#ffffff;fill-opacity:1">
          <g
             style="fill:#ffffff;fill-opacity:1"
             id="g5-6-8-2">
            <path
               style="fill:#ffffff;fill-opacity:1;stroke:none"
               d="M 9.234375,-6.046875 C 9.328125,-6.40625 9.34375,-6.5 10.09375,-6.5 c 0.21875,0 0.3125,0 0.3125,-0.203125 0,-0.109375 -0.09375,-0.109375 -0.265625,-0.109375 h -1.3125 c -0.265625,0 -0.28125,0 -0.390625,0.1875 L 4.796875,-0.9375 4.015625,-6.578125 C 3.984375,-6.8125 3.96875,-6.8125 3.703125,-6.8125 H 2.34375 c -0.1875,0 -0.296875,0 -0.296875,0.1875 0,0.125 0.09375,0.125 0.28125,0.125 0.140625,0 0.3125,0.015625 0.4375,0.015625 0.15625,0.03125 0.21875,0.046875 0.21875,0.171875 0,0.03125 -0.015625,0.0625 -0.046875,0.1875 l -1.265625,5.0625 c -0.09375,0.40625 -0.265625,0.71875 -1.078125,0.75 -0.046875,0 -0.171875,0.015625 -0.171875,0.1875 0,0.09375 0.0625,0.125 0.140625,0.125 0.3125,0 0.65625,-0.03125 1,-0.03125 C 1.890625,-0.03125 2.25,0 2.578125,0 c 0.046875,0 0.1875,0 0.1875,-0.203125 0,-0.109375 -0.109375,-0.109375 -0.1875,-0.109375 -0.5625,0 -0.671875,-0.203125 -0.671875,-0.4375 0,-0.0625 0,-0.125 0.03125,-0.234375 L 3.296875,-6.40625 H 3.3125 l 0.859375,6.171875 C 4.1875,-0.109375 4.203125,0 4.3125,0 4.421875,0 4.484375,-0.109375 4.53125,-0.171875 l 4.03125,-6.3125 h 0.015625 l -1.4375,5.703125 c -0.09375,0.390625 -0.109375,0.46875 -0.90625,0.46875 -0.15625,0 -0.265625,0 -0.265625,0.1875 C 5.96875,0 6.078125,0 6.109375,0 6.390625,0 7.0625,-0.03125 7.34375,-0.03125 7.75,-0.03125 8.1875,0 8.59375,0 8.65625,0 8.78125,0 8.78125,-0.203125 8.78125,-0.3125 8.6875,-0.3125 8.5,-0.3125 c -0.359375,0 -0.640625,0 -0.640625,-0.171875 0,-0.046875 0,-0.0625 0.046875,-0.25 z m 0,0"
               transform="translate(178.585,110.99)"
               id="path3-8-6-8" />
          </g>
        </g>
      </g>
      <g
         ns1:text="\(P\)"
         transform="matrix(0.1,0,0,0.1,51.735957,2.297587)"
         id="g10-2-1-8"
         style="fill:#ffffff;fill-opacity:1">
        <g
           id="g9-6-4-5"
           style="fill:#ffffff;fill-opacity:1">
          <g
             style="fill:#ffffff;fill-opacity:1"
             id="g8-1-6-0">
            <path
               style="fill:#ffffff;fill-opacity:1;stroke:none"
               d="M 3.015625,-3.15625 H 4.71875 c 1.40625,0 2.796875,-1.03125 2.796875,-2.140625 0,-0.78125 -0.65625,-1.515625 -1.96875,-1.515625 h -3.21875 c -0.1875,0 -0.296875,0 -0.296875,0.1875 0,0.125 0.078125,0.125 0.28125,0.125 0.125,0 0.3125,0.015625 0.421875,0.015625 0.171875,0.03125 0.21875,0.046875 0.21875,0.171875 0,0.03125 0,0.0625 -0.03125,0.1875 l -1.34375,5.34375 c -0.09375,0.390625 -0.109375,0.46875 -0.90625,0.46875 -0.15625,0 -0.265625,0 -0.265625,0.1875 C 0.40625,0 0.515625,0 0.546875,0 0.828125,0 1.53125,-0.03125 1.8125,-0.03125 c 0.21875,0 0.4375,0.015625 0.640625,0.015625 0.21875,0 0.4375,0.015625 0.640625,0.015625 0.078125,0 0.203125,0 0.203125,-0.203125 0,-0.109375 -0.09375,-0.109375 -0.28125,-0.109375 -0.359375,0 -0.640625,0 -0.640625,-0.171875 0,-0.0625 0.015625,-0.109375 0.03125,-0.171875 z M 3.734375,-6.125 C 3.828125,-6.46875 3.84375,-6.5 4.28125,-6.5 h 0.953125 c 0.828125,0 1.359375,0.265625 1.359375,0.953125 0,0.390625 -0.203125,1.25 -0.59375,1.609375 -0.5,0.453125 -1.09375,0.53125 -1.53125,0.53125 H 3.0625 Z m 0,0"
               transform="translate(178.585,110.99)"
               id="path7-5-1-5" />
          </g>
        </g>
      </g>
      <path
         style="fill:none;stroke:#ffffff;stroke-width:0.06;stroke-linecap:butt;stroke-linejoin:miter;stroke-dasharray:none;stroke-opacity:1;marker-end:url(#marker45-2-8)"
         d="m 68.010976,17.689226 5.43649,-3.37369"
         id="path44-4-8" />
      <path
         style="fill:none;stroke:#ffffff;stroke-width:0.06;stroke-linecap:butt;stroke-linejoin:miter;stroke-dasharray:none;stroke-opacity:1;marker-end:url(#marker47-9-0)"
         d="m 68.052126,17.712516 -4.81186,-4.39567"
         id="path46-3-1" />
      <g
         ns1:text="\(\partial_i = \frac{\partial}{\partial x^i}\)"
         transform="matrix(0.1,0,0,0.1,56.021697,2.884706)"
         id="g74-7-4"
         style="fill:#ffffff;fill-opacity:1">
        <g
           id="g73-5-5"
           style="fill:#ffffff;fill-opacity:1">
          <g
             style="fill:#ffffff;fill-opacity:1"
             id="g66-7-1">
            <path
               style="fill:#ffffff;fill-opacity:1;stroke:none"
               d="m 4.609375,-3.375 c -0.09375,-0.625 -0.5,-1.1875 -1.28125,-1.1875 -0.609375,0 -1.25,0.171875 -2.03125,0.9375 -0.828125,0.828125 -0.890625,1.765625 -0.890625,2.0625 0,0.625 0.4375,1.78125 1.828125,1.78125 2.375,0 3.40625,-3.34375 3.40625,-4.78125 0,-1.578125 -0.921875,-2.578125 -2.15625,-2.578125 -1.4375,0 -1.90625,1.296875 -1.90625,1.578125 0,0.140625 0.09375,0.34375 0.390625,0.34375 0.328125,0 0.53125,-0.296875 0.53125,-0.515625 0,-0.359375 -0.3125,-0.359375 -0.46875,-0.359375 0.4375,-0.734375 1.15625,-0.796875 1.4375,-0.796875 0.734375,0 1.421875,0.515625 1.421875,1.8125 0,0.390625 -0.0625,0.890625 -0.265625,1.703125 z m -2.34375,3.3125 c -1.09375,0 -1.09375,-1.03125 -1.09375,-1.125 0,-0.265625 0.25,-1.65625 0.65625,-2.265625 0.390625,-0.5625 0.890625,-0.890625 1.5,-0.890625 1.09375,0 1.109375,1.125 1.109375,1.328125 0,0.71875 -0.640625,2.953125 -2.171875,2.953125 z m 0,0"
               transform="translate(178.585,110.99)"
               id="path65-2-5" />
          </g>
          <g
             style="fill:#ffffff;fill-opacity:1"
             id="g67-7-6">
            <path
               style="fill:#ffffff;fill-opacity:1;stroke:none"
               d="m 2.265625,-4.359375 c 0,-0.109375 -0.09375,-0.265625 -0.28125,-0.265625 -0.1875,0 -0.390625,0.1875 -0.390625,0.390625 0,0.109375 0.078125,0.265625 0.28125,0.265625 0.1875,0 0.390625,-0.203125 0.390625,-0.390625 z M 0.84375,-0.8125 c -0.03125,0.09375 -0.0625,0.171875 -0.0625,0.296875 0,0.328125 0.265625,0.578125 0.65625,0.578125 0.6875,0 1,-0.953125 1,-1.0625 0,-0.09375 -0.09375,-0.09375 -0.109375,-0.09375 -0.09375,0 -0.109375,0.046875 -0.140625,0.125 -0.15625,0.5625 -0.453125,0.84375 -0.734375,0.84375 -0.140625,0 -0.171875,-0.09375 -0.171875,-0.25 0,-0.15625 0.046875,-0.28125 0.109375,-0.4375 C 1.46875,-1 1.546875,-1.1875 1.609375,-1.375 1.671875,-1.546875 1.9375,-2.171875 1.953125,-2.265625 1.984375,-2.328125 2,-2.40625 2,-2.484375 2,-2.8125 1.71875,-3.078125 1.34375,-3.078125 0.640625,-3.078125 0.328125,-2.125 0.328125,-2 c 0,0.078125 0.09375,0.078125 0.125,0.078125 0.09375,0 0.09375,-0.03125 0.125,-0.109375 C 0.75,-2.625 1.0625,-2.875 1.3125,-2.875 c 0.109375,0 0.171875,0.046875 0.171875,0.234375 0,0.171875 -0.03125,0.265625 -0.203125,0.703125 z m 0,0"
               transform="translate(183.874,112.485)"
               id="path66-7-0" />
          </g>
          <g
             style="fill:#ffffff;fill-opacity:1"
             id="g68-6-7">
            <path
               style="fill:#ffffff;fill-opacity:1;stroke:none"
               d="m 6.84375,-3.265625 c 0.15625,0 0.34375,0 0.34375,-0.1875 C 7.1875,-3.65625 7,-3.65625 6.859375,-3.65625 h -5.96875 c -0.140625,0 -0.328125,0 -0.328125,0.203125 0,0.1875 0.1875,0.1875 0.328125,0.1875 z m 0.015625,1.9375 c 0.140625,0 0.328125,0 0.328125,-0.203125 0,-0.1875 -0.1875,-0.1875 -0.34375,-0.1875 H 0.890625 c -0.140625,0 -0.328125,0 -0.328125,0.1875 0,0.203125 0.1875,0.203125 0.328125,0.203125 z m 0,0"
               transform="translate(189.958,110.99)"
               id="path67-2-3" />
          </g>
          <g
             style="fill:#ffffff;fill-opacity:1"
             id="g69-6-6">
            <path
               style="fill:#ffffff;fill-opacity:1;stroke:none"
               d="m 3.65625,-2.359375 c -0.09375,-0.40625 -0.40625,-0.8125 -1.0625,-0.8125 -0.984375,0 -1.78125,0.71875 -2.03125,1.359375 -0.046875,0.109375 -0.140625,0.390625 -0.140625,0.671875 0,0.484375 0.375,1.28125 1.453125,1.28125 1.8125,0 2.546875,-2.25 2.546875,-3.234375 0,-1.203125 -0.78125,-1.875 -1.71875,-1.875 C 1.5625,-4.96875 1.25,-4.0625 1.25,-3.859375 c 0,0.0625 0.046875,0.25 0.28125,0.25 0.25,0 0.390625,-0.203125 0.390625,-0.375 0,-0.1875 -0.140625,-0.25 -0.265625,-0.265625 C 2,-4.78125 2.578125,-4.78125 2.6875,-4.78125 c 0.53125,0 1.140625,0.328125 1.140625,1.328125 0,0.296875 -0.03125,0.546875 -0.15625,1.09375 z m -1.765625,2.28125 c -0.78125,0 -0.875,-0.59375 -0.875,-0.8125 0,-0.265625 0.1875,-0.953125 0.265625,-1.125 0.125,-0.328125 0.546875,-0.96875 1.34375,-0.96875 0.671875,0 0.890625,0.53125 0.890625,0.953125 0,0.46875 -0.453125,1.953125 -1.625,1.953125 z m 0,0"
               transform="translate(205.506,107.068)"
               id="path68-7-2" />
          </g>
          <path
             style="fill:#ffffff;fill-opacity:1;stroke:#000000;stroke-width:0.3985;stroke-linecap:butt;stroke-linejoin:miter;stroke-miterlimit:10;stroke-opacity:1"
             d="m 129.66797,-36.5 h 12.35937"
             transform="matrix(1,0,0,-1,72,72)"
             id="path69-0-2" />
          <g
             style="fill:#ffffff;fill-opacity:1"
             id="g70-7-9">
            <path
               style="fill:#ffffff;fill-opacity:1;stroke:none"
               d="m 3.65625,-2.359375 c -0.09375,-0.40625 -0.40625,-0.8125 -1.0625,-0.8125 -0.984375,0 -1.78125,0.71875 -2.03125,1.359375 -0.046875,0.109375 -0.140625,0.390625 -0.140625,0.671875 0,0.484375 0.375,1.28125 1.453125,1.28125 1.8125,0 2.546875,-2.25 2.546875,-3.234375 0,-1.203125 -0.78125,-1.875 -1.71875,-1.875 C 1.5625,-4.96875 1.25,-4.0625 1.25,-3.859375 c 0,0.0625 0.046875,0.25 0.28125,0.25 0.25,0 0.390625,-0.203125 0.390625,-0.375 0,-0.1875 -0.140625,-0.25 -0.265625,-0.265625 C 2,-4.78125 2.578125,-4.78125 2.6875,-4.78125 c 0.53125,0 1.140625,0.328125 1.140625,1.328125 0,0.296875 -0.03125,0.546875 -0.15625,1.09375 z m -1.765625,2.28125 c -0.78125,0 -0.875,-0.59375 -0.875,-0.8125 0,-0.265625 0.1875,-0.953125 0.265625,-1.125 0.125,-0.328125 0.546875,-0.96875 1.34375,-0.96875 0.671875,0 0.890625,0.53125 0.890625,0.953125 0,0.46875 -0.453125,1.953125 -1.625,1.953125 z m 0,0"
               transform="translate(201.669,114.426)"
               id="path70-8-9" />
          </g>
          <g
             style="fill:#ffffff;fill-opacity:1"
             id="g71-7-2">
            <path
               style="fill:#ffffff;fill-opacity:1;stroke:none"
               d="M 1.734375,-0.734375 C 1.671875,-0.5 1.4375,-0.125 1.078125,-0.125 c -0.015625,0 -0.234375,0 -0.375,-0.09375 0.28125,-0.09375 0.3125,-0.34375 0.3125,-0.390625 0,-0.15625 -0.125,-0.25 -0.28125,-0.25 -0.203125,0 -0.40625,0.15625 -0.40625,0.421875 0,0.34375 0.390625,0.5 0.734375,0.5 0.328125,0 0.609375,-0.1875 0.78125,-0.484375 C 2.015625,-0.0625 2.390625,0.0625 2.671875,0.0625 c 0.8125,0 1.234375,-0.859375 1.234375,-1.0625 0,-0.09375 -0.09375,-0.09375 -0.109375,-0.09375 -0.109375,0 -0.109375,0.046875 -0.140625,0.125 -0.140625,0.484375 -0.5625,0.84375 -0.953125,0.84375 -0.28125,0 -0.421875,-0.1875 -0.421875,-0.453125 0,-0.1875 0.171875,-0.8125 0.359375,-1.59375 C 2.78125,-2.703125 3.09375,-2.875 3.328125,-2.875 c 0.015625,0 0.21875,0 0.375,0.09375 -0.21875,0.0625 -0.3125,0.265625 -0.3125,0.390625 0,0.140625 0.125,0.25 0.28125,0.25 0.15625,0 0.390625,-0.125 0.390625,-0.421875 0,-0.390625 -0.453125,-0.515625 -0.71875,-0.515625 -0.359375,0 -0.640625,0.234375 -0.78125,0.5 -0.125,-0.28125 -0.453125,-0.5 -0.84375,-0.5 C 0.9375,-3.078125 0.5,-2.21875 0.5,-2 c 0,0.078125 0.09375,0.078125 0.109375,0.078125 0.09375,0 0.09375,-0.015625 0.140625,-0.109375 C 0.921875,-2.578125 1.359375,-2.875 1.703125,-2.875 1.9375,-2.875 2.125,-2.75 2.125,-2.421875 2.125,-2.28125 2.03125,-1.9375 1.96875,-1.6875 Z m 0,0"
               transform="translate(206.34842,114.426)"
               id="path71-1-9" />
          </g>
          <g
             style="fill:#ffffff;fill-opacity:1"
             id="g72-1-0">
            <path
               style="fill:#ffffff;fill-opacity:1;stroke:none"
               d="m 1.96875,-3.109375 c 0,-0.125 -0.078125,-0.21875 -0.21875,-0.21875 -0.140625,0 -0.296875,0.140625 -0.296875,0.296875 0,0.140625 0.109375,0.21875 0.21875,0.21875 0.15625,0 0.296875,-0.140625 0.296875,-0.296875 z m 0.234375,2.390625 c 0,-0.0625 -0.078125,-0.0625 -0.09375,-0.0625 -0.09375,0 -0.09375,0.015625 -0.125,0.109375 -0.078125,0.265625 -0.3125,0.5625 -0.5625,0.5625 -0.109375,0 -0.140625,-0.078125 -0.140625,-0.1875 0,-0.109375 0.015625,-0.171875 0.0625,-0.265625 0.03125,-0.09375 0.078125,-0.1875 0.109375,-0.265625 0.015625,-0.046875 0.203125,-0.5 0.28125,-0.6875 0.03125,-0.09375 0.0625,-0.171875 0.0625,-0.25 0,-0.234375 -0.234375,-0.4375 -0.546875,-0.4375 -0.515625,0 -0.796875,0.640625 -0.796875,0.765625 0,0.078125 0.078125,0.078125 0.109375,0.078125 0.078125,0 0.078125,-0.03125 0.109375,-0.09375 0.109375,-0.359375 0.34375,-0.578125 0.5625,-0.578125 0.09375,0 0.15625,0.046875 0.15625,0.1875 0,0.015625 0,0.078125 -0.03125,0.171875 -0.03125,0.09375 -0.265625,0.625 -0.328125,0.796875 -0.046875,0.09375 -0.046875,0.09375 -0.109375,0.265625 -0.03125,0.078125 -0.0625,0.140625 -0.0625,0.21875 0,0.265625 0.25,0.453125 0.546875,0.453125 0.515625,0 0.796875,-0.65625 0.796875,-0.78125 z m 0,0"
               transform="translate(210.871,112.433)"
               id="path72-2-6" />
          </g>
        </g>
      </g>
      <g
         ns1:text="\(T_P M \approx\)"
         transform="matrix(0.1,0,0,0.1,48.446387,-3.351484)"
         style="fill:#ffffff;fill-opacity:1"
         id="g17">
        <g
           id="g22"
           style="fill:#ffffff;fill-opacity:1">
          <g
             style="fill:#ffffff;fill-opacity:1"
             id="g12">
            <path
               style="fill:#ffffff;fill-opacity:1;stroke:none"
               d="m 4.25,-6.046875 c 0.078125,-0.28125 0.109375,-0.34375 0.234375,-0.375 0.09375,-0.015625 0.421875,-0.015625 0.625,-0.015625 1.015625,0 1.453125,0.03125 1.453125,0.8125 0,0.15625 -0.03125,0.546875 -0.078125,0.796875 0,0.046875 -0.03125,0.15625 -0.03125,0.1875 0,0.0625 0.03125,0.140625 0.125,0.140625 0.109375,0 0.125,-0.078125 0.15625,-0.234375 L 7,-6.46875 C 7.015625,-6.515625 7.015625,-6.609375 7.015625,-6.640625 7.015625,-6.75 6.921875,-6.75 6.75,-6.75 H 1.21875 c -0.234375,0 -0.25,0.015625 -0.328125,0.203125 l -0.59375,1.75 c 0,0.015625 -0.0625,0.15625 -0.0625,0.1875 0,0.046875 0.0625,0.109375 0.125,0.109375 0.09375,0 0.109375,-0.0625 0.171875,-0.21875 C 1.0625,-6.265625 1.328125,-6.4375 2.796875,-6.4375 H 3.1875 c 0.28125,0 0.28125,0.03125 0.28125,0.125 0,0.046875 -0.03125,0.171875 -0.046875,0.203125 L 2.09375,-0.78125 C 2,-0.421875 1.96875,-0.3125 0.90625,-0.3125 c -0.359375,0 -0.421875,0 -0.421875,0.1875 C 0.484375,0 0.59375,0 0.65625,0 c 0.265625,0 0.546875,-0.015625 0.8125,-0.015625 0.28125,0 0.578125,-0.015625 0.859375,-0.015625 0.28125,0 0.546875,0.015625 0.828125,0.015625 C 3.4375,-0.015625 3.734375,0 4.015625,0 c 0.09375,0 0.21875,0 0.21875,-0.203125 0,-0.109375 -0.078125,-0.109375 -0.34375,-0.109375 -0.234375,0 -0.375,0 -0.625,-0.015625 -0.296875,-0.03125 -0.375,-0.0625 -0.375,-0.21875 0,-0.015625 0,-0.0625 0.046875,-0.203125 z m 0,0"
               transform="translate(178.585,110.99)"
               id="path12" />
          </g>
          <g
             style="fill:#ffffff;fill-opacity:1"
             id="g13">
            <path
               style="fill:#ffffff;fill-opacity:1;stroke:none"
               d="m 2.375,-2.15625 h 1.265625 c 1.171875,0 2.171875,-0.75 2.171875,-1.515625 0,-0.59375 -0.578125,-1.09375 -1.53125,-1.09375 h -2.4375 c -0.140625,0 -0.21875,0 -0.21875,0.15625 0,0.09375 0.078125,0.09375 0.234375,0.09375 0.109375,0 0.140625,0 0.265625,0.015625 0.140625,0.015625 0.140625,0.03125 0.140625,0.109375 0,0 0,0.046875 -0.015625,0.140625 L 1.328125,-0.578125 C 1.25,-0.296875 1.25,-0.25 0.703125,-0.25 0.578125,-0.25 0.5,-0.25 0.5,-0.09375 0.5,-0.09375 0.5,0 0.609375,0 0.8125,0 1.3125,-0.03125 1.515625,-0.03125 1.625,-0.03125 1.875,-0.03125 2,-0.015625 2.125,-0.015625 2.3125,0 2.4375,0 2.484375,0 2.578125,0 2.578125,-0.15625 2.578125,-0.25 2.5,-0.25 2.359375,-0.25 c 0,0 -0.140625,0 -0.265625,-0.015625 C 1.9375,-0.28125 1.9375,-0.296875 1.9375,-0.375 c 0,0 0,-0.046875 0.03125,-0.140625 z m 0.5,-2.109375 c 0.0625,-0.21875 0.0625,-0.25 0.359375,-0.25 h 0.8125 c 0.65625,0 1.046875,0.203125 1.046875,0.703125 0,0.203125 -0.078125,0.765625 -0.421875,1.078125 -0.25,0.21875 -0.65625,0.34375 -1.15625,0.34375 H 2.40625 Z m 0,0"
               transform="translate(184.406,112.485)"
               id="path13" />
          </g>
          <g
             style="fill:#ffffff;fill-opacity:1"
             id="g14">
            <path
               style="fill:#ffffff;fill-opacity:1;stroke:none"
               d="M 9.234375,-6.046875 C 9.328125,-6.40625 9.34375,-6.5 10.09375,-6.5 c 0.21875,0 0.3125,0 0.3125,-0.203125 0,-0.109375 -0.09375,-0.109375 -0.265625,-0.109375 h -1.3125 c -0.265625,0 -0.28125,0 -0.390625,0.1875 L 4.796875,-0.9375 4.015625,-6.578125 C 3.984375,-6.8125 3.96875,-6.8125 3.703125,-6.8125 H 2.34375 c -0.1875,0 -0.296875,0 -0.296875,0.1875 0,0.125 0.09375,0.125 0.28125,0.125 0.140625,0 0.3125,0.015625 0.4375,0.015625 0.15625,0.03125 0.21875,0.046875 0.21875,0.171875 0,0.03125 -0.015625,0.0625 -0.046875,0.1875 l -1.265625,5.0625 c -0.09375,0.40625 -0.265625,0.71875 -1.078125,0.75 -0.046875,0 -0.171875,0.015625 -0.171875,0.1875 0,0.09375 0.0625,0.125 0.140625,0.125 0.3125,0 0.65625,-0.03125 1,-0.03125 C 1.890625,-0.03125 2.25,0 2.578125,0 c 0.046875,0 0.1875,0 0.1875,-0.203125 0,-0.109375 -0.109375,-0.109375 -0.1875,-0.109375 -0.5625,0 -0.671875,-0.203125 -0.671875,-0.4375 0,-0.0625 0,-0.125 0.03125,-0.234375 L 3.296875,-6.40625 H 3.3125 l 0.859375,6.171875 C 4.1875,-0.109375 4.203125,0 4.3125,0 4.421875,0 4.484375,-0.109375 4.53125,-0.171875 l 4.03125,-6.3125 h 0.015625 l -1.4375,5.703125 c -0.09375,0.390625 -0.109375,0.46875 -0.90625,0.46875 -0.15625,0 -0.265625,0 -0.265625,0.1875 C 5.96875,0 6.078125,0 6.109375,0 6.390625,0 7.0625,-0.03125 7.34375,-0.03125 7.75,-0.03125 8.1875,0 8.59375,0 8.65625,0 8.78125,0 8.78125,-0.203125 8.78125,-0.3125 8.6875,-0.3125 8.5,-0.3125 c -0.359375,0 -0.640625,0 -0.640625,-0.171875 0,-0.046875 0,-0.0625 0.046875,-0.25 z m 0,0"
               transform="translate(191.049,110.99)"
               id="path14" />
          </g>
          <g
             style="fill:#ffffff;fill-opacity:1"
             id="g16">
            <path
               style="fill:#ffffff;fill-opacity:1;stroke:none"
               d="m 7.203125,-4.5 c 0,-0.21875 -0.078125,-0.3125 -0.140625,-0.3125 -0.046875,0 -0.140625,0.046875 -0.140625,0.28125 C 6.875,-3.84375 6.1875,-3.4375 5.53125,-3.4375 4.953125,-3.4375 4.453125,-3.75 3.9375,-4.09375 3.40625,-4.453125 2.859375,-4.8125 2.21875,-4.8125 c -0.9375,0 -1.671875,0.703125 -1.671875,1.625 0,0.21875 0.078125,0.296875 0.140625,0.296875 0.09375,0 0.140625,-0.1875 0.140625,-0.234375 C 0.875,-3.953125 1.6875,-4.25 2.21875,-4.25 c 0.578125,0 1.078125,0.296875 1.59375,0.65625 0.53125,0.359375 1.078125,0.71875 1.71875,0.71875 0.921875,0 1.671875,-0.71875 1.671875,-1.625 z m 0,2.328125 c 0,-0.296875 -0.125,-0.3125 -0.140625,-0.3125 -0.046875,0 -0.140625,0.046875 -0.140625,0.265625 C 6.875,-1.53125 6.1875,-1.109375 5.53125,-1.109375 c -0.578125,0 -1.078125,-0.3125 -1.59375,-0.671875 C 3.40625,-2.140625 2.859375,-2.5 2.21875,-2.5 c -0.9375,0 -1.671875,0.71875 -1.671875,1.625 0,0.234375 0.078125,0.3125 0.140625,0.3125 0.09375,0 0.140625,-0.1875 0.140625,-0.234375 C 0.875,-1.640625 1.6875,-1.9375 2.21875,-1.9375 c 0.578125,0 1.078125,0.3125 1.59375,0.65625 0.53125,0.359375 1.078125,0.71875 1.71875,0.71875 0.953125,0 1.671875,-0.734375 1.671875,-1.609375 z m 0,0"
               transform="translate(204.568,110.99)"
               id="path16" />
          </g>
        </g>
      </g>
      <path
         style="fill:none;stroke:#ffffff;stroke-width:0.1;stroke-linecap:butt;stroke-linejoin:miter;stroke-dasharray:none;stroke-opacity:1;marker-end:url(#ConcaveTriangle-5-8)"
         d="M 68.574166,13.071908 67.166451,10.849973"
         id="path1" />
      <g
         ns1:text="\(\textrm{\textbf{X}}_p\)"
         transform="matrix(0.1,0,0,0.1,47.698892,-0.144414)"
         style="fill:#ffffff;fill-opacity:1"
         id="g6">
        <g
           id="g18"
           style="fill:#ffffff;fill-opacity:1">
          <g
             style="fill:#ffffff;fill-opacity:1"
             id="g4">
            <path
               style="fill:#ffffff;fill-opacity:1;stroke:none"
               d="M 8.328125,0 V -0.46875 H 7.34375 L 4.828125,-3.953125 6.5,-6.15625 C 6.609375,-6.296875 6.625,-6.3125 6.96875,-6.34375 7.203125,-6.375 7.265625,-6.375 7.546875,-6.375 h 0.28125 V -6.84375 C 7.421875,-6.8125 6.921875,-6.8125 6.5,-6.8125 c -0.390625,0 -1.15625,0 -1.515625,-0.03125 V -6.375 c 0.171875,0 0.5625,0 0.921875,0.109375 -0.015625,0.03125 -0.0625,0.078125 -0.078125,0.109375 L 4.5,-4.40625 3.078125,-6.375 H 3.90625 V -6.84375 C 3.5,-6.8125 2.546875,-6.8125 2.109375,-6.8125 c -0.40625,0 -1.265625,0 -1.625,-0.03125 V -6.375 H 1.46875 l 2.203125,3.0625 -2,2.640625 C 1.578125,-0.546875 1.5625,-0.53125 1.234375,-0.5 1.03125,-0.484375 0.828125,-0.46875 0.625,-0.46875 H 0.34375 V 0 C 0.75,-0.03125 1.25,-0.03125 1.671875,-0.03125 c 0.390625,0 1.15625,0 1.515625,0.03125 v -0.46875 c -0.171875,0 -0.5625,0 -0.921875,-0.109375 C 2.28125,-0.59375 2.328125,-0.65625 2.359375,-0.6875 L 4,-2.875 5.734375,-0.46875 H 4.90625 V 0 c 0.40625,-0.03125 1.359375,-0.03125 1.796875,-0.03125 0.40625,0 1.265625,0 1.625,0.03125 z m 0,0"
               transform="translate(178.585,110.99)"
               id="path4" />
          </g>
          <g
             style="fill:#ffffff;fill-opacity:1"
             id="g5">
            <path
               style="fill:#ffffff;fill-opacity:1;stroke:none"
               d="m 0.515625,0.84375 c -0.046875,0.203125 -0.0625,0.25 -0.328125,0.25 -0.09375,0 -0.1875,0 -0.1875,0.15625 0,0.078125 0.0625,0.109375 0.09375,0.109375 0.171875,0 0.40625,-0.03125 0.59375,-0.03125 0.234375,0 0.5,0.03125 0.734375,0.03125 0.0625,0 0.140625,-0.03125 0.140625,-0.15625 0,-0.109375 -0.09375,-0.109375 -0.1875,-0.109375 -0.15625,0 -0.34375,0 -0.34375,-0.078125 0,-0.03125 0.0625,-0.21875 0.078125,-0.3125 0.09375,-0.375 0.1875,-0.75 0.265625,-1.046875 0.078125,0.140625 0.296875,0.40625 0.71875,0.40625 0.84375,0 1.78125,-0.9375 1.78125,-1.96875 0,-0.8125 -0.5625,-1.171875 -1.03125,-1.171875 -0.4375,0 -0.8125,0.296875 -1,0.5 -0.109375,-0.40625 -0.5,-0.5 -0.71875,-0.5 -0.265625,0 -0.4375,0.1875 -0.546875,0.375 -0.140625,0.234375 -0.25,0.65625 -0.25,0.703125 0,0.078125 0.09375,0.078125 0.125,0.078125 0.09375,0 0.09375,-0.015625 0.140625,-0.203125 0.109375,-0.40625 0.25,-0.75 0.515625,-0.75 0.1875,0 0.234375,0.15625 0.234375,0.34375 0,0.078125 -0.015625,0.15625 -0.03125,0.203125 z M 1.84375,-2.234375 C 2.25,-2.78125 2.59375,-2.875 2.8125,-2.875 c 0.28125,0 0.515625,0.203125 0.515625,0.671875 0,0.28125 -0.15625,1 -0.359375,1.40625 -0.1875,0.34375 -0.515625,0.671875 -0.875,0.671875 -0.5,0 -0.625,-0.53125 -0.625,-0.609375 0,-0.03125 0.015625,-0.078125 0.015625,-0.109375 z m 0,0"
               transform="translate(187.242,112.485)"
               id="path5" />
          </g>
        </g>
      </g>
    </g>
  </g>
</svg>
