<?xml version="1.0" encoding="UTF-8" standalone="no"?>
<!-- Created with Inkscape (http://www.inkscape.org/) -->

<svg
   width="29.256428mm"
   height="14.857606mm"
   viewBox="0 0 29.256428 14.857606"
   version="1.1"
   id="svg1"
   sodipodi:docname="Geometry_g36.svg"
   inkscape:version="1.3 (0e150ed6c4, 2023-07-21)"
   xmlns:inkscape="http://www.inkscape.org/namespaces/inkscape"
   xmlns:sodipodi="http://sodipodi.sourceforge.net/DTD/sodipodi-0.dtd"
   xmlns="http://www.w3.org/2000/svg"
   xmlns:svg="http://www.w3.org/2000/svg"
   xmlns:ns1="http://wanglongqi.github.io/WriteTeX">
  <sodipodi:namedview
     id="namedview1"
     pagecolor="#ffffff"
     bordercolor="#000000"
     borderopacity="0.25"
     inkscape:showpageshadow="2"
     inkscape:pageopacity="0.0"
     inkscape:pagecheckerboard="0"
     inkscape:deskcolor="#d1d1d1"
     inkscape:document-units="mm"
     inkscape:zoom="5.9023898"
     inkscape:cx="37.018904"
     inkscape:cy="-10.588931"
     inkscape:window-width="1920"
     inkscape:window-height="1057"
     inkscape:window-x="1912"
     inkscape:window-y="-8"
     inkscape:window-maximized="1"
     inkscape:current-layer="svg1" />
  <defs
     id="defs1">
    <marker
       style="overflow:visible"
       id="ConcaveTriangle-5-8"
       refX="0"
       refY="0"
       orient="auto-start-reverse"
       markerWidth="0.60000002"
       markerHeight="0.60000002"
       viewBox="0 0 1 1"
       preserveAspectRatio="xMidYMid">
      <path
         transform="scale(0.7)"
         d="M -2,-4 9,0 -2,4 c 2,-2.33 2,-5.66 0,-8 z"
         style="fill:context-stroke;fill-rule:evenodd;stroke:none"
         id="path22-5-3" />
    </marker>
    <marker
       style="overflow:visible"
       id="marker45-2-8"
       refX="0"
       refY="0"
       orient="auto-start-reverse"
       markerWidth="1"
       markerHeight="1"
       viewBox="0 0 1 1"
       preserveAspectRatio="xMidYMid">
      <path
         transform="scale(0.7)"
         d="M -2,-4 9,0 -2,4 c 2,-2.33 2,-5.66 0,-8 z"
         style="fill:context-stroke;fill-rule:evenodd;stroke:none"
         id="path45-4-1" />
    </marker>
    <marker
       style="overflow:visible"
       id="marker47-9-0"
       refX="0"
       refY="0"
       orient="auto-start-reverse"
       markerWidth="1"
       markerHeight="1"
       viewBox="0 0 1 1"
       preserveAspectRatio="xMidYMid">
      <path
         transform="scale(0.7)"
         d="M -2,-4 9,0 -2,4 c 2,-2.33 2,-5.66 0,-8 z"
         style="fill:context-stroke;fill-rule:evenodd;stroke:none"
         id="path47-2-3" />
    </marker>
  </defs>
  <g
     id="g2">
    <path
       style="fill:none;fill-rule:evenodd;stroke:#000000;stroke-width:0.0161361;stroke-dasharray:none;stroke-opacity:1"
       id="rect5-8-9"
       width="13.217748"
       height="6.4314456"
       x="180.65726"
       y="112.83871"
       d="M 16.122497,0.01173677 17.046293,0.56230873 16.296411,0.81420897 15.375432,0.24503861 Z M 17.046293,0.56230873 18.025792,1.14608 17.274131,1.4184476 16.296411,0.81420897 Z M 18.025792,1.14608 19.066188,1.7661456 18.314003,2.0610954 17.274131,1.4184476 Z m 1.040396,0.6200656 1.107154,0.6598501 -0.751196,0.3199405 -1.108143,-0.6848408 z m 1.107154,0.6598501 1.180551,0.7035977 -0.748379,0.3476727 -1.183368,-0.7313299 z m 1.180551,0.7035977 1.261497,0.7518363 -0.743355,0.378553 -1.266521,-0.7827166 z m 1.261497,0.7518363 1.351063,0.8052207 -0.73566,0.4130541 -1.358758,-0.8397218 z m 1.351063,0.8052207 1.450519,0.864492 -0.724727,0.4517503 -1.461452,-0.9031882 z m 1.450519,0.864492 1.561376,0.9305646 -0.709859,0.4953141 -1.576244,-0.9741284 z M 26.978348,6.481707 28.663796,7.4862151 27.973604,8.0307942 26.268489,6.9770211 Z M 15.375432,0.24503861 16.296411,0.81420897 15.514176,1.0769789 14.597092,0.48810806 Z m 0.920979,0.56917036 0.97772,0.60423863 -0.785112,0.2844887 -0.974843,-0.6259574 z M 17.274131,1.4184476 18.314003,2.0610954 17.527254,2.369599 16.489019,1.7029363 Z M 18.314003,2.0610954 19.422146,2.7459362 18.635272,3.08107 17.527254,2.369599 Z m 1.108143,0.6848408 1.183368,0.7313299 -0.785158,0.364758 L 18.635272,3.08107 Z m 1.183368,0.7313299 1.266521,0.7827166 -0.781203,0.3978287 -1.270476,-0.8157873 z m 1.266521,0.7827166 1.358758,0.8397218 -0.774517,0.4348739 -1.365444,-0.876767 z m 1.358758,0.8397218 1.461452,0.9031882 -0.764494,0.4765366 -1.471475,-0.9448509 z m 1.461452,0.9031882 1.576244,0.9741284 -0.750384,0.5235928 -1.590354,-1.0211846 z m 1.576244,0.9741284 1.705115,1.0537731 -0.731252,0.5769771 -1.724247,-1.1071574 z M 14.597092,0.48810806 15.514176,1.0769789 14.697448,1.351335 13.785469,0.74157193 Z M 15.514176,1.0769789 16.489019,1.7029363 15.668172,2.0003728 14.697448,1.351335 Z m 0.974843,0.6259574 1.038235,0.6666627 -0.82375,0.3230103 -1.035332,-0.6922365 z m 1.038235,0.6666627 1.108018,0.711471 -0.825153,0.3514383 -1.106615,-0.739899 z m 1.108018,0.711471 1.185084,0.7609541 -0.824719,0.3831383 -1.185518,-0.7926541 z m 1.185084,0.7609541 1.270476,0.8157873 -0.822019,0.4186129 -1.273176,-0.8512619 z m 1.270476,0.8157873 1.365444,0.876767 -0.816535,0.4584663 -1.370928,-0.9166204 z m 1.365444,0.876767 1.471475,0.9448509 -0.807624,0.5034216 -1.480386,-0.9898062 z m 1.471475,0.9448509 1.590354,1.0211846 -0.794478,0.5543583 -1.6035,-1.0721213 z m 1.590354,1.0211846 1.724247,1.1071574 -0.776089,0.6123508 -1.742636,-1.1651499 z M 13.785469,0.74157193 14.697448,1.351335 13.843894,1.6380601 12.938381,1.0061122 Z M 14.697448,1.351335 15.668172,2.0003728 14.809093,2.3116639 13.843894,1.6380601 Z m 0.970724,0.6490378 1.035332,0.6922365 -0.863424,0.3385711 -1.030987,-0.7195165 z m 1.035332,0.6922365 1.106615,0.739899 -0.866299,0.3689599 -1.10374,-0.7702878 z m 1.106615,0.739899 1.185518,0.7926541 -0.867344,0.4029398 -1.184473,-0.826634 z m 1.185518,0.7926541 1.273176,0.8512619 -0.866118,0.4410711 -1.274402,-0.8893932 z m 1.273176,0.8512619 1.370928,0.9166204 -0.862071,0.4840334 -1.374975,-0.9595827 z m 1.370928,0.9166204 1.480386,0.9898062 -0.854512,0.5326486 -1.487945,-1.0384214 z m 1.480386,0.9898062 1.6035,1.0721213 -0.842579,0.5879225 -1.615433,-1.1273952 z m 1.6035,1.0721213 1.742636,1.1651499 -0.825177,0.6510859 -1.760038,-1.2283133 z m -11.785246,-7.04886 0.905513,0.6319479 -0.892928,0.299953 -0.897514,-0.655545 z m 0.905513,0.6319479 0.965199,0.6736038 -0.900044,0.3261353 -0.958083,-0.6997861 z m 0.965199,0.6736038 1.030987,0.7195165 -0.906035,0.3552774 -1.024996,-0.7486586 z m 1.030987,0.7195165 1.10374,0.7702878 -0.910599,0.3878291 -1.099176,-0.8028395 z m 1.10374,0.7702878 1.184473,0.826634 -0.913363,0.4243187 -1.181709,-0.8631236 z m 1.184473,0.826634 1.274402,0.8893932 -0.913865,0.4653845 -1.2739,-0.930459 z M 19.402695,5.5174954 20.77767,6.4770781 19.866149,6.9888759 18.48883,5.9828799 Z M 20.77767,6.4770781 22.265615,7.5154995 21.360011,8.079995 19.866149,6.9888759 Z m 1.487945,1.0384214 1.615433,1.1273952 -0.895184,0.624628 -1.625853,-1.1875277 z m 1.615433,1.1273952 1.760038,1.2283133 -0.879077,0.693614 -1.776145,-1.2972993 z M 12.053452,1.2824681 12.950966,1.9380131 12.015875,2.2521284 11.128091,1.5714503 Z m 0.897514,0.655545 0.958083,0.6997861 -0.944013,0.3420657 -0.949161,-0.7277365 z m 0.958083,0.6997861 1.024996,0.7486586 -0.951879,0.3732558 -1.01713,-0.7798487 z m 1.024996,0.7486586 1.099176,0.8028395 -0.958386,0.4081818 -1.092669,-0.8377655 z M 16.033221,4.1892973 17.21493,5.0524209 16.251786,5.499866 15.074835,4.5974791 Z m 1.181709,0.8631236 1.2739,0.930459 -0.96567,0.4917666 -1.271374,-0.9747805 z m 1.2739,0.930459 1.377319,1.005996 -0.965355,0.5420235 -1.377634,-1.0562529 z m 1.377319,1.005996 1.493862,1.0911191 -0.96142,0.5992883 -1.497797,-1.1483839 z m 1.493862,1.0911191 1.625853,1.1875277 -0.952873,0.6648809 -1.6344,-1.2531203 z m 1.625853,1.1875277 1.776145,1.2972993 -0.938435,0.740448 -1.790583,-1.3728664 z M 11.128091,1.5714503 12.015875,2.2521284 11.035562,2.5814369 10.159457,1.8739474 Z m 0.887784,0.6806781 0.949161,0.7277365 -0.991284,0.3591945 -0.93819,-0.7576225 z m 0.949161,0.7277365 1.01713,0.7798487 -1.001297,0.3926327 -1.007117,-0.8132869 z m 1.01713,0.7798487 1.092669,0.8377655 -1.010036,0.4301807 -1.08393,-0.8753135 z M 15.074835,4.5974791 16.251786,5.499866 15.234678,5.9723821 14.064799,5.0276598 Z M 16.251786,5.499866 17.52316,6.4746465 16.501149,6.9951052 15.234678,5.9723821 Z m 1.271374,0.9747805 1.377634,1.0562529 -1.024101,0.5750094 -1.375544,-1.1108036 z m 1.377634,1.0562529 1.497797,1.1483839 -1.022559,0.6374012 -1.499339,-1.2107757 z m 1.497797,1.1483839 1.6344,1.2531203 -1.016325,0.7091564 -1.640634,-1.3248755 z m 1.6344,1.2531203 1.790583,1.3728664 -1.004016,0.792193 -1.802892,-1.455903 z M 10.159457,1.8739474 11.035562,2.5814369 10.006667,2.9270638 9.1444468,2.1909282 Z m 0.876105,0.7074895 0.93819,0.7576225 -1.042195,0.3776437 -0.92489,-0.7896393 z m 0.93819,0.7576225 1.007117,0.8132869 -1.054661,0.4135592 -0.994651,-0.8492024 z m 1.007117,0.8132869 1.08393,0.8753135 -1.065977,0.4540073 -1.072614,-0.9157616 z m 1.08393,0.8753135 1.169879,0.9447223 -1.07574,0.4997525 -1.160116,-0.9904675 z m 1.169879,0.9447223 1.266471,1.0227231 -1.083429,0.551736 -1.258782,-1.0747066 z m 1.266471,1.0227231 1.375544,1.1108036 -1.08838,0.6111016 -1.370593,-1.1701692 z m 1.375544,1.1108036 1.499339,1.2107757 -1.089724,0.6792636 -1.497995,-1.2789377 z m 1.499339,1.2107757 1.640634,1.3248755 -1.086332,0.758004 -1.644026,-1.4036159 z m 1.640634,1.3248755 1.802892,1.455903 -1.07672,0.849558 -1.812504,-1.547457 z M 9.1444468,2.1909282 10.006667,2.9270638 8.925485,3.2902536 8.0796451,2.5234582 Z M 10.006667,2.9270638 10.931557,3.7167031 9.8344241,4.114254 8.925485,3.2902536 Z m 0.92489,0.7896393 0.994651,0.8492024 L 10.813797,5.0021066 9.8344241,4.114254 Z m 0.994651,0.8492024 1.072614,0.9157616 -1.126699,0.479866 -1.058326,-0.9594265 z m 1.072614,0.9157616 1.160116,0.9904675 -1.139591,0.529418 -1.147224,-1.0400195 z m 1.160116,0.9904675 1.258782,1.0747066 -1.150557,0.5859204 -1.247816,-1.131209 z m 1.258782,1.0747066 1.370593,1.1701692 -1.158905,0.6506979 -1.362245,-1.2349467 z m 1.370593,1.1701692 1.497995,1.2789377 -1.16373,0.7253969 -1.49317,-1.3536367 z m 1.497995,1.2789377 1.644026,1.4036159 -1.163833,0.812081 -1.643923,-1.4903 z m 1.644026,1.4036159 1.812504,1.547457 -1.157617,0.91339 -1.81872,-1.648766 z M 8.0796451,2.5234582 8.925485,3.2902536 7.787927,3.6723839 6.961298,2.8727083 Z M 8.925485,3.2902536 9.8344241,4.114254 8.6778912,4.5333285 7.787927,3.6723839 Z M 9.8344241,4.114254 10.813797,5.0021066 9.6387611,5.462869 8.6778912,4.5333285 Z M 10.813797,5.0021066 11.872123,5.9615331 10.679361,6.4695377 9.6387611,5.462869 Z m 1.058326,0.9594265 1.147224,1.0400195 -1.209301,0.5618022 -1.130685,-1.0938171 z m 1.147224,1.0400195 1.247816,1.131209 -1.224121,0.6233835 -1.232996,-1.1927903 z m 1.247816,1.131209 1.362245,1.2349467 -1.236515,0.6942757 -1.349851,-1.3058389 z m 1.362245,1.2349467 1.49317,1.3536367 -1.24554,0.776391 -1.484145,-1.435752 z m 1.49317,1.3536367 1.643923,1.4903 -1.249933,0.872161 -1.63953,-1.58607 z m 1.643923,1.4903 1.81872,1.648766 -1.247988,0.984692 -1.820665,-1.761297 z" />
    <path
       style="fill:#343434;fill-opacity:0.2;stroke:#000000;stroke-width:0.0971953;stroke-dasharray:none;stroke-opacity:1;paint-order:fill markers stroke"
       id="path5-8-1-9"
       d="m 21.214008,6.5682008 c 0.06807,0.6875859 -0.423146,0.8929619 -1.080679,0.9043473 -0.631346,0.010911 -1.252742,0.098834 -2.049605,0.2685446 -0.89378,0.190349 -1.789598,0.1022487 -2.95585,-0.6878693 -1.118432,-0.757726 -1.604431,-1.4725816 -1.496137,-1.5560554 0.160874,-0.1239993 1.058551,0.026639 2.085374,-0.2515197 1.026833,-0.2781801 2.092263,-0.7594264 2.794536,-0.803055 0.657605,-0.04088 1.157227,0.2357488 1.610609,0.5648406 0.486017,0.3527837 1.032903,0.9663895 1.091752,1.5607669 z" />
    <path
       style="fill:none;fill-rule:evenodd;stroke:#000000;stroke-width:0.1;stroke-dasharray:none;stroke-opacity:1"
       id="rect1-1-7-7"
       width="31.979841"
       height="11.266134"
       x="131.95564"
       y="124.32661"
       ry="0"
       d="m 9.4933198,1.2915766 c 1.9537302,1.2253071 3.4181452,1.3718518 5.9870362,1.38035 2.560927,0.00848 4.209322,0.1947784 6.501583,1.7475278 1.983572,1.3436555 3.71803,3.0591406 5.007576,3.8836271 1.28234,0.8198983 2.112431,1.0018237 2.112431,1.0018237 -1.049294,0.5125252 -1.998054,0.6980218 -3.321404,1.0175588 -1.360786,0.328576 -2.371326,0.658011 -3.70806,1.294267 -1.026408,0.488536 -2.028904,1.06734 -3.055312,1.555875 -0.776636,0.369626 -1.247967,0.51953 -1.247967,0.51953 C 15.921077,12.817667 14.937774,11.210347 12.742614,8.8964765 10.640094,6.6802597 9.1611474,6.0905945 6.9491904,5.8874239 4.6051709,5.6721313 3.6852246,5.7062615 2.0570992,4.8652874 0.82042057,4.2265091 0.10606346,3.5740934 0.10606346,3.5740934 3.2351522,2.8735183 6.364231,2.2582846 9.4933198,1.2915766 Z" />
    <circle
       style="fill:#000000;fill-opacity:1;stroke:#000000;stroke-width:0.0603216;stroke-dasharray:none;stroke-opacity:1;paint-order:fill markers stroke"
       id="path4-8-8-1"
       cx="17.681387"
       cy="6.1705289"
       r="0.15000001" />
    <path
       style="fill:none;stroke:#000000;stroke-width:0.06;stroke-linecap:butt;stroke-linejoin:miter;stroke-dasharray:none;stroke-opacity:1;marker-end:url(#marker45-2-8)"
       d="m 17.091693,10.72207 5.43649,-3.3736898"
       id="path44-4-8" />
    <path
       style="fill:none;stroke:#000000;stroke-width:0.06;stroke-linecap:butt;stroke-linejoin:miter;stroke-dasharray:none;stroke-opacity:1;marker-end:url(#marker47-9-0)"
       d="M 17.132843,10.74536 12.320983,6.3496902"
       id="path46-3-1" />
    <path
       style="fill:none;stroke:#000000;stroke-width:0.1;stroke-linecap:butt;stroke-linejoin:miter;stroke-dasharray:none;stroke-opacity:1;marker-end:url(#ConcaveTriangle-5-8)"
       d="M 17.654883,6.1047522 16.247168,3.8828172"
       id="path1" />
    <g
       id="g1"
       style="fill:#000000;fill-opacity:1">
      <g
         id="surface1-0-6"
         transform="matrix(0.12136826,0,0,0.12136826,18.931551,-0.0387308)"
         style="fill:#000000;fill-opacity:1">
        <g
           style="fill:#000000;fill-opacity:1"
           id="g3-3-1">
          <g
             id="use2-5-9"
             style="fill:#000000;fill-opacity:1"
             transform="translate(0.71601599,7.766016)">
            <path
               style="stroke:none;fill:#000000;fill-opacity:1"
               d="M 2.671875,-3.125 H 3.03125 l 1.5,2.3125 C 4.625,-0.65625 4.859375,-0.265625 4.96875,-0.125 5.046875,0 5.078125,0 5.296875,0 h 1.375 c 0.1875,0 0.34375,0 0.34375,-0.171875 0,-0.09375 -0.0625,-0.15625 -0.15625,-0.171875 C 6.484375,-0.421875 6,-1.09375 5.765625,-1.40625 5.6875,-1.5 5.1875,-2.15625 4.53125,-3.234375 5.40625,-3.40625 6.265625,-3.78125 6.265625,-4.96875 6.265625,-6.34375 4.8125,-6.828125 3.625,-6.828125 H 0.5 c -0.1875,0 -0.34375,0 -0.34375,0.171875 0,0.171875 0.1875,0.171875 0.265625,0.171875 0.578125,0 0.625,0.078125 0.625,0.578125 v 4.984375 c 0,0.5 -0.046875,0.578125 -0.625,0.578125 -0.078125,0 -0.265625,0 -0.265625,0.171875 C 0.15625,0 0.3125,0 0.5,0 H 3.234375 C 3.40625,0 3.5625,0 3.5625,-0.171875 c 0,-0.171875 -0.171875,-0.171875 -0.28125,-0.171875 -0.5625,0 -0.609375,-0.078125 -0.609375,-0.578125 z m 1.921875,-0.5 c 0.28125,-0.359375 0.3125,-0.890625 0.3125,-1.328125 0,-0.484375 -0.0625,-1.015625 -0.375,-1.421875 0.40625,0.09375 1.390625,0.40625 1.390625,1.40625 0,0.65625 -0.296875,1.15625 -1.328125,1.34375 z M 2.671875,-5.9375 c 0,-0.21875 0,-0.546875 0.625,-0.546875 0.84375,0 1.265625,0.359375 1.265625,1.53125 0,1.28125 -0.3125,1.46875 -1.890625,1.46875 z M 1.3125,-0.34375 C 1.390625,-0.53125 1.390625,-0.8125 1.390625,-0.890625 V -5.9375 c 0,-0.09375 0,-0.359375 -0.078125,-0.546875 h 1.140625 c -0.125,0.171875 -0.125,0.359375 -0.125,0.515625 v 5.078125 c 0,0.09375 0,0.359375 0.078125,0.546875 z M 3.4375,-3.125 c 0.078125,-0.015625 0.109375,-0.03125 0.1875,-0.03125 0.15625,0 0.375,-0.015625 0.515625,-0.03125 0.15625,0.234375 1.234375,2.015625 2.0625,2.84375 h -0.96875 z m 0,0"
               id="path18-4" />
          </g>
        </g>
        <g
           style="fill:#000000;fill-opacity:1"
           id="g4-7-1">
          <g
             id="use3-7-7"
             style="fill:#000000;fill-opacity:1"
             transform="translate(7.9070358,4.148046)">
            <path
               style="stroke:none;fill:#000000;fill-opacity:1"
               d="m 0.84375,-0.4375 c -0.015625,0.09375 -0.0625,0.265625 -0.0625,0.28125 0,0.15625 0.125,0.21875 0.234375,0.21875 0.125,0 0.234375,-0.078125 0.28125,-0.140625 0.03125,-0.0625 0.078125,-0.296875 0.125,-0.4375 0.03125,-0.125 0.109375,-0.453125 0.140625,-0.625 0.046875,-0.15625 0.09375,-0.3125 0.125,-0.46875 0.078125,-0.28125 0.09375,-0.34375 0.296875,-0.625 C 2.171875,-2.515625 2.5,-2.875 3.03125,-2.875 c 0.390625,0 0.40625,0.359375 0.40625,0.484375 0,0.421875 -0.296875,1.1875 -0.40625,1.484375 -0.078125,0.203125 -0.109375,0.265625 -0.109375,0.375 0,0.375 0.296875,0.59375 0.65625,0.59375 0.703125,0 1,-0.953125 1,-1.0625 0,-0.09375 -0.078125,-0.09375 -0.109375,-0.09375 -0.09375,0 -0.09375,0.046875 -0.125,0.125 C 4.1875,-0.40625 3.875,-0.125 3.609375,-0.125 c -0.15625,0 -0.1875,-0.09375 -0.1875,-0.25 0,-0.15625 0.046875,-0.25 0.171875,-0.5625 0.078125,-0.21875 0.359375,-0.953125 0.359375,-1.34375 0,-0.671875 -0.53125,-0.796875 -0.90625,-0.796875 -0.578125,0 -0.96875,0.359375 -1.171875,0.640625 -0.046875,-0.484375 -0.453125,-0.640625 -0.75,-0.640625 -0.296875,0 -0.453125,0.21875 -0.546875,0.375 -0.15625,0.265625 -0.25,0.65625 -0.25,0.703125 0,0.078125 0.09375,0.078125 0.125,0.078125 0.09375,0 0.09375,-0.015625 0.140625,-0.203125 0.109375,-0.40625 0.25,-0.75 0.515625,-0.75 0.1875,0 0.234375,0.15625 0.234375,0.34375 0,0.125 -0.0625,0.390625 -0.125,0.578125 -0.046875,0.1875 -0.109375,0.46875 -0.140625,0.625 z m 0,0"
               id="path19-3" />
          </g>
        </g>
      </g>
      <g
         ns1:text="\(M\)"
         transform="matrix(0.1,0,0,0.1,-14.711686,-6.8210888)"
         id="g7-9-4-6"
         style="fill:#000000;fill-opacity:1">
        <g
           id="g6-3-3-1"
           style="fill:#000000;fill-opacity:1">
          <g
             style="fill:#000000;fill-opacity:1"
             id="g5-6-8-2">
            <path
               style="fill:#000000;fill-opacity:1;stroke:none"
               d="M 9.234375,-6.046875 C 9.328125,-6.40625 9.34375,-6.5 10.09375,-6.5 c 0.21875,0 0.3125,0 0.3125,-0.203125 0,-0.109375 -0.09375,-0.109375 -0.265625,-0.109375 h -1.3125 c -0.265625,0 -0.28125,0 -0.390625,0.1875 L 4.796875,-0.9375 4.015625,-6.578125 C 3.984375,-6.8125 3.96875,-6.8125 3.703125,-6.8125 H 2.34375 c -0.1875,0 -0.296875,0 -0.296875,0.1875 0,0.125 0.09375,0.125 0.28125,0.125 0.140625,0 0.3125,0.015625 0.4375,0.015625 0.15625,0.03125 0.21875,0.046875 0.21875,0.171875 0,0.03125 -0.015625,0.0625 -0.046875,0.1875 l -1.265625,5.0625 c -0.09375,0.40625 -0.265625,0.71875 -1.078125,0.75 -0.046875,0 -0.171875,0.015625 -0.171875,0.1875 0,0.09375 0.0625,0.125 0.140625,0.125 0.3125,0 0.65625,-0.03125 1,-0.03125 C 1.890625,-0.03125 2.25,0 2.578125,0 c 0.046875,0 0.1875,0 0.1875,-0.203125 0,-0.109375 -0.109375,-0.109375 -0.1875,-0.109375 -0.5625,0 -0.671875,-0.203125 -0.671875,-0.4375 0,-0.0625 0,-0.125 0.03125,-0.234375 L 3.296875,-6.40625 H 3.3125 l 0.859375,6.171875 C 4.1875,-0.109375 4.203125,0 4.3125,0 4.421875,0 4.484375,-0.109375 4.53125,-0.171875 l 4.03125,-6.3125 h 0.015625 l -1.4375,5.703125 c -0.09375,0.390625 -0.109375,0.46875 -0.90625,0.46875 -0.15625,0 -0.265625,0 -0.265625,0.1875 C 5.96875,0 6.078125,0 6.109375,0 6.390625,0 7.0625,-0.03125 7.34375,-0.03125 7.75,-0.03125 8.1875,0 8.59375,0 8.65625,0 8.78125,0 8.78125,-0.203125 8.78125,-0.3125 8.6875,-0.3125 8.5,-0.3125 c -0.359375,0 -0.640625,0 -0.640625,-0.171875 0,-0.046875 0,-0.0625 0.046875,-0.25 z m 0,0"
               transform="translate(178.585,110.99)"
               id="path3-8-6-8" />
          </g>
        </g>
      </g>
      <g
         ns1:text="\(P\)"
         transform="matrix(0.1,0,0,0.1,0.816674,-4.6695688)"
         id="g10-2-1-8"
         style="fill:#000000;fill-opacity:1">
        <g
           id="g9-6-4-5"
           style="fill:#000000;fill-opacity:1">
          <g
             style="fill:#000000;fill-opacity:1"
             id="g8-1-6-0">
            <path
               style="fill:#000000;fill-opacity:1;stroke:none"
               d="M 3.015625,-3.15625 H 4.71875 c 1.40625,0 2.796875,-1.03125 2.796875,-2.140625 0,-0.78125 -0.65625,-1.515625 -1.96875,-1.515625 h -3.21875 c -0.1875,0 -0.296875,0 -0.296875,0.1875 0,0.125 0.078125,0.125 0.28125,0.125 0.125,0 0.3125,0.015625 0.421875,0.015625 0.171875,0.03125 0.21875,0.046875 0.21875,0.171875 0,0.03125 0,0.0625 -0.03125,0.1875 l -1.34375,5.34375 c -0.09375,0.390625 -0.109375,0.46875 -0.90625,0.46875 -0.15625,0 -0.265625,0 -0.265625,0.1875 C 0.40625,0 0.515625,0 0.546875,0 0.828125,0 1.53125,-0.03125 1.8125,-0.03125 c 0.21875,0 0.4375,0.015625 0.640625,0.015625 0.21875,0 0.4375,0.015625 0.640625,0.015625 0.078125,0 0.203125,0 0.203125,-0.203125 0,-0.109375 -0.09375,-0.109375 -0.28125,-0.109375 -0.359375,0 -0.640625,0 -0.640625,-0.171875 0,-0.0625 0.015625,-0.109375 0.03125,-0.171875 z M 3.734375,-6.125 C 3.828125,-6.46875 3.84375,-6.5 4.28125,-6.5 h 0.953125 c 0.828125,0 1.359375,0.265625 1.359375,0.953125 0,0.390625 -0.203125,1.25 -0.59375,1.609375 -0.5,0.453125 -1.09375,0.53125 -1.53125,0.53125 H 3.0625 Z m 0,0"
               transform="translate(178.585,110.99)"
               id="path7-5-1-5" />
          </g>
        </g>
      </g>
      <g
         ns1:text="\(\partial_i = \frac{\partial}{\partial x^i}\)"
         transform="matrix(0.1,0,0,0.1,5.102414,-4.0824498)"
         id="g74-7-4"
         style="fill:#000000;fill-opacity:1">
        <g
           id="g73-5-5"
           style="fill:#000000;fill-opacity:1">
          <g
             style="fill:#000000;fill-opacity:1"
             id="g66-7-1">
            <path
               style="fill:#000000;fill-opacity:1;stroke:none"
               d="m 4.609375,-3.375 c -0.09375,-0.625 -0.5,-1.1875 -1.28125,-1.1875 -0.609375,0 -1.25,0.171875 -2.03125,0.9375 -0.828125,0.828125 -0.890625,1.765625 -0.890625,2.0625 0,0.625 0.4375,1.78125 1.828125,1.78125 2.375,0 3.40625,-3.34375 3.40625,-4.78125 0,-1.578125 -0.921875,-2.578125 -2.15625,-2.578125 -1.4375,0 -1.90625,1.296875 -1.90625,1.578125 0,0.140625 0.09375,0.34375 0.390625,0.34375 0.328125,0 0.53125,-0.296875 0.53125,-0.515625 0,-0.359375 -0.3125,-0.359375 -0.46875,-0.359375 0.4375,-0.734375 1.15625,-0.796875 1.4375,-0.796875 0.734375,0 1.421875,0.515625 1.421875,1.8125 0,0.390625 -0.0625,0.890625 -0.265625,1.703125 z m -2.34375,3.3125 c -1.09375,0 -1.09375,-1.03125 -1.09375,-1.125 0,-0.265625 0.25,-1.65625 0.65625,-2.265625 0.390625,-0.5625 0.890625,-0.890625 1.5,-0.890625 1.09375,0 1.109375,1.125 1.109375,1.328125 0,0.71875 -0.640625,2.953125 -2.171875,2.953125 z m 0,0"
               transform="translate(178.585,110.99)"
               id="path65-2-5" />
          </g>
          <g
             style="fill:#000000;fill-opacity:1"
             id="g67-7-6">
            <path
               style="fill:#000000;fill-opacity:1;stroke:none"
               d="m 2.265625,-4.359375 c 0,-0.109375 -0.09375,-0.265625 -0.28125,-0.265625 -0.1875,0 -0.390625,0.1875 -0.390625,0.390625 0,0.109375 0.078125,0.265625 0.28125,0.265625 0.1875,0 0.390625,-0.203125 0.390625,-0.390625 z M 0.84375,-0.8125 c -0.03125,0.09375 -0.0625,0.171875 -0.0625,0.296875 0,0.328125 0.265625,0.578125 0.65625,0.578125 0.6875,0 1,-0.953125 1,-1.0625 0,-0.09375 -0.09375,-0.09375 -0.109375,-0.09375 -0.09375,0 -0.109375,0.046875 -0.140625,0.125 -0.15625,0.5625 -0.453125,0.84375 -0.734375,0.84375 -0.140625,0 -0.171875,-0.09375 -0.171875,-0.25 0,-0.15625 0.046875,-0.28125 0.109375,-0.4375 C 1.46875,-1 1.546875,-1.1875 1.609375,-1.375 1.671875,-1.546875 1.9375,-2.171875 1.953125,-2.265625 1.984375,-2.328125 2,-2.40625 2,-2.484375 2,-2.8125 1.71875,-3.078125 1.34375,-3.078125 0.640625,-3.078125 0.328125,-2.125 0.328125,-2 c 0,0.078125 0.09375,0.078125 0.125,0.078125 0.09375,0 0.09375,-0.03125 0.125,-0.109375 C 0.75,-2.625 1.0625,-2.875 1.3125,-2.875 c 0.109375,0 0.171875,0.046875 0.171875,0.234375 0,0.171875 -0.03125,0.265625 -0.203125,0.703125 z m 0,0"
               transform="translate(183.874,112.485)"
               id="path66-7-0" />
          </g>
          <g
             style="fill:#000000;fill-opacity:1"
             id="g68-6-7">
            <path
               style="fill:#000000;fill-opacity:1;stroke:none"
               d="m 6.84375,-3.265625 c 0.15625,0 0.34375,0 0.34375,-0.1875 C 7.1875,-3.65625 7,-3.65625 6.859375,-3.65625 h -5.96875 c -0.140625,0 -0.328125,0 -0.328125,0.203125 0,0.1875 0.1875,0.1875 0.328125,0.1875 z m 0.015625,1.9375 c 0.140625,0 0.328125,0 0.328125,-0.203125 0,-0.1875 -0.1875,-0.1875 -0.34375,-0.1875 H 0.890625 c -0.140625,0 -0.328125,0 -0.328125,0.1875 0,0.203125 0.1875,0.203125 0.328125,0.203125 z m 0,0"
               transform="translate(189.958,110.99)"
               id="path67-2-3" />
          </g>
          <g
             style="fill:#000000;fill-opacity:1"
             id="g69-6-6">
            <path
               style="fill:#000000;fill-opacity:1;stroke:none"
               d="m 3.65625,-2.359375 c -0.09375,-0.40625 -0.40625,-0.8125 -1.0625,-0.8125 -0.984375,0 -1.78125,0.71875 -2.03125,1.359375 -0.046875,0.109375 -0.140625,0.390625 -0.140625,0.671875 0,0.484375 0.375,1.28125 1.453125,1.28125 1.8125,0 2.546875,-2.25 2.546875,-3.234375 0,-1.203125 -0.78125,-1.875 -1.71875,-1.875 C 1.5625,-4.96875 1.25,-4.0625 1.25,-3.859375 c 0,0.0625 0.046875,0.25 0.28125,0.25 0.25,0 0.390625,-0.203125 0.390625,-0.375 0,-0.1875 -0.140625,-0.25 -0.265625,-0.265625 C 2,-4.78125 2.578125,-4.78125 2.6875,-4.78125 c 0.53125,0 1.140625,0.328125 1.140625,1.328125 0,0.296875 -0.03125,0.546875 -0.15625,1.09375 z m -1.765625,2.28125 c -0.78125,0 -0.875,-0.59375 -0.875,-0.8125 0,-0.265625 0.1875,-0.953125 0.265625,-1.125 0.125,-0.328125 0.546875,-0.96875 1.34375,-0.96875 0.671875,0 0.890625,0.53125 0.890625,0.953125 0,0.46875 -0.453125,1.953125 -1.625,1.953125 z m 0,0"
               transform="translate(205.506,107.068)"
               id="path68-7-2" />
          </g>
          <path
             style="fill:#000000;fill-opacity:1;stroke:#000000;stroke-width:0.3985;stroke-linecap:butt;stroke-linejoin:miter;stroke-miterlimit:10;stroke-opacity:1"
             d="m 129.66797,-36.5 h 12.35937"
             transform="matrix(1,0,0,-1,72,72)"
             id="path69-0-2" />
          <g
             style="fill:#000000;fill-opacity:1"
             id="g70-7-9">
            <path
               style="fill:#000000;fill-opacity:1;stroke:none"
               d="m 3.65625,-2.359375 c -0.09375,-0.40625 -0.40625,-0.8125 -1.0625,-0.8125 -0.984375,0 -1.78125,0.71875 -2.03125,1.359375 -0.046875,0.109375 -0.140625,0.390625 -0.140625,0.671875 0,0.484375 0.375,1.28125 1.453125,1.28125 1.8125,0 2.546875,-2.25 2.546875,-3.234375 0,-1.203125 -0.78125,-1.875 -1.71875,-1.875 C 1.5625,-4.96875 1.25,-4.0625 1.25,-3.859375 c 0,0.0625 0.046875,0.25 0.28125,0.25 0.25,0 0.390625,-0.203125 0.390625,-0.375 0,-0.1875 -0.140625,-0.25 -0.265625,-0.265625 C 2,-4.78125 2.578125,-4.78125 2.6875,-4.78125 c 0.53125,0 1.140625,0.328125 1.140625,1.328125 0,0.296875 -0.03125,0.546875 -0.15625,1.09375 z m -1.765625,2.28125 c -0.78125,0 -0.875,-0.59375 -0.875,-0.8125 0,-0.265625 0.1875,-0.953125 0.265625,-1.125 0.125,-0.328125 0.546875,-0.96875 1.34375,-0.96875 0.671875,0 0.890625,0.53125 0.890625,0.953125 0,0.46875 -0.453125,1.953125 -1.625,1.953125 z m 0,0"
               transform="translate(201.669,114.426)"
               id="path70-8-9" />
          </g>
          <g
             style="fill:#000000;fill-opacity:1"
             id="g71-7-2">
            <path
               style="fill:#000000;fill-opacity:1;stroke:none"
               d="M 1.734375,-0.734375 C 1.671875,-0.5 1.4375,-0.125 1.078125,-0.125 c -0.015625,0 -0.234375,0 -0.375,-0.09375 0.28125,-0.09375 0.3125,-0.34375 0.3125,-0.390625 0,-0.15625 -0.125,-0.25 -0.28125,-0.25 -0.203125,0 -0.40625,0.15625 -0.40625,0.421875 0,0.34375 0.390625,0.5 0.734375,0.5 0.328125,0 0.609375,-0.1875 0.78125,-0.484375 C 2.015625,-0.0625 2.390625,0.0625 2.671875,0.0625 c 0.8125,0 1.234375,-0.859375 1.234375,-1.0625 0,-0.09375 -0.09375,-0.09375 -0.109375,-0.09375 -0.109375,0 -0.109375,0.046875 -0.140625,0.125 -0.140625,0.484375 -0.5625,0.84375 -0.953125,0.84375 -0.28125,0 -0.421875,-0.1875 -0.421875,-0.453125 0,-0.1875 0.171875,-0.8125 0.359375,-1.59375 C 2.78125,-2.703125 3.09375,-2.875 3.328125,-2.875 c 0.015625,0 0.21875,0 0.375,0.09375 -0.21875,0.0625 -0.3125,0.265625 -0.3125,0.390625 0,0.140625 0.125,0.25 0.28125,0.25 0.15625,0 0.390625,-0.125 0.390625,-0.421875 0,-0.390625 -0.453125,-0.515625 -0.71875,-0.515625 -0.359375,0 -0.640625,0.234375 -0.78125,0.5 -0.125,-0.28125 -0.453125,-0.5 -0.84375,-0.5 C 0.9375,-3.078125 0.5,-2.21875 0.5,-2 c 0,0.078125 0.09375,0.078125 0.109375,0.078125 0.09375,0 0.09375,-0.015625 0.140625,-0.109375 C 0.921875,-2.578125 1.359375,-2.875 1.703125,-2.875 1.9375,-2.875 2.125,-2.75 2.125,-2.421875 2.125,-2.28125 2.03125,-1.9375 1.96875,-1.6875 Z m 0,0"
               transform="translate(206.34842,114.426)"
               id="path71-1-9" />
          </g>
          <g
             style="fill:#000000;fill-opacity:1"
             id="g72-1-0">
            <path
               style="fill:#000000;fill-opacity:1;stroke:none"
               d="m 1.96875,-3.109375 c 0,-0.125 -0.078125,-0.21875 -0.21875,-0.21875 -0.140625,0 -0.296875,0.140625 -0.296875,0.296875 0,0.140625 0.109375,0.21875 0.21875,0.21875 0.15625,0 0.296875,-0.140625 0.296875,-0.296875 z m 0.234375,2.390625 c 0,-0.0625 -0.078125,-0.0625 -0.09375,-0.0625 -0.09375,0 -0.09375,0.015625 -0.125,0.109375 -0.078125,0.265625 -0.3125,0.5625 -0.5625,0.5625 -0.109375,0 -0.140625,-0.078125 -0.140625,-0.1875 0,-0.109375 0.015625,-0.171875 0.0625,-0.265625 0.03125,-0.09375 0.078125,-0.1875 0.109375,-0.265625 0.015625,-0.046875 0.203125,-0.5 0.28125,-0.6875 0.03125,-0.09375 0.0625,-0.171875 0.0625,-0.25 0,-0.234375 -0.234375,-0.4375 -0.546875,-0.4375 -0.515625,0 -0.796875,0.640625 -0.796875,0.765625 0,0.078125 0.078125,0.078125 0.109375,0.078125 0.078125,0 0.078125,-0.03125 0.109375,-0.09375 0.109375,-0.359375 0.34375,-0.578125 0.5625,-0.578125 0.09375,0 0.15625,0.046875 0.15625,0.1875 0,0.015625 0,0.078125 -0.03125,0.171875 -0.03125,0.09375 -0.265625,0.625 -0.328125,0.796875 -0.046875,0.09375 -0.046875,0.09375 -0.109375,0.265625 -0.03125,0.078125 -0.0625,0.140625 -0.0625,0.21875 0,0.265625 0.25,0.453125 0.546875,0.453125 0.515625,0 0.796875,-0.65625 0.796875,-0.78125 z m 0,0"
               transform="translate(210.871,112.433)"
               id="path72-2-6" />
          </g>
        </g>
      </g>
      <g
         ns1:text="\(T_P M \approx\)"
         transform="matrix(0.1,0,0,0.1,-2.472896,-10.31864)"
         style="fill:#000000;fill-opacity:1"
         id="g17">
        <g
           id="g22"
           style="fill:#000000;fill-opacity:1">
          <g
             style="fill:#000000;fill-opacity:1"
             id="g12">
            <path
               style="fill:#000000;fill-opacity:1;stroke:none"
               d="m 4.25,-6.046875 c 0.078125,-0.28125 0.109375,-0.34375 0.234375,-0.375 0.09375,-0.015625 0.421875,-0.015625 0.625,-0.015625 1.015625,0 1.453125,0.03125 1.453125,0.8125 0,0.15625 -0.03125,0.546875 -0.078125,0.796875 0,0.046875 -0.03125,0.15625 -0.03125,0.1875 0,0.0625 0.03125,0.140625 0.125,0.140625 0.109375,0 0.125,-0.078125 0.15625,-0.234375 L 7,-6.46875 C 7.015625,-6.515625 7.015625,-6.609375 7.015625,-6.640625 7.015625,-6.75 6.921875,-6.75 6.75,-6.75 H 1.21875 c -0.234375,0 -0.25,0.015625 -0.328125,0.203125 l -0.59375,1.75 c 0,0.015625 -0.0625,0.15625 -0.0625,0.1875 0,0.046875 0.0625,0.109375 0.125,0.109375 0.09375,0 0.109375,-0.0625 0.171875,-0.21875 C 1.0625,-6.265625 1.328125,-6.4375 2.796875,-6.4375 H 3.1875 c 0.28125,0 0.28125,0.03125 0.28125,0.125 0,0.046875 -0.03125,0.171875 -0.046875,0.203125 L 2.09375,-0.78125 C 2,-0.421875 1.96875,-0.3125 0.90625,-0.3125 c -0.359375,0 -0.421875,0 -0.421875,0.1875 C 0.484375,0 0.59375,0 0.65625,0 c 0.265625,0 0.546875,-0.015625 0.8125,-0.015625 0.28125,0 0.578125,-0.015625 0.859375,-0.015625 0.28125,0 0.546875,0.015625 0.828125,0.015625 C 3.4375,-0.015625 3.734375,0 4.015625,0 c 0.09375,0 0.21875,0 0.21875,-0.203125 0,-0.109375 -0.078125,-0.109375 -0.34375,-0.109375 -0.234375,0 -0.375,0 -0.625,-0.015625 -0.296875,-0.03125 -0.375,-0.0625 -0.375,-0.21875 0,-0.015625 0,-0.0625 0.046875,-0.203125 z m 0,0"
               transform="translate(178.585,110.99)"
               id="path12" />
          </g>
          <g
             style="fill:#000000;fill-opacity:1"
             id="g13">
            <path
               style="fill:#000000;fill-opacity:1;stroke:none"
               d="m 2.375,-2.15625 h 1.265625 c 1.171875,0 2.171875,-0.75 2.171875,-1.515625 0,-0.59375 -0.578125,-1.09375 -1.53125,-1.09375 h -2.4375 c -0.140625,0 -0.21875,0 -0.21875,0.15625 0,0.09375 0.078125,0.09375 0.234375,0.09375 0.109375,0 0.140625,0 0.265625,0.015625 0.140625,0.015625 0.140625,0.03125 0.140625,0.109375 0,0 0,0.046875 -0.015625,0.140625 L 1.328125,-0.578125 C 1.25,-0.296875 1.25,-0.25 0.703125,-0.25 0.578125,-0.25 0.5,-0.25 0.5,-0.09375 0.5,-0.09375 0.5,0 0.609375,0 0.8125,0 1.3125,-0.03125 1.515625,-0.03125 1.625,-0.03125 1.875,-0.03125 2,-0.015625 2.125,-0.015625 2.3125,0 2.4375,0 2.484375,0 2.578125,0 2.578125,-0.15625 2.578125,-0.25 2.5,-0.25 2.359375,-0.25 c 0,0 -0.140625,0 -0.265625,-0.015625 C 1.9375,-0.28125 1.9375,-0.296875 1.9375,-0.375 c 0,0 0,-0.046875 0.03125,-0.140625 z m 0.5,-2.109375 c 0.0625,-0.21875 0.0625,-0.25 0.359375,-0.25 h 0.8125 c 0.65625,0 1.046875,0.203125 1.046875,0.703125 0,0.203125 -0.078125,0.765625 -0.421875,1.078125 -0.25,0.21875 -0.65625,0.34375 -1.15625,0.34375 H 2.40625 Z m 0,0"
               transform="translate(184.406,112.485)"
               id="path13" />
          </g>
          <g
             style="fill:#000000;fill-opacity:1"
             id="g14">
            <path
               style="fill:#000000;fill-opacity:1;stroke:none"
               d="M 9.234375,-6.046875 C 9.328125,-6.40625 9.34375,-6.5 10.09375,-6.5 c 0.21875,0 0.3125,0 0.3125,-0.203125 0,-0.109375 -0.09375,-0.109375 -0.265625,-0.109375 h -1.3125 c -0.265625,0 -0.28125,0 -0.390625,0.1875 L 4.796875,-0.9375 4.015625,-6.578125 C 3.984375,-6.8125 3.96875,-6.8125 3.703125,-6.8125 H 2.34375 c -0.1875,0 -0.296875,0 -0.296875,0.1875 0,0.125 0.09375,0.125 0.28125,0.125 0.140625,0 0.3125,0.015625 0.4375,0.015625 0.15625,0.03125 0.21875,0.046875 0.21875,0.171875 0,0.03125 -0.015625,0.0625 -0.046875,0.1875 l -1.265625,5.0625 c -0.09375,0.40625 -0.265625,0.71875 -1.078125,0.75 -0.046875,0 -0.171875,0.015625 -0.171875,0.1875 0,0.09375 0.0625,0.125 0.140625,0.125 0.3125,0 0.65625,-0.03125 1,-0.03125 C 1.890625,-0.03125 2.25,0 2.578125,0 c 0.046875,0 0.1875,0 0.1875,-0.203125 0,-0.109375 -0.109375,-0.109375 -0.1875,-0.109375 -0.5625,0 -0.671875,-0.203125 -0.671875,-0.4375 0,-0.0625 0,-0.125 0.03125,-0.234375 L 3.296875,-6.40625 H 3.3125 l 0.859375,6.171875 C 4.1875,-0.109375 4.203125,0 4.3125,0 4.421875,0 4.484375,-0.109375 4.53125,-0.171875 l 4.03125,-6.3125 h 0.015625 l -1.4375,5.703125 c -0.09375,0.390625 -0.109375,0.46875 -0.90625,0.46875 -0.15625,0 -0.265625,0 -0.265625,0.1875 C 5.96875,0 6.078125,0 6.109375,0 6.390625,0 7.0625,-0.03125 7.34375,-0.03125 7.75,-0.03125 8.1875,0 8.59375,0 8.65625,0 8.78125,0 8.78125,-0.203125 8.78125,-0.3125 8.6875,-0.3125 8.5,-0.3125 c -0.359375,0 -0.640625,0 -0.640625,-0.171875 0,-0.046875 0,-0.0625 0.046875,-0.25 z m 0,0"
               transform="translate(191.049,110.99)"
               id="path14" />
          </g>
          <g
             style="fill:#000000;fill-opacity:1"
             id="g16">
            <path
               style="fill:#000000;fill-opacity:1;stroke:none"
               d="m 7.203125,-4.5 c 0,-0.21875 -0.078125,-0.3125 -0.140625,-0.3125 -0.046875,0 -0.140625,0.046875 -0.140625,0.28125 C 6.875,-3.84375 6.1875,-3.4375 5.53125,-3.4375 4.953125,-3.4375 4.453125,-3.75 3.9375,-4.09375 3.40625,-4.453125 2.859375,-4.8125 2.21875,-4.8125 c -0.9375,0 -1.671875,0.703125 -1.671875,1.625 0,0.21875 0.078125,0.296875 0.140625,0.296875 0.09375,0 0.140625,-0.1875 0.140625,-0.234375 C 0.875,-3.953125 1.6875,-4.25 2.21875,-4.25 c 0.578125,0 1.078125,0.296875 1.59375,0.65625 0.53125,0.359375 1.078125,0.71875 1.71875,0.71875 0.921875,0 1.671875,-0.71875 1.671875,-1.625 z m 0,2.328125 c 0,-0.296875 -0.125,-0.3125 -0.140625,-0.3125 -0.046875,0 -0.140625,0.046875 -0.140625,0.265625 C 6.875,-1.53125 6.1875,-1.109375 5.53125,-1.109375 c -0.578125,0 -1.078125,-0.3125 -1.59375,-0.671875 C 3.40625,-2.140625 2.859375,-2.5 2.21875,-2.5 c -0.9375,0 -1.671875,0.71875 -1.671875,1.625 0,0.234375 0.078125,0.3125 0.140625,0.3125 0.09375,0 0.140625,-0.1875 0.140625,-0.234375 C 0.875,-1.640625 1.6875,-1.9375 2.21875,-1.9375 c 0.578125,0 1.078125,0.3125 1.59375,0.65625 0.53125,0.359375 1.078125,0.71875 1.71875,0.71875 0.953125,0 1.671875,-0.734375 1.671875,-1.609375 z m 0,0"
               transform="translate(204.568,110.99)"
               id="path16" />
          </g>
        </g>
      </g>
      <g
         ns1:text="\(\textrm{\textbf{X}}_p\)"
         transform="matrix(0.1,0,0,0.1,-3.220391,-7.1115698)"
         style="fill:#000000;fill-opacity:1"
         id="g6">
        <g
           id="g18"
           style="fill:#000000;fill-opacity:1">
          <g
             style="fill:#000000;fill-opacity:1"
             id="g4">
            <path
               style="fill:#000000;fill-opacity:1;stroke:none"
               d="M 8.328125,0 V -0.46875 H 7.34375 L 4.828125,-3.953125 6.5,-6.15625 C 6.609375,-6.296875 6.625,-6.3125 6.96875,-6.34375 7.203125,-6.375 7.265625,-6.375 7.546875,-6.375 h 0.28125 V -6.84375 C 7.421875,-6.8125 6.921875,-6.8125 6.5,-6.8125 c -0.390625,0 -1.15625,0 -1.515625,-0.03125 V -6.375 c 0.171875,0 0.5625,0 0.921875,0.109375 -0.015625,0.03125 -0.0625,0.078125 -0.078125,0.109375 L 4.5,-4.40625 3.078125,-6.375 H 3.90625 V -6.84375 C 3.5,-6.8125 2.546875,-6.8125 2.109375,-6.8125 c -0.40625,0 -1.265625,0 -1.625,-0.03125 V -6.375 H 1.46875 l 2.203125,3.0625 -2,2.640625 C 1.578125,-0.546875 1.5625,-0.53125 1.234375,-0.5 1.03125,-0.484375 0.828125,-0.46875 0.625,-0.46875 H 0.34375 V 0 C 0.75,-0.03125 1.25,-0.03125 1.671875,-0.03125 c 0.390625,0 1.15625,0 1.515625,0.03125 v -0.46875 c -0.171875,0 -0.5625,0 -0.921875,-0.109375 C 2.28125,-0.59375 2.328125,-0.65625 2.359375,-0.6875 L 4,-2.875 5.734375,-0.46875 H 4.90625 V 0 c 0.40625,-0.03125 1.359375,-0.03125 1.796875,-0.03125 0.40625,0 1.265625,0 1.625,0.03125 z m 0,0"
               transform="translate(178.585,110.99)"
               id="path4" />
          </g>
          <g
             style="fill:#000000;fill-opacity:1"
             id="g5">
            <path
               style="fill:#000000;fill-opacity:1;stroke:none"
               d="m 0.515625,0.84375 c -0.046875,0.203125 -0.0625,0.25 -0.328125,0.25 -0.09375,0 -0.1875,0 -0.1875,0.15625 0,0.078125 0.0625,0.109375 0.09375,0.109375 0.171875,0 0.40625,-0.03125 0.59375,-0.03125 0.234375,0 0.5,0.03125 0.734375,0.03125 0.0625,0 0.140625,-0.03125 0.140625,-0.15625 0,-0.109375 -0.09375,-0.109375 -0.1875,-0.109375 -0.15625,0 -0.34375,0 -0.34375,-0.078125 0,-0.03125 0.0625,-0.21875 0.078125,-0.3125 0.09375,-0.375 0.1875,-0.75 0.265625,-1.046875 0.078125,0.140625 0.296875,0.40625 0.71875,0.40625 0.84375,0 1.78125,-0.9375 1.78125,-1.96875 0,-0.8125 -0.5625,-1.171875 -1.03125,-1.171875 -0.4375,0 -0.8125,0.296875 -1,0.5 -0.109375,-0.40625 -0.5,-0.5 -0.71875,-0.5 -0.265625,0 -0.4375,0.1875 -0.546875,0.375 -0.140625,0.234375 -0.25,0.65625 -0.25,0.703125 0,0.078125 0.09375,0.078125 0.125,0.078125 0.09375,0 0.09375,-0.015625 0.140625,-0.203125 0.109375,-0.40625 0.25,-0.75 0.515625,-0.75 0.1875,0 0.234375,0.15625 0.234375,0.34375 0,0.078125 -0.015625,0.15625 -0.03125,0.203125 z M 1.84375,-2.234375 C 2.25,-2.78125 2.59375,-2.875 2.8125,-2.875 c 0.28125,0 0.515625,0.203125 0.515625,0.671875 0,0.28125 -0.15625,1 -0.359375,1.40625 -0.1875,0.34375 -0.515625,0.671875 -0.875,0.671875 -0.5,0 -0.625,-0.53125 -0.625,-0.609375 0,-0.03125 0.015625,-0.078125 0.015625,-0.109375 z m 0,0"
               transform="translate(187.242,112.485)"
               id="path5" />
          </g>
        </g>
      </g>
    </g>
  </g>
</svg>
